{
.appVersion = "1352";
copyright = "Copyright 2010 The Josefin Sans Project Authors (https://github.com/ThomasJockin/JosefinSansFont-master), with Reserved Font Name \"Josefin Sans\".";
customParameters = (
{
name = license;
value = "This Font Software is licensed under the SIL Open Font License, Version 1.1. This license is available with a FAQ at: http://scripts.sil.org/OFL";
},
{
name = licenseURL;
value = "http://scripts.sil.org/OFL";
},
{
name = fsType;
value = (
);
},
{
name = trademark;
value = "Josefin Sans is a trademark of Typemade.";
},
{
name = Axes;
value = (
{
Name = Weight;
Tag = wght;
}
);
}
);
date = "2016-08-26 23:01:20 +0000";
designer = "Santiago Orozco";
designerURL = "http://www.typemade.mx";
disablesAutomaticAlignment = 1;
disablesNiceNames = 1;
familyName = "Josefin Sans";
featurePrefixes = (
{
code = "languagesystem DFLT dflt;";
name = Languagesystems;
}
);
features = (
{
automatic = 1;
code = "feature sups;\012feature frac;\012feature ordn;";
name = aalt;
},
{
automatic = 1;
code = "sub one by onesuperior;\012sub two by twosuperior;\012sub three by threesuperior;";
name = sups;
},
{
automatic = 1;
code = "sub one slash four by onequarter;\012sub one slash two by onehalf;\012sub three slash four by threequarters;";
name = frac;
},
{
automatic = 1;
code = "sub [zero one two three four five six seven eight nine] [A a]' by ordfeminine;\012sub [zero one two three four five six seven eight nine] [O o]' by ordmasculine;";
name = ordn;
},
{
automatic = 1;
code = "sub f i by fi;\012sub f l by fl;";
name = liga;
}
);
fontMaster = (
{
alignmentZones = (
"{702, 32}",
"{391, 5}",
"{19, -6}",
"{-239, 0}"
);
ascender = 750;
capHeight = 702;
custom = "Thin Italic";
customParameters = (
{
name = typoAscender;
value = 750;
},
{
name = typoDescender;
value = -250;
},
{
name = typoLineGap;
value = 0;
},
{
name = hheaAscender;
value = 750;
},
{
name = hheaDescender;
value = -250;
},
{
name = hheaLineGap;
value = 0;
},
{
name = winAscent;
value = 1242;
},
{

glyphs = (
{
glyphname = A;
lastChange = "2021-06-30 03:44:15 +0000";
layers = (
{
anchors = (
{
name = bottom;
position = "{332, 0}";
},
{
name = ogonek;
position = "{619, 10}";
},
{
name = top;
position = "{421, 731}";
}
);
layerId = master01;
paths = (
{
closed = 1;
nodes = (
"430 676 LINE",
"393 657 LINE",
"575 0 LINE",
"630 0 LINE",
"421 741 LINE",
"417 741 LINE",
"26 0 LINE",
"75 0 LINE"
);
},
{
closed = 1;
nodes = (
"188 235 LINE",
"529 235 LINE",
"521 281 LINE",
"206 281 LINE"
);
}
);
width = 706;
},
{
anchors = (
{
name = bottom;
position = "{332, 0}";
},
{
name = ogonek;
position = "{616.5, 10}";
},
{
name = top;
position = "{425.167, 726.833}";
}
);
layerId = "E3E5F2BC-81DA-462E-93BE-62096568DC8F";
paths = (
{
closed = 1;
nodes = (
"425 702.667 LINE",
"411.333 699.5 LINE",
"601.667 0 LINE",
"623.333 0 LINE",
"422.667 733.5 LINE",
"420.333 733.5 LINE",
"39.333 0 LINE",
"60 0 LINE"
);
},
{
closed = 1;
nodes = (
"190.5 262.5 LINE",
"538.167 262.5 LINE",
"538.5 281 LINE",
"195.167 281 LINE"
);
}
);
width = 709;
},
{
anchors = (
{
name = bottom;
position = "{333, 0}";
},
{
name = ogonek;
position = "{627, 10}";
},
{
name = top;
position = "{408, 745}";
}
);
layerId = "156A42CF-5234-4DDE-A174-0E3EC098A6C5";
paths = (
{
closed = 1;
nodes = (
"453 610 LINE",
"339 538 LINE",
"485 0 LINE",
"653 0 LINE",
"415 765 LINE",
"407 765 LINE",
"-19 0 LINE",
"124 0 LINE"
);
},
{
closed = 1;
nodes = (
"181 144 LINE",
"498 144 LINE",
"462 266 LINE",
"241 266 LINE"
);
}
);
width = 696;
}
);
leftKerningGroup = A;
rightKerningGroup = A;
unicode = 0041;
},
{
glyphname = B;
lastChange = "2021-06-30 03:44:15 +0000";
layers = (
{
anchors = (
{
name = bottom;
position = "{269, 0}";
},
{
name = top;
position = "{317, 700}";
}
);
layerId = master01;
paths = (
{
closed = 1;
nodes = (
"176 710 LINE",
"89 0 LINE",
"288 0 LINE SMOOTH",
"422 0 OFFCURVE",
"519 68 OFFCURVE",
"519 208 CURVE SMOOTH",
"519 295 OFFCURVE",
"456 347 OFFCURVE",
"383 360 CURVE",
"384 356 LINE",
"493 378 OFFCURVE",
"526 481 OFFCURVE",
"526 561 CURVE SMOOTH",
"526 667 OFFCURVE",
"456 710 OFFCURVE",
"332 710 CURVE SMOOTH"
);
},
{
closed = 1;
nodes = (
"185 378 LINE",
"220 664 LINE",
"328 664 LINE SMOOTH",
"422 664 OFFCURVE",
"475 630 OFFCURVE",
"475 547 CURVE SMOOTH",
"475 496 OFFCURVE",
"452 378 OFFCURVE",
"319 378 CURVE SMOOTH"
);
},
{
closed = 1;
nodes = (
"145 45 LINE",
"179 335 LINE",
"314 335 LINE SMOOTH",
"387 335 OFFCURVE",
"470 297 OFFCURVE",
"470 208 CURVE SMOOTH",
"470 123 OFFCURVE",
"418 45 OFFCURVE",
"290 45 CURVE SMOOTH"
);
}
);
userData = {
com.schriftgestaltung.Glyphs.glyph.leftMetricsKey = H;
com.schriftgestaltung.Glyphs.glyph.rightMetricsKey = O;
};
width = 590;
},
{
anchors = (
{
name = bottom;
position = "{263.167, 0}";
},
{
name = top;
position = "{326.167, 700}";
}
);
layerId = "E3E5F2BC-81DA-462E-93BE-62096568DC8F";
paths = (
{
closed = 1;
nodes = (
"181.833 701.667 LINE",
"95.667 0 LINE",
"281.333 0 LINE SMOOTH",
"413.667 0 OFFCURVE",
"499 69.667 OFFCURVE",
"499 202.167 CURVE SMOOTH",
"499 286.667 OFFCURVE",
"435.167 342 OFFCURVE",
"358.833 354.167 CURVE",
"358.167 350.167 LINE",
"471.333 371.333 OFFCURVE",
"505.167 477.667 OFFCURVE",
"505.167 558.5 CURVE SMOOTH",
"505.167 660.333 OFFCURVE",
"440.167 701.667 OFFCURVE",
"320.333 701.667 CURVE SMOOTH"
);
},
{
closed = 1;
nodes = (
"160 360.5 LINE",
"199.167 683.167 LINE",
"318.833 683.167 LINE SMOOTH",
"426.167 683.167 OFFCURVE",
"485 645.833 OFFCURVE",
"485 552 CURVE SMOOTH",
"485 499.333 OFFCURVE",
"465.333 360.5 OFFCURVE",
"310.667 360.5 CURVE SMOOTH"
);
},
{
closed = 1;
nodes = (
"118.333 18.333 LINE",
"157.333 342.5 LINE",
"309.833 342.5 LINE SMOOTH",
"387.833 342.5 OFFCURVE",
"479.167 298.667 OFFCURVE",
"479.167 199.667 CURVE SMOOTH",
"479.167 109.667 OFFCURVE",
"428 18.333 OFFCURVE",
"282.5 18.333 CURVE SMOOTH"
);
}
);
userData = {
com.schriftgestaltung.Glyphs.glyph.leftMetricsKey = H;
com.schriftgestaltung.Glyphs.glyph.rightMetricsKey = O;
};
width = 577;
},
{
anchors = (
{
name = bottom;
position = "{288, 0}";
},
{
name = top;
position = "{288, 700}";
}
);
layerId = "156A42CF-5234-4DDE-A174-0E3EC098A6C5";
paths = (
{
closed = 1;
nodes = (
"155 736 LINE",
"65 0 LINE",
"310 0 LINE SMOOTH",
"448 0 OFFCURVE",
"587 64 OFFCURVE",
"587 227 CURVE SMOOTH",
"587 321 OFFCURVE",
"525 364 OFFCURVE",
"464 379 CURVE",
"469 374 LINE",
"564 402 OFFCURVE",
"595 492 OFFCURVE",
"595 570 CURVE SMOOTH",
"595 689 OFFCURVE",
"509 736 OFFCURVE",
"371 736 CURVE SMOOTH"
);
},
{
closed = 1;
nodes = (
"268 435 LINE",
"289 601 LINE",
"357 601 LINE SMOOTH",
"409 601 OFFCURVE",
"442 577 OFFCURVE",
"442 531 CURVE SMOOTH",
"442 483 OFFCURVE",
"409 435 OFFCURVE",
"346 435 CURVE SMOOTH"
);
},
{
closed = 1;
nodes = (
"232 135 LINE",
"253 309 LINE",
"326 309 LINE SMOOTH",
"384 309 OFFCURVE",
"440 293 OFFCURVE",
"440 234 CURVE SMOOTH",
"440 168 OFFCURVE",
"384 135 OFFCURVE",
"315 135 CURVE SMOOTH"
);
}
);
userData = {
com.schriftgestaltung.Glyphs.glyph.leftMetricsKey = H;
com.schriftgestaltung.Glyphs.glyph.rightMetricsKey = O;
};
width = 638;
}
);
rightKerningGroup = B;
unicode = 0042;
},
{
glyphname = C;
lastChange = "2021-06-30 03:44:15 +0000";
layers = (
{
anchors = (
{
name = bottom;
position = "{426, -3}";
},
{
name = top;
position = "{459, 707}";
}
);
layerId = master01;
paths = (
{
closed = 1;
nodes = (
"589 76 LINE",
"547 56 OFFCURVE",
"493 35 OFFCURVE",
"429 35 CURVE SMOOTH",
"265 35 OFFCURVE",
"138 152 OFFCURVE",
"138 323 CURVE SMOOTH",
"138 486 OFFCURVE",
"234 668 OFFCURVE",
"472 665 CURVE SMOOTH",
"543 664 OFFCURVE",
"607 638 OFFCURVE",
"653 603 CURVE",
"679 646 LINE",
"625 684 OFFCURVE",
"553 712 OFFCURVE",
"469 712 CURVE SMOOTH",
"185 712 OFFCURVE",
"88 486 OFFCURVE",
"88 320 CURVE SMOOTH",
"88 114 OFFCURVE",
"243 -12 OFFCURVE",
"428 -12 CURVE SMOOTH",
"500 -12 OFFCURVE",
"563 9 OFFCURVE",
"607 32 CURVE"
);
}
);
userData = {
com.schriftgestaltung.Glyphs.glyph.leftMetricsKey = O;
com.schriftgestaltung.Glyphs.glyph.rightMetricsKey = O;
};
width = 697;
},
{
anchors = (
{
name = bottom;
position = "{424.333, -3.833}";
},
{
name = top;
position = "{462.333, 701.167}";
}
);
layerId = "E3E5F2BC-81DA-462E-93BE-62096568DC8F";
paths = (
{
closed = 1;
nodes = (
"590.667 46 LINE",
"542.833 23.5 OFFCURVE",
"488 6.667 OFFCURVE",
"429.833 6.667 CURVE SMOOTH",
"255.833 6.667 OFFCURVE",
"113.833 132.833 OFFCURVE",
"113.833 318 CURVE SMOOTH",
"113.833 481.833 OFFCURVE",
"209 685.5 OFFCURVE",
"474.5 685 CURVE SMOOTH",
"546.333 684.833 OFFCURVE",
"612.833 662.167 OFFCURVE",
"663.833 624.667 CURVE",
"675.667 641 LINE",
"620 679.833 OFFCURVE",
"551.333 703.667 OFFCURVE",
"475.667 703.667 CURVE SMOOTH",
"194.167 703.667 OFFCURVE",
"93.833 481.833 OFFCURVE",
"93.833 317.5 CURVE SMOOTH",
"93.833 134 OFFCURVE",
"227.167 -12 OFFCURVE",
"430.5 -12 CURVE SMOOTH",
"494.167 -12 OFFCURVE",
"550.5 4 OFFCURVE",
"600.333 28.667 CURVE"
);
}
);
userData = {
com.schriftgestaltung.Glyphs.glyph.leftMetricsKey = O;
com.schriftgestaltung.Glyphs.glyph.rightMetricsKey = O;
};
width = 697;
},
{
anchors = (
{
name = bottom;
position = "{433, 0}";
},
{
name = top;
position = "{449, 728}";
}
);
layerId = "156A42CF-5234-4DDE-A174-0E3EC098A6C5";
paths = (
{
closed = 1;
nodes = (
"584 177 LINE",
"561 163 OFFCURVE",
"511 128 OFFCURVE",
"426 128 CURVE SMOOTH",
"297 128 OFFCURVE",
"220 215 OFFCURVE",
"220 340 CURVE SMOOTH",
"220 500 OFFCURVE",
"318 609 OFFCURVE",
"462 600 CURVE",
"533 595 OFFCURVE",
"586 557 OFFCURVE",
"615 530 CURVE",
"689 663 LINE",
"641 699 OFFCURVE",
"558 741 OFFCURVE",
"448 741 CURVE SMOOTH",
"183 741 OFFCURVE",
"68 539 OFFCURVE",
"68 329 CURVE SMOOTH",
"68 67 OFFCURVE",
"267 -13 OFFCURVE",
"420 -13 CURVE SMOOTH",
"520 -13 OFFCURVE",
"603 26 OFFCURVE",
"628 43 CURVE"
);
}
);
userData = {
com.schriftgestaltung.Glyphs.glyph.leftMetricsKey = O;
com.schriftgestaltung.Glyphs.glyph.rightMetricsKey = O;
};
width = 700;
}
);
leftKerningGroup = O;
unicode = 0043;
},
{
glyphname = D;
lastChange = "2021-06-30 03:44:15 +0000";
layers = (
{
anchors = (
{
name = bottom;
position = "{344, 0}";
},
{
name = center;
position = "{157, 350}";
},
{
name = top;
position = "{400, 700}";
}
);
layerId = master01;
paths = (
{
closed = 1;
nodes = (
"286 0 LINE SMOOTH",
"506 0 OFFCURVE",
"682 135 OFFCURVE",
"688 379 CURVE SMOOTH",
"695 550 OFFCURVE",
"613 710 OFFCURVE",
"339 710 CURVE SMOOTH",
"176 710 LINE",
"89 0 LINE"
);
},
{
closed = 1;
nodes = (
"218 662 LINE",
"351 662 LINE SMOOTH",
"553 662 OFFCURVE",
"645 547 OFFCURVE",
"639 380 CURVE SMOOTH",
"634 161 OFFCURVE",
"480 47 OFFCURVE",
"290 47 CURVE",
"143 47 LINE"
);
}
);
userData = {
com.schriftgestaltung.Glyphs.glyph.leftMetricsKey = H;
com.schriftgestaltung.Glyphs.glyph.rightMetricsKey = O;
};
width = 738;
},
{
anchors = (
{
name = bottom;
position = "{340.667, 0}";
},
{
name = center;
position = "{147, 350}";
},
{
name = top;
position = "{400.833, 700}";
}
);
layerId = "E3E5F2BC-81DA-462E-93BE-62096568DC8F";
paths = (
{
closed = 1;
nodes = (
"276 0 LINE SMOOTH",
"501.833 0 OFFCURVE",
"673.667 134.167 OFFCURVE",
"674.667 385.667 CURVE SMOOTH",
"675.833 553.333 OFFCURVE",
"595.5 701.667 OFFCURVE",
"328.167 701.667 CURVE SMOOTH",
"181.833 701.667 LINE",
"95.667 0 LINE"
);
},
{
closed = 1;
nodes = (
"198.833 681.167 LINE",
"336 681.167 LINE SMOOTH",
"578 681.167 OFFCURVE",
"655.833 543.667 OFFCURVE",
"654.833 384.167 CURVE SMOOTH",
"654 144.333 OFFCURVE",
"485.833 19.5 OFFCURVE",
"283.333 19.5 CURVE",
"118 19.5 LINE"
);
}
);
userData = {
com.schriftgestaltung.Glyphs.glyph.leftMetricsKey = H;
com.schriftgestaltung.Glyphs.glyph.rightMetricsKey = O;
};
width = 731;
},
{
anchors = (
{
name = bottom;
position = "{356, 0}";
},
{
name = center;
position = "{191, 350}";
},
{
name = top;
position = "{396, 700}";
}
);
layerId = "156A42CF-5234-4DDE-A174-0E3EC098A6C5";
paths = (
{
closed = 1;
nodes = (
"353 0 LINE",
"538 0 OFFCURVE",
"710 136 OFFCURVE",
"734 355 CURVE",
"754 540 OFFCURVE",
"679 736 OFFCURVE",
"415 736 CURVE",
"155 736 LINE",
"65 0 LINE"
);
},
{
closed = 1;
nodes = (
"283 597 LINE",
"401 597 LINE",
"468 597 OFFCURVE",
"609 557 OFFCURVE",
"586 365 CURVE",
"570 217 OFFCURVE",
"475 140 OFFCURVE",
"345 140 CURVE",
"227 140 LINE"
);
}
);
userData = {
com.schriftgestaltung.Glyphs.glyph.leftMetricsKey = H;
com.schriftgestaltung.Glyphs.glyph.rightMetricsKey = O;
};
width = 767;
}
);
rightKerningGroup = O;
unicode = 0044;
},
{
glyphname = E;
lastChange = "2021-06-30 03:44:15 +0000";
layers = (
{
anchors = (
{
name = bottom;
position = "{310, 0}";
},
{
name = ogonek;
position = "{530, 10}";
},
{
name = top;
position = "{383, 708}";
},
{
name = topleft;
position = "{62, 700}";
}
);
layerId = master01;
paths = (
{
closed = 1;
nodes = (
"89 0 LINE",
"541 0 LINE",
"547 47 LINE",
"145 47 LINE",
"179 334 LINE",
"528 334 LINE",
"534 380 LINE",
"185 380 LINE",
"220 664 LINE",
"608 664 LINE",
"614 710 LINE",
"176 710 LINE"
);
}
);
userData = {
com.schriftgestaltung.Glyphs.glyph.leftMetricsKey = H;
};
width = 639;
},
{
anchors = (
{
name = bottom;
position = "{295, 0}";
},
{
name = ogonek;
position = "{523.333, 10}";
},
{
name = top;
position = "{378.833, 701.333}";
},
{
name = topleft;
position = "{79.5, 700}";
}
);
layerId = "E3E5F2BC-81DA-462E-93BE-62096568DC8F";
paths = (
{
closed = 1;
nodes = (
"95.667 0 LINE",
"528.5 0 LINE",
"531.167 19.5 LINE",
"118.333 19.5 LINE",
"157.333 344 LINE",
"517.167 344 LINE",
"519.833 363.333 LINE",
"160 363.333 LINE",
"199.167 682.333 LINE",
"598 682.333 LINE",
"600.667 701.667 LINE",
"181.833 701.667 LINE"
);
}
);
userData = {
com.schriftgestaltung.Glyphs.glyph.leftMetricsKey = H;
};
width = 631;
},
{
anchors = (
{
name = bottom;
position = "{360, 0}";
},
{
name = ogonek;
position = "{554, 10}";
},
{
name = top;
position = "{397, 730}";
},
{
name = topleft;
position = "{3, 700}";
}
);
layerId = "156A42CF-5234-4DDE-A174-0E3EC098A6C5";
paths = (
{
closed = 1;
nodes = (
"65 0 LINE",
"581 0 LINE",
"598 139 LINE",
"232 139 LINE",
"252 299 LINE",
"563 299 LINE",
"580 437 LINE",
"269 437 LINE",
"289 601 LINE",
"641 601 LINE",
"657 736 LINE",
"155 736 LINE"
);
}
);
userData = {
com.schriftgestaltung.Glyphs.glyph.leftMetricsKey = H;
};
width = 667;
}
);
unicode = 0045;
},
{
glyphname = F;
lastChange = "2021-06-30 03:44:15 +0000";
layers = (
{
anchors = (
{
name = bottom;
position = "{265, 0}";
},
{
name = top;
position = "{351, 700}";
}
);
layerId = master01;
paths = (
{
closed = 1;
nodes = (
"89 0 LINE",
"139 0 LINE",
"178 324 LINE",
"486 324 LINE",
"492 371 LINE",
"184 371 LINE",
"220 663 LINE",
"567 663 LINE",
"573 710 LINE",
"176 710 LINE"
);
}
);
userData = {
com.schriftgestaltung.Glyphs.glyph.leftMetricsKey = H;
};
width = 578;
},
{
anchors = (
{
name = bottom;
position = "{262.5, 0}";
},
{
name = top;
position = "{348.5, 700}";
}
);
layerId = "E3E5F2BC-81DA-462E-93BE-62096568DC8F";
paths = (
{
closed = 1;
nodes = (
"95.667 0 LINE",
"115.667 0 LINE",
"156.333 334 LINE",
"476 334 LINE",
"478.667 353.5 LINE",
"159 353.5 LINE",
"199.167 682.167 LINE",
"557.833 682.167 LINE",
"560.5 701.667 LINE",
"181.833 701.667 LINE"
);
}
);
userData = {
com.schriftgestaltung.Glyphs.glyph.leftMetricsKey = H;
};
width = 571;
},
{
anchors = (
{
name = bottom;
position = "{275, 0}";
},
{
name = top;
position = "{360, 700}";
}
);
layerId = "156A42CF-5234-4DDE-A174-0E3EC098A6C5";
paths = (
{
closed = 1;
nodes = (
"65 0 LINE",
"215 0 LINE",
"250 289 LINE",
"518 289 LINE",
"536 428 LINE",
"268 428 LINE",
"288 598 LINE",
"598 598 LINE",
"615 736 LINE",
"155 736 LINE"
);
}
);
userData = {
com.schriftgestaltung.Glyphs.glyph.leftMetricsKey = H;
};
width = 600;
}
);
rightKerningGroup = F;
unicode = 0046;
},
{
glyphname = G;
lastChange = "2021-06-30 03:44:15 +0000";
layers = (
{
anchors = (
{
name = bottom;
position = "{381, 0}";
},
{
name = top;
position = "{458, 711}";
}
);
layerId = master01;
paths = (
{
closed = 1;
nodes = (
"668 318 LINE",
"457 318 LINE",
"451 272 LINE",
"612 272 LINE",
"587 65 LINE",
"541 44 OFFCURVE",
"472 34 OFFCURVE",
"416 37 CURVE SMOOTH",
"239 48 OFFCURVE",
"133 172 OFFCURVE",
"137 331 CURVE SMOOTH",
"142 476 OFFCURVE",
"239 666 OFFCURVE",
"479 663 CURVE SMOOTH",
"545 663 OFFCURVE",
"614 639 OFFCURVE",
"662 605 CURVE",
"685 648 LINE",
"630 686 OFFCURVE",
"560 710 OFFCURVE",
"481 712 CURVE SMOOTH",
"222 715 OFFCURVE",
"96 511 OFFCURVE",
"87 330 CURVE SMOOTH",
"80 143 OFFCURVE",
"209 -8 OFFCURVE",
"428 -11 CURVE SMOOTH",
"498 -13 OFFCURVE",
"585 7 OFFCURVE",
"633 35 CURVE"
);
}
);
userData = {
com.schriftgestaltung.Glyphs.glyph.leftMetricsKey = O;
};
width = 746;
},
{
anchors = (
{
name = bottom;
position = "{377.667, 0}";
},
{
name = top;
position = "{453.833, 701.833}";
}
);
layerId = "E3E5F2BC-81DA-462E-93BE-62096568DC8F";
paths = (
{
closed = 1;
nodes = (
"654.667 298.833 LINE",
"463.667 298.833 LINE",
"461 280.333 LINE",
"632 280.333 LINE",
"602.833 40.833 LINE",
"550.167 16.5 OFFCURVE",
"472 4.833 OFFCURVE",
"411 7.833 CURVE SMOOTH",
"224 19.667 OFFCURVE",
"113 153.667 OFFCURVE",
"113.667 319.333 CURVE SMOOTH",
"114.5 460.167 OFFCURVE",
"210.667 685.167 OFFCURVE",
"475.667 684.667 CURVE SMOOTH",
"546.667 684.667 OFFCURVE",
"614 662.333 OFFCURVE",
"665.333 625 CURVE",
"676.667 641.333 LINE",
"620.833 680.167 OFFCURVE",
"552.5 703.333 OFFCURVE",
"477.667 703.667 CURVE SMOOTH",
"202 704.167 OFFCURVE",
"95.167 474.333 OFFCURVE",
"93.667 319.167 CURVE SMOOTH",
"92.5 137.167 OFFCURVE",
"220.667 -11.333 OFFCURVE",
"433 -11.833 CURVE SMOOTH",
"497.167 -12.167 OFFCURVE",
"570.833 2.833 OFFCURVE",
"621.333 28.333 CURVE"
);
}
);
userData = {
com.schriftgestaltung.Glyphs.glyph.leftMetricsKey = O;
};
width = 740;
},
{
anchors = (
{
name = bottom;
position = "{396, 0}";
},
{
name = top;
position = "{479, 740}";
}
);
layerId = "156A42CF-5234-4DDE-A174-0E3EC098A6C5";
paths = (
{
closed = 1;
nodes = (
"717 382 LINE",
"442 382 LINE",
"425 243 LINE",
"552 243 LINE",
"541 147 LINE",
"519 136 OFFCURVE",
"491 132 OFFCURVE",
"459 133 CURVE SMOOTH",
"404 133 OFFCURVE",
"219 157 OFFCURVE",
"219 333 CURVE SMOOTH",
"219 437 OFFCURVE",
"271 590 OFFCURVE",
"464 593 CURVE SMOOTH",
"525 594 OFFCURVE",
"603 573 OFFCURVE",
"655 539 CURVE",
"719 671 LINE",
"646 718 OFFCURVE",
"548 738 OFFCURVE",
"466 739 CURVE SMOOTH",
"174 741 OFFCURVE",
"67 498 OFFCURVE",
"67 328 CURVE SMOOTH",
"67 32 OFFCURVE",
"361 -11 OFFCURVE",
"432 -11 CURVE SMOOTH",
"521 -12 OFFCURVE",
"640 23 OFFCURVE",
"678 56 CURVE"
);
}
);
userData = {
com.schriftgestaltung.Glyphs.glyph.leftMetricsKey = O;
};
width = 772;
}
);
leftKerningGroup = O;
unicode = 0047;
},
{
glyphname = H;
lastChange = "2021-06-30 03:44:15 +0000";
layers = (
{
anchors = (
{
name = bottom;
position = "{351, 0}";
},
{
name = center;
position = "{393, 353}";
},
{
name = top;
position = "{435, 711}";
},
{
name = topleft;
position = "{46, 700}";
}
);
layerId = master01;
paths = (
{
closed = 1;
nodes = (
"651 710 LINE",
"611 381 LINE",
"185 381 LINE",
"226 710 LINE",
"176 710 LINE",
"89 0 LINE",
"139 0 LINE",
"180 334 LINE",
"606 334 LINE",
"564 0 LINE",
"614 0 LINE",
"701 710 LINE"
);
}
);
width = 753;
},
{
anchors = (
{
name = bottom;
position = "{344.333, 0}";
},
{
name = center;
position = "{387.167, 350.5}";
},
{
name = top;
position = "{430, 701.833}";
},
{
name = topleft;
position = "{76.833, 700}";
}
);
layerId = "E3E5F2BC-81DA-462E-93BE-62096568DC8F";
paths = (
{
closed = 1;
nodes = (
"659.333 701.667 LINE",
"617.667 362.667 LINE",
"160 362.667 LINE",
"201.833 701.667 LINE",
"181.833 701.667 LINE",
"95.667 0 LINE",
"115.667 0 LINE",
"158.333 344 LINE",
"616 344 LINE",
"573.167 0 LINE",
"593.167 0 LINE",
"679.333 701.667 LINE"
);
}
);
width = 736;
},
{
anchors = (
{
name = bottom;
position = "{373, 0}";
},
{
name = center;
position = "{413, 360}";
},
{
name = top;
position = "{453, 740}";
},
{
name = topleft;
position = "{-58, 700}";
}
);
layerId = "156A42CF-5234-4DDE-A174-0E3EC098A6C5";
paths = (
{
closed = 1;
nodes = (
"624 736 LINE",
"588 441 LINE",
"269 441 LINE",
"305 736 LINE",
"155 736 LINE",
"65 0 LINE",
"215 0 LINE",
"252 299 LINE",
"571 299 LINE",
"534 0 LINE",
"684 0 LINE",
"774 736 LINE"
);
}
);
width = 810;
}
);
unicode = 0048;
},
{
glyphname = I;
lastChange = "2021-06-30 03:44:15 +0000";
layers = (
{
anchors = (
{
name = bottom;
position = "{113, 0}";
},
{
name = ogonek;
position = "{137, 7}";
},
{
name = top;
position = "{200, 708}";
},
{
name = topleft;
position = "{59, 700}";
}
);
layerId = master01;
paths = (
{
closed = 1;
nodes = (
"89 0 LINE",
"139 0 LINE",
"226 710 LINE",
"176 710 LINE"
);
}
);
userData = {
com.schriftgestaltung.Glyphs.glyph.leftMetricsKey = H;
com.schriftgestaltung.Glyphs.glyph.rightMetricsKey = H;
};
width = 278;
},
{
anchors = (
{
name = bottom;
position = "{105.5, 0}";
},
{
name = ogonek;
position = "{113.667, 9.5}";
},
{
name = top;
position = "{191.667, 701.333}";
},
{
name = topleft;
position = "{79, 700}";
}
);
layerId = "E3E5F2BC-81DA-462E-93BE-62096568DC8F";
paths = (
{
closed = 1;
nodes = (
"95.667 0 LINE",
"115.667 0 LINE",
"201.833 701.667 LINE",
"181.833 701.667 LINE"
);
}
);
userData = {
com.schriftgestaltung.Glyphs.glyph.leftMetricsKey = H;
com.schriftgestaltung.Glyphs.glyph.rightMetricsKey = H;
};
width = 258;
},
{
anchors = (
{
name = bottom;
position = "{137, 0}";
},
{
name = ogonek;
position = "{215, 0}";
},
{
name = top;
position = "{227, 730}";
},
{
name = topleft;
position = "{-8, 700}";
}
);
layerId = "156A42CF-5234-4DDE-A174-0E3EC098A6C5";
paths = (
{
closed = 1;
nodes = (
"65 0 LINE",
"215 0 LINE",
"305 736 LINE",
"155 736 LINE"
);
}
);
userData = {
com.schriftgestaltung.Glyphs.glyph.leftMetricsKey = H;
com.schriftgestaltung.Glyphs.glyph.rightMetricsKey = H;
};
width = 341;
}
);
unicode = 0049;
},
{
glyphname = Iogonek;
lastChange = "2021-06-30 03:44:15 +0000";
layers = (
{
layerId = master01;
paths = (
{
closed = 1;
nodes = (
"119 -198 OFFCURVE",
"155 -172 OFFCURVE",
"174 -140 CURVE",
"155 -116 LINE",
"138 -143 OFFCURVE",
"116 -161 OFFCURVE",
"90 -161 CURVE",
"63 -160 OFFCURVE",
"38 -140 OFFCURVE",
"39 -104 CURVE",
"40 -65 OFFCURVE",
"78 -31 OFFCURVE",
"139 0 CURVE",
"226 710 LINE",
"176 710 LINE",
"89 0 LINE",
"97 17 LINE",
"38 -10 OFFCURVE",
"-3 -62 OFFCURVE",
"-3 -110 CURVE",
"-3 -161 OFFCURVE",
"36 -195 OFFCURVE",
"82 -197 CURVE"
);
}
);
width = 274;
},
{
layerId = "E3E5F2BC-81DA-462E-93BE-62096568DC8F";
paths = (
{
closed = 1;
nodes = (
"111.5 -186.333 OFFCURVE",
"140 -161.167 OFFCURVE",
"154 -132.5 CURVE",
"141.667 -123.5 LINE",
"127.167 -148.833 OFFCURVE",
"106 -168.5 OFFCURVE",
"80 -168.5 CURVE",
"52.167 -168.333 OFFCURVE",
"25.5 -145 OFFCURVE",
"25.667 -108.167 CURVE",
"25.833 -70 OFFCURVE",
"59.667 -32.667 OFFCURVE",
"115.667 0 CURVE",
"201.833 701.667 LINE",
"181.833 701.667 LINE",
"95.667 0 LINE",
"105.333 14.5 LINE",
"52.167 -12.5 OFFCURVE",
"6.167 -58.667 OFFCURVE",
"6.167 -109.167 CURVE",
"6.167 -155.167 OFFCURVE",
"40.167 -185.833 OFFCURVE",
"77.833 -186.167 CURVE"
);
}
);
width = 257;
},
{
layerId = "156A42CF-5234-4DDE-A174-0E3EC098A6C5";
paths = (
{
closed = 1;
nodes = (
"143 -235 OFFCURVE",
"205 -208 OFFCURVE",
"241 -165 CURVE",
"200 -91 LINE",
"174 -122 OFFCURVE",
"149 -137 OFFCURVE",
"122 -135 CURVE",
"99 -134 OFFCURVE",
"79 -124 OFFCURVE",
"83 -90 CURVE SMOOTH",
"88 -48 OFFCURVE",
"140 -26 OFFCURVE",
"215 0 CURVE",
"305 736 LINE",
"155 736 LINE",
"65 0 LINE",
"71 25 LINE",
"-8 -2 OFFCURVE",
"-33 -72 OFFCURVE",
"-33 -111 CURVE SMOOTH",
"-33 -180 OFFCURVE",
"22 -227 OFFCURVE",
"97 -232 CURVE"
);
}
);
width = 330;
}
);
unicode = 012E;
},
{
glyphname = J;
lastChange = "2021-06-30 03:44:15 +0000";
layers = (
{
anchors = (
{
name = bottom;
position = "{137, 0}";
},
{
name = top;
position = "{255, 710}";
}
);
layerId = master01;
paths = (
{
closed = 1;
nodes = (
"280 710 LINE",
"232 710 LINE",
"158 110 LINE SMOOTH",
"142 -21 OFFCURVE",
"62 -92 OFFCURVE",
"-34 -97 CURVE",
"-40 -145 LINE",
"-40 -145 LINE",
"81 -141 OFFCURVE",
"187 -52 OFFCURVE",
"206 107 CURVE SMOOTH"
);
}
);
userData = {
com.schriftgestaltung.Glyphs.glyph.rightMetricsKey = H;
};
width = 332;
},
{
anchors = (
{
name = bottom;
position = "{125.333, 0}";
},
{
name = top;
position = "{238.333, 701.667}";
}
);
layerId = "E3E5F2BC-81DA-462E-93BE-62096568DC8F";
paths = (
{
closed = 1;
nodes = (
"253.333 701.667 LINE",
"234.5 701.667 LINE",
"159.667 95.833 LINE SMOOTH",
"143.667 -38.5 OFFCURVE",
"60.333 -117.833 OFFCURVE",
"-37.333 -122.833 CURVE",
"-40 -142.5 LINE",
"-40 -142.5 LINE",
"64.333 -138.5 OFFCURVE",
"160.333 -57 OFFCURVE",
"178.5 92.833 CURVE SMOOTH"
);
}
);
userData = {
com.schriftgestaltung.Glyphs.glyph.rightMetricsKey = H;
};
width = 310;
},
{
anchors = (
{
name = bottom;
position = "{175, 0}";
},
{
name = top;
position = "{286, 736}";
}
);
layerId = "156A42CF-5234-4DDE-A174-0E3EC098A6C5";
paths = (
{
closed = 1;
nodes = (
"368 736 LINE",
"222 736 LINE",
"152 158 LINE SMOOTH",
"137 38 OFFCURVE",
"68 -7 OFFCURVE",
"-23 -12 CURVE",
"-40 -153 LINE",
"-40 -153 LINE",
"137 -148 OFFCURVE",
"274 -37 OFFCURVE",
"297 155 CURVE SMOOTH"
);
}
);
userData = {
com.schriftgestaltung.Glyphs.glyph.rightMetricsKey = H;
};
width = 404;
}
);
unicode = 004A;
},
{
glyphname = K;
lastChange = "2021-06-30 03:44:15 +0000";
layers = (
{
anchors = (
{
name = bottom;
position = "{303, 0}";
},
{
name = top;
position = "{391, 710}";
}
);
layerId = master01;
paths = (
{
closed = 1;
nodes = (
"225 710 LINE",
"176 710 LINE",
"89 0 LINE",
"138 0 LINE",
"175 306 LINE",
"271 388 LINE",
"524 0 LINE",
"586 0 LINE",
"311 419 LINE",
"640 710 LINE",
"577 710 LINE",
"183 364 LINE",
"179 355 LINE",
"185 390 LINE"
);
}
);
userData = {
com.schriftgestaltung.Glyphs.glyph.leftMetricsKey = H;
};
width = 655;
},
{
anchors = (
{
name = bottom;
position = "{297.167, 0}";
},
{
name = top;
position = "{383.5, 701.667}";
}
);
layerId = "E3E5F2BC-81DA-462E-93BE-62096568DC8F";
paths = (
{
closed = 1;
nodes = (
"201.667 701.667 LINE",
"181.833 701.667 LINE",
"95.667 0 LINE",
"115.5 0 LINE",
"153.333 314.333 LINE",
"266 409.667 LINE",
"539 0 LINE",
"564.333 0 LINE",
"282.667 423.167 LINE",
"607.5 701.667 LINE",
"582 701.667 LINE",
"152.167 334 LINE",
"154.833 330.833 LINE",
"160 365 LINE"
);
}
);
userData = {
com.schriftgestaltung.Glyphs.glyph.leftMetricsKey = H;
};
width = 641;
},
{
anchors = (
{
name = bottom;
position = "{324, 0}";
},
{
name = top;
position = "{415, 736}";
}
);
layerId = "156A42CF-5234-4DDE-A174-0E3EC098A6C5";
paths = (
{
closed = 1;
nodes = (
"302 736 LINE",
"155 736 LINE",
"65 0 LINE",
"212 0 LINE",
"246 278 LINE",
"286 314 LINE",
"475 0 LINE",
"659 0 LINE",
"404 406 LINE",
"748 736 LINE",
"560 736 LINE",
"287 465 LINE",
"261 437 LINE",
"270 474 LINE"
);
}
);
userData = {
com.schriftgestaltung.Glyphs.glyph.leftMetricsKey = H;
};
width = 701;
}
);
rightKerningGroup = K;
unicode = 004B;
},
{
glyphname = L;
lastChange = "2021-06-30 03:44:15 +0000";
layers = (
{
anchors = (
{
name = bottom;
position = "{302, 0}";
},
{
name = center;
position = "{491, 355}";
},
{
name = top;
position = "{195, 715}";
},
{
name = topright;
position = "{619, 710}";
}
);
layerId = master01;
paths = (
{
closed = 1;
nodes = (
"89 0 LINE",
"527 0 LINE",
"533 47 LINE",
"143 47 LINE",
"224 710 LINE",
"176 710 LINE"
);
}
);
userData = {
com.schriftgestaltung.Glyphs.glyph.leftMetricsKey = H;
};
width = 578;
},
{
anchors = (
{
name = bottom;
position = "{303.667, 0}";
},
{
name = center;
position = "{535.167, 350.833}";
},
{
name = top;
position = "{185, 702.5}";
},
{
name = topright;
position = "{603.167, 701.667}";
}
);
layerId = "E3E5F2BC-81DA-462E-93BE-62096568DC8F";
paths = (
{
closed = 1;
nodes = (
"95.667 0 LINE",
"517.833 0 LINE",
"520.5 19.5 LINE",
"118 19.5 LINE",
"201.5 701.667 LINE",
"181.833 701.667 LINE"
);
}
);
userData = {
com.schriftgestaltung.Glyphs.glyph.leftMetricsKey = H;
};
width = 561;
},
{
anchors = (
{
name = bottom;
position = "{298, 0}";
},
{
name = center;
position = "{343, 368}";
},
{
name = top;
position = "{227, 756}";
},
{
name = topright;
position = "{671, 736}";
}
);
layerId = "156A42CF-5234-4DDE-A174-0E3EC098A6C5";
paths = (
{
closed = 1;
nodes = (
"65 0 LINE",
"556 0 LINE",
"573 140 LINE",
"227 140 LINE",
"300 736 LINE",
"155 736 LINE"
);
}
);
userData = {
com.schriftgestaltung.Glyphs.glyph.leftMetricsKey = H;
};
width = 638;
}
);
rightKerningGroup = L;
unicode = 004C;
},
{
glyphname = M;
lastChange = "2021-06-30 03:44:15 +0000";
layers = (
{
anchors = (
{
name = bottom;
position = "{435, 0}";
},
{
name = top;
position = "{509, 700}";
}
);
layerId = master01;
paths = (
{
closed = 1;
nodes = (
"212 611 LINE",
"201 589 LINE",
"448 172 LINE",
"450 172 LINE",
"797 589 LINE",
"796 613 LINE",
"721 0 LINE",
"769 0 LINE",
"859 726 LINE",
"858 726 LINE",
"446 232 LINE",
"469 229 LINE",
"180 726 LINE",
"179 726 LINE",
"89 0 LINE",
"137 0 LINE"
);
}
);
userData = {
com.schriftgestaltung.Glyphs.glyph.leftMetricsKey = H;
com.schriftgestaltung.Glyphs.glyph.rightMetricsKey = H;
};
width = 909;
},
{
anchors = (
{
name = bottom;
position = "{425.833, 0}";
},
{
name = top;
position = "{509.833, 700}";
}
);
layerId = "E3E5F2BC-81DA-462E-93BE-62096568DC8F";
paths = (
{
closed = 1;
nodes = (
"197 664.333 LINE",
"193.5 656.5 LINE",
"450.5 220.333 LINE",
"452.5 220.333 LINE",
"816.167 656.5 LINE",
"814.333 664.667 LINE",
"732.667 0 LINE",
"752.333 0 LINE",
"840.667 713.5 LINE",
"839.667 713.5 LINE",
"447.667 242 LINE",
"459.833 241.5 LINE",
"185 713.5 LINE",
"184 713.5 LINE",
"95.667 0 LINE",
"115.333 0 LINE"
);
}
);
userData = {
com.schriftgestaltung.Glyphs.glyph.leftMetricsKey = H;
com.schriftgestaltung.Glyphs.glyph.rightMetricsKey = H;
};
width = 896;
},
{
anchors = (
{
name = bottom;
position = "{461, 0}";
},
{
name = top;
position = "{501, 700}";
}
);
layerId = "156A42CF-5234-4DDE-A174-0E3EC098A6C5";
paths = (
{
closed = 1;
nodes = (
"257 433 LINE",
"224 364 LINE",
"436 10 LINE",
"438 10 LINE",
"731 364 LINE",
"731 439 LINE",
"677 0 LINE",
"822 0 LINE",
"916 766 LINE",
"914 766 LINE",
"437 200 LINE",
"497 186 LINE",
"159 766 LINE",
"158 766 LINE",
"64 0 LINE",
"204 0 LINE"
);
}
);
userData = {
com.schriftgestaltung.Glyphs.glyph.leftMetricsKey = H;
com.schriftgestaltung.Glyphs.glyph.rightMetricsKey = H;
};
width = 948;
}
);
unicode = 004D;
},
{
glyphname = N;
lastChange = "2021-06-30 03:44:15 +0000";
layers = (
{
anchors = (
{
name = bottom;
position = "{391, 0}";
},
{
name = top;
position = "{471, 700}";
}
);
layerId = master01;
paths = (
{
closed = 1;
nodes = (
"772 710 LINE",
"725 710 LINE",
"649 85 LINE",
"662 86 LINE",
"180 725 LINE",
"178 725 LINE",
"89 0 LINE",
"136 0 LINE",
"212 624 LINE",
"200 618 LINE",
"681 -17 LINE",
"683 -17 LINE"
);
}
);
userData = {
com.schriftgestaltung.Glyphs.glyph.leftMetricsKey = H;
com.schriftgestaltung.Glyphs.glyph.rightMetricsKey = H;
};
width = 824;
},
{
anchors = (
{
name = bottom;
position = "{384.333, 0}";
},
{
name = top;
position = "{469.333, 700}";
}
);
layerId = "E3E5F2BC-81DA-462E-93BE-62096568DC8F";
paths = (
{
closed = 1;
nodes = (
"757 701.667 LINE",
"737.5 701.667 LINE",
"654.833 27.5 LINE",
"665.333 26 LINE",
"184.167 713.333 LINE",
"183 713.333 LINE",
"95.667 0 LINE",
"115.167 0 LINE",
"197.833 675.667 LINE",
"191.667 666.333 LINE",
"668.5 -12.833 LINE",
"669.667 -12.833 LINE"
);
}
);
userData = {
com.schriftgestaltung.Glyphs.glyph.leftMetricsKey = H;
com.schriftgestaltung.Glyphs.glyph.rightMetricsKey = H;
};
width = 813;
},
{
anchors = (
{
name = bottom;
position = "{411, 0}";
},
{
name = top;
position = "{473, 700}";
}
);
layerId = "156A42CF-5234-4DDE-A174-0E3EC098A6C5";
paths = (
{
closed = 1;
nodes = (
"817 736 LINE",
"671 736 LINE",
"618 277 LINE",
"648 263 LINE",
"164 765 LINE",
"158 765 LINE",
"64 0 LINE",
"211 0 LINE",
"263 450 LINE",
"223 474 LINE",
"719 -30 LINE",
"723 -30 LINE"
);
}
);
userData = {
com.schriftgestaltung.Glyphs.glyph.leftMetricsKey = H;
com.schriftgestaltung.Glyphs.glyph.rightMetricsKey = H;
};
width = 853;
}
);
unicode = 004E;
},
{
glyphname = O;
lastChange = "2021-06-30 03:44:15 +0000";
layers = (
{
anchors = (
{
name = bottom;
position = "{426, 0}";
},
{
name = center;
position = "{457, 350}";
},
{
name = ogonek;
position = "{519, 3}";
},
{
name = top;
position = "{489, 708}";
},
{
name = topleft;
position = "{72, 700}";
},
{
name = topright;
position = "{718, 595}";
}
);
layerId = master01;
paths = (
{
closed = 1;
nodes = (
"681 -7 OFFCURVE",
"815 206 OFFCURVE",
"815 381 CURVE SMOOTH",
"815 587 OFFCURVE",
"659 717 OFFCURVE",
"474 717 CURVE SMOOTH",
"222 717 OFFCURVE",
"88 504 OFFCURVE",
"88 328 CURVE SMOOTH",
"88 123 OFFCURVE",
"244 -7 OFFCURVE",
"429 -7 CURVE SMOOTH"
);
},
{
closed = 1;
nodes = (
"261 40 OFFCURVE",
"138 173 OFFCURVE",
"138 330 CURVE SMOOTH",
"138 484 OFFCURVE",
"254 670 OFFCURVE",
"472 670 CURVE SMOOTH",
"640 670 OFFCURVE",
"765 536 OFFCURVE",
"765 379 CURVE SMOOTH",
"765 226 OFFCURVE",
"648 40 OFFCURVE",
"430 40 CURVE SMOOTH"
);
}
);
width = 865;
},
{
anchors = (
{
name = bottom;
position = "{414.333, 0}";
},
{
name = center;
position = "{455.333, 350}";
},
{
name = ogonek;
position = "{491.5, 0.5}";
},
{
name = top;
position = "{496.5, 701.333}";
},
{
name = topleft;
position = "{81.167, 700}";
},
{
name = topright;
position = "{718.833, 597.5}";
}
);
layerId = "E3E5F2BC-81DA-462E-93BE-62096568DC8F";
paths = (
{
closed = 1;
nodes = (
"677.667 -7 OFFCURVE",
"813.333 202.667 OFFCURVE",
"813.333 377.667 CURVE SMOOTH",
"813.333 571.167 OFFCURVE",
"665.667 708.667 OFFCURVE",
"475.667 708.667 CURVE SMOOTH",
"229.5 708.667 OFFCURVE",
"93.833 499 OFFCURVE",
"93.833 323.833 CURVE SMOOTH",
"93.833 130.5 OFFCURVE",
"241.5 -7 OFFCURVE",
"431.5 -7 CURVE SMOOTH"
);
},
{
closed = 1;
nodes = (
"249.333 11.667 OFFCURVE",
"113.833 154.667 OFFCURVE",
"113.833 324.167 CURVE SMOOTH",
"113.833 490.667 OFFCURVE",
"245.667 690 OFFCURVE",
"474.5 690 CURVE SMOOTH",
"656.667 690 OFFCURVE",
"793.333 546.833 OFFCURVE",
"793.333 377.333 CURVE SMOOTH",
"793.333 211 OFFCURVE",
"660.5 11.667 OFFCURVE",
"431.667 11.667 CURVE SMOOTH"
);
}
);
width = 869;
},
{
anchors = (
{
name = bottom;
position = "{463, 0}";
},
{
name = center;
position = "{463, 350}";
},
{
name = ogonek;
position = "{610, 10}";
},
{
name = top;
position = "{463, 730}";
},
{
name = topleft;
position = "{40, 700}";
},
{
name = topright;
position = "{715, 586}";
}
);
background = {
paths = (
{
closed = 1;
nodes = (
"69 374 OFFCURVE",
"68 358 OFFCURVE",
"68 343 CURVE SMOOTH",
"68 157 OFFCURVE",
"208 6 OFFCURVE",
"399 -6 CURVE",
"406 -6 OFFCURVE",
"414 -7 OFFCURVE",
"421 -7 CURVE SMOOTH",
"618 -7 OFFCURVE",
"797 145 OFFCURVE",
"821 344 CURVE",
"823 359 OFFCURVE",
"824 373 OFFCURVE",
"824 388 CURVE SMOOTH",
"824 572 OFFCURVE",
"681 730 OFFCURVE",
"491 742 CURVE",
"483 742 OFFCURVE",
"476 743 OFFCURVE",
"468 743 CURVE SMOOTH",
"270 743 OFFCURVE",
"94 584 OFFCURVE",
"71 390 CURVE"
);
},
{
closed = 1;
nodes = (
"237 513 OFFCURVE",
"347 610 OFFCURVE",
"475 603 CURVE",
"591 596 OFFCURVE",
"673 503 OFFCURVE",
"673 386 CURVE SMOOTH",
"673 375 OFFCURVE",
"672 364 OFFCURVE",
"671 353 CURVE",
"655 223 OFFCURVE",
"547 125 OFFCURVE",
"421 133 CURVE",
"301 140 OFFCURVE",
"218 235 OFFCURVE",
"218 351 CURVE SMOOTH",
"218 361 OFFCURVE",
"219 371 OFFCURVE",
"220 381 CURVE"
);
}
);
};
layerId = "156A42CF-5234-4DDE-A174-0E3EC098A6C5";
paths = (
{
closed = 1;
nodes = (
"691 -7 OFFCURVE",
"821 216 OFFCURVE",
"821 393 CURVE SMOOTH",
"821 639 OFFCURVE",
"636 743 OFFCURVE",
"468 743 CURVE SMOOTH",
"198 743 OFFCURVE",
"68 520 OFFCURVE",
"68 343 CURVE SMOOTH",
"68 97 OFFCURVE",
"253 -7 OFFCURVE",
"421 -7 CURVE SMOOTH"
);
},
{
closed = 1;
nodes = (
"301 133 OFFCURVE",
"218 235 OFFCURVE",
"218 351 CURVE SMOOTH",
"218 460 OFFCURVE",
"280 603 OFFCURVE",
"462 603 CURVE SMOOTH",
"584 603 OFFCURVE",
"671 501 OFFCURVE",
"671 385 CURVE SMOOTH",
"671 276 OFFCURVE",
"605 133 OFFCURVE",
"423 133 CURVE SMOOTH"
);
}
);
width = 852;
}
);
leftKerningGroup = O;
rightKerningGroup = O;
unicode = 004F;
},
{
glyphname = Oogonek;
lastChange = "2021-06-30 03:44:15 +0000";
layers = (
{
anchors = (
{
name = bottom;
position = "{426, 0}";
},
{
name = center;
position = "{457, 350}";
},
{
name = ogonek;
position = "{519, 3}";
},
{
name = top;
position = "{489, 708}";
},
{
name = topleft;
position = "{72, 700}";
},
{
name = topright;
position = "{718, 595}";
}
);
layerId = master01;
paths = (
{
closed = 1;
nodes = (
"483 12 LINE",
"424 -15 OFFCURVE",
"384 -67 OFFCURVE",
"384 -115 CURVE",
"384 -167 OFFCURVE",
"423 -201 OFFCURVE",
"469 -202 CURVE",
"506 -203 OFFCURVE",
"542 -178 OFFCURVE",
"561 -146 CURVE",
"542 -122 LINE",
"525 -148 OFFCURVE",
"503 -167 OFFCURVE",
"476 -167 CURVE",
"450 -166 OFFCURVE",
"425 -145 OFFCURVE",
"426 -108 CURVE",
"427 -66 OFFCURVE",
"460 -28 OFFCURVE",
"518 5 CURVE",
"711 46 OFFCURVE",
"815 229 OFFCURVE",
"815 381 CURVE SMOOTH",
"815 587 OFFCURVE",
"659 717 OFFCURVE",
"474 717 CURVE SMOOTH",
"222 717 OFFCURVE",
"88 504 OFFCURVE",
"88 328 CURVE SMOOTH",
"88 123 OFFCURVE",
"244 -7 OFFCURVE",
"429 -7 CURVE SMOOTH",
"464 -7 OFFCURVE",
"492 -2 OFFCURVE",
"520 7 CURVE"
);
},
{
closed = 1;
nodes = (
"261 40 OFFCURVE",
"138 173 OFFCURVE",
"138 330 CURVE SMOOTH",
"138 484 OFFCURVE",
"254 670 OFFCURVE",
"472 670 CURVE SMOOTH",
"640 670 OFFCURVE",
"765 536 OFFCURVE",
"765 379 CURVE SMOOTH",
"765 226 OFFCURVE",
"648 40 OFFCURVE",
"430 40 CURVE SMOOTH"
);
}
);
userData = {
com.schriftgestaltung.Glyphs.glyph.leftMetricsKey = O;
com.schriftgestaltung.Glyphs.glyph.rightMetricsKey = O;
};
width = 865;
},
{
anchors = (
{
name = bottom;
position = "{414.333, 0}";
},
{
name = center;
position = "{455.333, 350}";
},
{
name = ogonek;
position = "{491.5, 0.5}";
},
{
name = top;
position = "{496.5, 701.333}";
},
{
name = topleft;
position = "{81.167, 700}";
},
{
name = topright;
position = "{718.833, 597.5}";
}
);
layerId = "E3E5F2BC-81DA-462E-93BE-62096568DC8F";
paths = (
{
closed = 1;
nodes = (
"483.833 10.333 LINE",
"430.667 -17.5 OFFCURVE",
"384.833 -66.167 OFFCURVE",
"384.833 -118.333 CURVE",
"384.833 -164.5 OFFCURVE",
"418.833 -195.167 OFFCURVE",
"456.5 -195.333 CURVE",
"490.167 -195.5 OFFCURVE",
"518.667 -170.5 OFFCURVE",
"532.667 -141.833 CURVE",
"520.333 -132.833 LINE",
"505.833 -158 OFFCURVE",
"484.667 -177.833 OFFCURVE",
"458.5 -177.833 CURVE",
"430.833 -177.667 OFFCURVE",
"404.167 -154.167 OFFCURVE",
"404.333 -117.167 CURVE",
"404.5 -76 OFFCURVE",
"437.5 -37.167 OFFCURVE",
"496.333 -1.667 CURVE",
"701.833 31 OFFCURVE",
"813.333 219 OFFCURVE",
"813.333 377.667 CURVE SMOOTH",
"813.333 571.167 OFFCURVE",
"665.667 708.667 OFFCURVE",
"475.667 708.667 CURVE SMOOTH",
"229.5 708.667 OFFCURVE",
"93.833 499 OFFCURVE",
"93.833 323.833 CURVE SMOOTH",
"93.833 130.5 OFFCURVE",
"241.5 -7 OFFCURVE",
"431.5 -7 CURVE SMOOTH",
"454.833 -7 OFFCURVE",
"475.333 -5.333 OFFCURVE",
"495.833 -1.333 CURVE"
);
},
{
closed = 1;
nodes = (
"249.333 11.667 OFFCURVE",
"113.833 154.667 OFFCURVE",
"113.833 324.167 CURVE SMOOTH",
"113.833 490.667 OFFCURVE",
"245.667 690 OFFCURVE",
"474.5 690 CURVE SMOOTH",
"656.667 690 OFFCURVE",
"793.333 546.833 OFFCURVE",
"793.333 377.333 CURVE SMOOTH",
"793.333 211 OFFCURVE",
"660.5 11.667 OFFCURVE",
"431.667 11.667 CURVE SMOOTH"
);
}
);
userData = {
com.schriftgestaltung.Glyphs.glyph.leftMetricsKey = O;
com.schriftgestaltung.Glyphs.glyph.rightMetricsKey = O;
};
width = 869;
},
{
anchors = (
{
name = bottom;
position = "{463, 0}";
},
{
name = center;
position = "{463, 350}";
},
{
name = ogonek;
position = "{610, 10}";
},
{
name = top;
position = "{463, 730}";
},
{
name = topleft;
position = "{40, 700}";
},
{
name = topright;
position = "{715, 586}";
}
);
layerId = "156A42CF-5234-4DDE-A174-0E3EC098A6C5";
paths = (
{
closed = 1;
nodes = (
"480 19 LINE",
"401 -6 OFFCURVE",
"381 -69 OFFCURVE",
"381 -105 CURVE SMOOTH",
"381 -174 OFFCURVE",
"436 -221 OFFCURVE",
"511 -226 CURVE",
"557 -229 OFFCURVE",
"619 -202 OFFCURVE",
"655 -159 CURVE",
"614 -85 LINE",
"588 -116 OFFCURVE",
"563 -131 OFFCURVE",
"536 -129 CURVE",
"513 -128 OFFCURVE",
"493 -114 OFFCURVE",
"497 -78 CURVE SMOOTH",
"502 -31 OFFCURVE",
"536 2 OFFCURVE",
"591 27 CURVE SMOOTH",
"740 95 OFFCURVE",
"821 264 OFFCURVE",
"821 393 CURVE SMOOTH",
"821 639 OFFCURVE",
"636 743 OFFCURVE",
"468 743 CURVE SMOOTH",
"198 743 OFFCURVE",
"68 520 OFFCURVE",
"68 343 CURVE SMOOTH",
"68 97 OFFCURVE",
"253 -7 OFFCURVE",
"421 -7 CURVE SMOOTH",
"494 -7 OFFCURVE",
"549 9 OFFCURVE",
"602 36 CURVE"
);
},
{
closed = 1;
nodes = (
"301 133 OFFCURVE",
"218 235 OFFCURVE",
"218 351 CURVE SMOOTH",
"218 460 OFFCURVE",
"280 603 OFFCURVE",
"462 603 CURVE SMOOTH",
"584 603 OFFCURVE",
"671 501 OFFCURVE",
"671 385 CURVE SMOOTH",
"671 276 OFFCURVE",
"605 133 OFFCURVE",
"423 133 CURVE SMOOTH"
);
}
);
userData = {
com.schriftgestaltung.Glyphs.glyph.leftMetricsKey = O;
com.schriftgestaltung.Glyphs.glyph.rightMetricsKey = O;
};
width = 852;
}
);
leftKerningGroup = O;
rightKerningGroup = O;
unicode = 01EA;
},
{
glyphname = P;
lastChange = "2021-06-30 03:44:15 +0000";
layers = (
{
layerId = master01;
paths = (
{
closed = 1;
nodes = (
"176 710 LINE",
"89 0 LINE",
"139 0 LINE",
"175 298 LINE",
"283 298 LINE SMOOTH",
"461 298 OFFCURVE",
"537 421 OFFCURVE",
"537 532 CURVE SMOOTH",
"537 656 OFFCURVE",
"435 710 OFFCURVE",
"338 710 CURVE SMOOTH"
);
},
{
closed = 1;
nodes = (
"181 345 LINE",
"220 662 LINE",
"330 662 LINE SMOOTH",
"428 662 OFFCURVE",
"486 602 OFFCURVE",
"486 526 CURVE SMOOTH",
"486 462 OFFCURVE",
"441 345 OFFCURVE",
"290 345 CURVE SMOOTH"
);
}
);
userData = {
com.schriftgestaltung.Glyphs.glyph.leftMetricsKey = H;
};
width = 550;
},
{
layerId = "E3E5F2BC-81DA-462E-93BE-62096568DC8F";
paths = (
{
closed = 1;
nodes = (
"181.833 701.667 LINE",
"95.667 0 LINE",
"115.667 0 LINE",
"154.167 317.167 LINE",
"265.5 317.167 LINE SMOOTH",
"431.833 317.167 OFFCURVE",
"507.833 429.333 OFFCURVE",
"507.833 536.167 CURVE SMOOTH",
"507.833 657.667 OFFCURVE",
"401.667 701.667 OFFCURVE",
"325.5 701.667 CURVE SMOOTH"
);
},
{
closed = 1;
nodes = (
"156.833 336.667 LINE",
"199.167 682 LINE",
"314.167 682 LINE SMOOTH",
"416.333 682 OFFCURVE",
"487.667 622.833 OFFCURVE",
"487.667 534.333 CURVE SMOOTH",
"487.667 463.667 OFFCURVE",
"438.5 336.667 OFFCURVE",
"270.833 336.667 CURVE SMOOTH"
);
}
);
userData = {
com.schriftgestaltung.Glyphs.glyph.leftMetricsKey = H;
};
width = 530;
},
{
layerId = "156A42CF-5234-4DDE-A174-0E3EC098A6C5";
paths = (
{
closed = 1;
nodes = (
"155 736 LINE",
"65 0 LINE",
"215 0 LINE",
"244 233 LINE",
"343 233 LINE SMOOTH",
"557 233 OFFCURVE",
"633 392 OFFCURVE",
"633 519 CURVE SMOOTH",
"633 651 OFFCURVE",
"545 736 OFFCURVE",
"378 736 CURVE SMOOTH"
);
},
{
closed = 1;
nodes = (
"261 374 LINE",
"288 596 LINE",
"382 596 LINE SMOOTH",
"468 596 OFFCURVE",
"481 531 OFFCURVE",
"481 498 CURVE SMOOTH",
"481 455 OFFCURVE",
"449 374 OFFCURVE",
"354 374 CURVE SMOOTH"
);
}
);
userData = {
com.schriftgestaltung.Glyphs.glyph.leftMetricsKey = H;
};
width = 618;
}
);
rightKerningGroup = P;
unicode = 0050;
},
{
glyphname = Q;
lastChange = "2021-06-30 03:44:15 +0000";
layers = (
{
layerId = master01;
paths = (
{
closed = 1;
nodes = (
"521 0 LINE",
"855 0 LINE",
"861 48 LINE",
"608 38 LINE"
);
},
{
closed = 1;
nodes = (
"725 -7 OFFCURVE",
"859 206 OFFCURVE",
"859 381 CURVE SMOOTH",
"859 587 OFFCURVE",
"703 717 OFFCURVE",
"518 717 CURVE SMOOTH",
"266 717 OFFCURVE",
"132 504 OFFCURVE",
"132 328 CURVE SMOOTH",
"132 123 OFFCURVE",
"288 -7 OFFCURVE",
"473 -7 CURVE SMOOTH"
);
},
{
closed = 1;
nodes = (
"306 40 OFFCURVE",
"182 173 OFFCURVE",
"182 330 CURVE SMOOTH",
"182 484 OFFCURVE",
"298 670 OFFCURVE",
"516 670 CURVE SMOOTH",
"684 670 OFFCURVE",
"809 536 OFFCURVE",
"809 379 CURVE SMOOTH",
"809 226 OFFCURVE",
"692 40 OFFCURVE",
"474 40 CURVE SMOOTH"
);
}
);
userData = {
com.schriftgestaltung.Glyphs.glyph.leftMetricsKey = H;
};
width = 939;
},
{
layerId = "E3E5F2BC-81DA-462E-93BE-62096568DC8F";
paths = (
{
closed = 1;
nodes = (
"532.667 0 LINE",
"802.5 0 LINE",
"805.167 19.667 LINE",
"590.5 18 LINE"
);
},
{
closed = 1;
nodes = (
"721.667 -7 OFFCURVE",
"857.333 202.667 OFFCURVE",
"857.333 377.667 CURVE SMOOTH",
"857.333 571.167 OFFCURVE",
"709.667 708.667 OFFCURVE",
"519.667 708.667 CURVE SMOOTH",
"273.5 708.667 OFFCURVE",
"137.833 499 OFFCURVE",
"137.833 323.833 CURVE SMOOTH",
"137.833 130.5 OFFCURVE",
"285.5 -7 OFFCURVE",
"475.5 -7 CURVE SMOOTH"
);
},
{
closed = 1;
nodes = (
"293.5 11.667 OFFCURVE",
"157.833 154.667 OFFCURVE",
"157.833 324.167 CURVE SMOOTH",
"157.833 490.667 OFFCURVE",
"289.667 690 OFFCURVE",
"518.5 690 CURVE SMOOTH",
"700.667 690 OFFCURVE",
"837.333 546.833 OFFCURVE",
"837.333 377.333 CURVE SMOOTH",
"837.333 211 OFFCURVE",
"704.5 11.667 OFFCURVE",
"475.667 11.667 CURVE SMOOTH"
);
}
);
userData = {
com.schriftgestaltung.Glyphs.glyph.leftMetricsKey = H;
};
width = 903;
},
{
layerId = "156A42CF-5234-4DDE-A174-0E3EC098A6C5";
paths = (
{
closed = 1;
nodes = (
"478 0 LINE",
"888 0 LINE",
"905 142 LINE",
"663 105 LINE"
);
},
{
closed = 1;
nodes = (
"732 -7 OFFCURVE",
"862 216 OFFCURVE",
"862 393 CURVE SMOOTH",
"862 639 OFFCURVE",
"677 743 OFFCURVE",
"509 743 CURVE SMOOTH",
"239 743 OFFCURVE",
"109 520 OFFCURVE",
"109 343 CURVE SMOOTH",
"109 97 OFFCURVE",
"294 -7 OFFCURVE",
"462 -7 CURVE SMOOTH"
);
},
{
closed = 1;
nodes = (
"342 133 OFFCURVE",
"259 235 OFFCURVE",
"259 351 CURVE SMOOTH",
"259 460 OFFCURVE",
"321 603 OFFCURVE",
"503 603 CURVE SMOOTH",
"625 603 OFFCURVE",
"712 501 OFFCURVE",
"712 385 CURVE SMOOTH",
"712 276 OFFCURVE",
"646 133 OFFCURVE",
"464 133 CURVE SMOOTH"
);
}
);
userData = {
com.schriftgestaltung.Glyphs.glyph.leftMetricsKey = H;
};
width = 945;
}
);
leftKerningGroup = O;
unicode = 0051;
},
{
glyphname = R;
lastChange = "2021-06-30 03:44:15 +0000";
layers = (
{
anchors = (
{
name = bottom;
position = "{298, 0}";
},
{
name = top;
position = "{349, 708}";
}
);
layerId = master01;
paths = (
{
closed = 1;
nodes = (
"176 710 LINE",
"89 0 LINE",
"137 0 LINE",
"174 298 LINE",
"283 298 LINE SMOOTH",
"451 298 OFFCURVE",
"523 403 OFFCURVE",
"536 509 CURVE SMOOTH",
"553 650 OFFCURVE",
"443 710 OFFCURVE",
"338 710 CURVE SMOOTH"
);
},
{
closed = 1;
nodes = (
"180 345 LINE",
"218 663 LINE",
"338 663 LINE SMOOTH",
"440 663 OFFCURVE",
"496 591 OFFCURVE",
"486 507 CURVE SMOOTH",
"477 434 OFFCURVE",
"429 345 OFFCURVE",
"287 345 CURVE SMOOTH"
);
},
{
closed = 1;
nodes = (
"328 322 LINE",
"486 0 LINE",
"543 0 LINE",
"385 323 LINE"
);
}
);
userData = {
com.schriftgestaltung.Glyphs.glyph.leftMetricsKey = H;
};
width = 633;
},
{
anchors = (
{
name = bottom;
position = "{286.333, 0}";
},
{
name = top;
position = "{341.5, 701.333}";
}
);
layerId = "E3E5F2BC-81DA-462E-93BE-62096568DC8F";
paths = (
{
closed = 1;
nodes = (
"181.833 701.667 LINE",
"95.667 0 LINE",
"115.333 0 LINE",
"154 317.167 LINE",
"265.5 317.167 LINE SMOOTH",
"424.333 317.167 OFFCURVE",
"493.833 413.833 OFFCURVE",
"506 514.833 CURVE SMOOTH",
"523 653.333 OFFCURVE",
"407.167 701.667 OFFCURVE",
"325.5 701.667 CURVE SMOOTH"
);
},
{
closed = 1;
nodes = (
"156.667 335.833 LINE",
"198.833 683 LINE",
"323.833 683 LINE SMOOTH",
"425 683 OFFCURVE",
"498.5 614.333 OFFCURVE",
"486 513.667 CURVE SMOOTH",
"476.167 431.5 OFFCURVE",
"423.167 335.833 OFFCURVE",
"265.333 335.833 CURVE SMOOTH"
);
},
{
closed = 1;
nodes = (
"333 334.5 LINE",
"493.5 0 LINE",
"516.333 0 LINE",
"355.833 334.667 LINE"
);
}
);
userData = {
com.schriftgestaltung.Glyphs.glyph.leftMetricsKey = H;
};
width = 617;
},
{
anchors = (
{
name = bottom;
position = "{335, 0}";
},
{
name = top;
position = "{375, 730}";
}
);
layerId = "156A42CF-5234-4DDE-A174-0E3EC098A6C5";
paths = (
{
closed = 1;
nodes = (
"155 736 LINE",
"65 0 LINE",
"210 0 LINE",
"239 234 LINE",
"343 234 LINE",
"539 234 OFFCURVE",
"621 367 OFFCURVE",
"636 488 CURVE",
"654 639 OFFCURVE",
"563 736 OFFCURVE",
"378 736 CURVE"
);
},
{
closed = 1;
nodes = (
"256 374 LINE",
"283 596 LINE",
"387 596 LINE",
"489 596 OFFCURVE",
"489 514 OFFCURVE",
"485 483 CURVE",
"480 441 OFFCURVE",
"447 374 OFFCURVE",
"359 374 CURVE"
);
},
{
closed = 1;
nodes = (
"310 280 LINE",
"462 0 LINE",
"631 0 LINE",
"484 284 LINE"
);
}
);
userData = {
com.schriftgestaltung.Glyphs.glyph.leftMetricsKey = H;
};
width = 687;
}
);
rightKerningGroup = R;
unicode = 0052;
},
{
glyphname = S;
lastChange = "2021-06-30 03:44:15 +0000";
layers = (
{
anchors = (
{
name = bottom;
position = "{255, 0}";
},
{
name = top;
position = "{329, 700}";
}
);
layerId = master01;
paths = (
{
closed = 1;
nodes = (
"525 653 LINE",
"473 684 OFFCURVE",
"401 709 OFFCURVE",
"329 711 CURVE SMOOTH",
"217 711 OFFCURVE",
"125 646 OFFCURVE",
"121 540 CURVE SMOOTH",
"116 442 OFFCURVE",
"206 398 OFFCURVE",
"290 360 CURVE SMOOTH",
"368 326 OFFCURVE",
"444 285 OFFCURVE",
"442 199 CURVE SMOOTH",
"440 120 OFFCURVE",
"378 36 OFFCURVE",
"260 37 CURVE SMOOTH",
"178 38 OFFCURVE",
"99 77 OFFCURVE",
"58 118 CURVE",
"31 80 LINE",
"76 39 OFFCURVE",
"153 -5 OFFCURVE",
"258 -7 CURVE SMOOTH",
"423 -9 OFFCURVE",
"489 110 OFFCURVE",
"493 199 CURVE SMOOTH",
"497 315 OFFCURVE",
"408 360 OFFCURVE",
"323 398 CURVE SMOOTH",
"244 435 OFFCURVE",
"169 472 OFFCURVE",
"171 543 CURVE SMOOTH",
"173 586 OFFCURVE",
"207 668 OFFCURVE",
"330 668 CURVE SMOOTH",
"393 667 OFFCURVE",
"460 640 OFFCURVE",
"501 617 CURVE"
);
}
);
width = 543;
},
{
anchors = (
{
name = bottom;
position = "{251.667, 0}";
},
{
name = top;
position = "{335.667, 700}";
}
);
layerId = "E3E5F2BC-81DA-462E-93BE-62096568DC8F";
paths = (
{
closed = 1;
nodes = (
"510.833 653.833 LINE",
"459.667 681.5 OFFCURVE",
"385.167 702.333 OFFCURVE",
"326.5 702.667 CURVE SMOOTH",
"222 702.667 OFFCURVE",
"133.333 641 OFFCURVE",
"132.667 541.667 CURVE SMOOTH",
"131.833 455.333 OFFCURVE",
"215.167 414.667 OFFCURVE",
"298.333 377.5 CURVE SMOOTH",
"383 340.167 OFFCURVE",
"468.167 298.333 OFFCURVE",
"467.833 199.833 CURVE SMOOTH",
"467.5 115.833 OFFCURVE",
"405.5 11 OFFCURVE",
"268.333 11.167 CURVE SMOOTH",
"177.167 11.333 OFFCURVE",
"94.833 53.667 OFFCURVE",
"55.5 93.833 CURVE",
"43.5 77.5 LINE",
"81 41.5 OFFCURVE",
"154.667 -6.667 OFFCURVE",
"266.333 -7 CURVE SMOOTH",
"431.333 -7.333 OFFCURVE",
"487.333 120 OFFCURVE",
"488 201.5 CURVE SMOOTH",
"488.667 310.833 OFFCURVE",
"398 353.333 OFFCURVE",
"312.167 392.167 CURVE SMOOTH",
"229 430.833 OFFCURVE",
"152.333 467.833 OFFCURVE",
"152.667 544.667 CURVE SMOOTH",
"153 585.167 OFFCURVE",
"185.333 685.5 OFFCURVE",
"325.833 685.5 CURVE SMOOTH",
"392.167 685.333 OFFCURVE",
"462.5 658.333 OFFCURVE",
"500.167 638.667 CURVE"
);
}
);
width = 546;
},
{
anchors = (
{
name = bottom;
position = "{295, 0}";
},
{
name = top;
position = "{335, 700}";
}
);
layerId = "156A42CF-5234-4DDE-A174-0E3EC098A6C5";
paths = (
{
closed = 1;
nodes = (
"600 652 LINE",
"545 694 OFFCURVE",
"483 730 OFFCURVE",
"365 737 CURVE",
"227 739 OFFCURVE",
"125 664 OFFCURVE",
"110 536 CURVE",
"92 396 OFFCURVE",
"205 343 OFFCURVE",
"290 303 CURVE SMOOTH",
"345 277 OFFCURVE",
"390 242 OFFCURVE",
"385 198 CURVE",
"377 134 OFFCURVE",
"313 119 OFFCURVE",
"261 122 CURVE",
"209 126 OFFCURVE",
"140 156 OFFCURVE",
"94 197 CURVE",
"16 88 LINE",
"87 29 OFFCURVE",
"174 -1 OFFCURVE",
"258 -6 CURVE",
"422 -16 OFFCURVE",
"522 77 OFFCURVE",
"536 189 CURVE",
"553 328 OFFCURVE",
"470 381 OFFCURVE",
"388 418 CURVE SMOOTH",
"320 448 OFFCURVE",
"254 486 OFFCURVE",
"261 538 CURVE",
"267 589 OFFCURVE",
"308 611 OFFCURVE",
"371 608 CURVE",
"422 605 OFFCURVE",
"479 579 OFFCURVE",
"531 545 CURVE"
);
}
);
width = 587;
}
);
rightKerningGroup = S;
unicode = 0053;
},
{
glyphname = T;
lastChange = "2021-06-30 03:44:15 +0000";
layers = (
{
anchors = (
{
name = bottom;
position = "{263, 0}";
},
{
name = center;
position = "{303, 350}";
},
{
name = top;
position = "{350, 700}";
}
);
layerId = master01;
paths = (
{
closed = 1;
nodes = (
"112 662 LINE",
"319 662 LINE",
"238 0 LINE",
"288 0 LINE",
"369 662 LINE",
"577 662 LINE",
"583 710 LINE",
"118 710 LINE"
);
}
);
width = 577;
},
{
anchors = (
{
name = bottom;
position = "{263.833, 0}";
},
{
name = center;
position = "{306.333, 350}";
},
{
name = top;
position = "{350, 700}";
}
);
layerId = "E3E5F2BC-81DA-462E-93BE-62096568DC8F";
paths = (
{
closed = 1;
nodes = (
"119.5 682.833 LINE",
"337.333 682.833 LINE",
"253.833 0 LINE",
"273.833 0 LINE",
"357.333 682.833 LINE",
"575.333 682.833 LINE",
"578 701.667 LINE",
"122.167 701.667 LINE"
);
}
);
width = 575;
},
{
anchors = (
{
name = bottom;
position = "{259, 0}";
},
{
name = center;
position = "{305, 350}";
},
{
name = top;
position = "{349, 700}";
}
);
layerId = "156A42CF-5234-4DDE-A174-0E3EC098A6C5";
paths = (
{
closed = 1;
nodes = (
"87 593 LINE",
"257 593 LINE",
"184 0 LINE",
"334 0 LINE",
"407 593 LINE",
"583 593 LINE",
"601 736 LINE",
"105 736 LINE"
);
}
);
width = 586;
}
);
leftKerningGroup = T;
rightKerningGroup = T;
unicode = 0054;
},
{
glyphname = U;
lastChange = "2021-06-30 03:44:16 +0000";
layers = (
{
anchors = (
{
name = bottom;
position = "{333, 0}";
},
{
name = ogonek;
position = "{445, 10}";
},
{
name = top;
position = "{421, 708}";
},
{
name = topright;
position = "{647, 604}";
}
);
layerId = master01;
paths = (
{
closed = 1;
nodes = (
"226 710 LINE",
"176 710 LINE",
"118 237 LINE SMOOTH",
"99 82 OFFCURVE",
"194 -8 OFFCURVE",
"332 -8 CURVE SMOOTH",
"332 -8 LINE SMOOTH",
"484 -8 OFFCURVE",
"587 82 OFFCURVE",
"607 237 CURVE SMOOTH",
"664 710 LINE",
"614 710 LINE",
"557 240 LINE SMOOTH",
"542 116 OFFCURVE",
"459 39 OFFCURVE",
"338 39 CURVE SMOOTH",
"225 39 OFFCURVE",
"153 116 OFFCURVE",
"169 240 CURVE SMOOTH"
);
}
);
userData = {
com.schriftgestaltung.Glyphs.glyph.leftMetricsKey = H;
com.schriftgestaltung.Glyphs.glyph.rightMetricsKey = H;
};
width = 717;
},
{
anchors = (
{
name = bottom;
position = "{323.833, 0}";
},
{
name = ogonek;
position = "{420, 10}";
},
{
name = top;
position = "{410.167, 701.333}";
},
{
name = topright;
position = "{621.167, 595.667}";
}
);
layerId = "E3E5F2BC-81DA-462E-93BE-62096568DC8F";
paths = (
{
closed = 1;
nodes = (
"201.833 701.667 LINE",
"181.833 701.667 LINE",
"123.833 227.833 LINE SMOOTH",
"104.833 74.5 OFFCURVE",
"193.167 -8 OFFCURVE",
"323.667 -8 CURVE SMOOTH",
"323.667 -8 LINE SMOOTH",
"471.5 -8 OFFCURVE",
"561.167 74.5 OFFCURVE",
"580.333 227.833 CURVE SMOOTH",
"638.167 701.667 LINE",
"618.167 701.667 LINE",
"561.167 230 LINE SMOOTH",
"543.667 90.167 OFFCURVE",
"458.167 10.667 OFFCURVE",
"325.5 10.667 CURVE SMOOTH",
"204.167 10.667 OFFCURVE",
"127.167 90.167 OFFCURVE",
"144.833 230 CURVE SMOOTH"
);
}
);
userData = {
com.schriftgestaltung.Glyphs.glyph.leftMetricsKey = H;
com.schriftgestaltung.Glyphs.glyph.rightMetricsKey = H;
};
width = 695;
},
{
anchors = (
{
name = bottom;
position = "{363, 0}";
},
{
name = ogonek;
position = "{528, 10}";
},
{
name = top;
position = "{456, 730}";
},
{
name = topright;
position = "{733, 630}";
}
);
layerId = "156A42CF-5234-4DDE-A174-0E3EC098A6C5";
paths = (
{
closed = 1;
nodes = (
"305 736 LINE",
"155 736 LINE",
"98 269 LINE SMOOTH",
"78 107 OFFCURVE",
"196 -8 OFFCURVE",
"361 -8 CURVE SMOOTH",
"361 -8 LINE SMOOTH",
"527 -8 OFFCURVE",
"674 107 OFFCURVE",
"694 269 CURVE SMOOTH",
"751 736 LINE",
"601 736 LINE",
"544 272 LINE SMOOTH",
"535 202 OFFCURVE",
"460 133 OFFCURVE",
"378 133 CURVE SMOOTH",
"296 133 OFFCURVE",
"239 202 OFFCURVE",
"248 272 CURVE SMOOTH"
);
}
);
userData = {
com.schriftgestaltung.Glyphs.glyph.leftMetricsKey = H;
com.schriftgestaltung.Glyphs.glyph.rightMetricsKey = H;
};
width = 787;
}
);
leftKerningGroup = U;
rightKerningGroup = U;
unicode = 0055;
},
{
glyphname = Uogonek;
lastChange = "2021-06-30 03:44:16 +0000";
layers = (
{
anchors = (
{
name = bottom;
position = "{333, 0}";
},
{
name = ogonek;
position = "{445, 10}";
},
{
name = top;
position = "{421, 708}";
},
{
name = topright;
position = "{733, 681}";
}
);
layerId = master01;
paths = (
{
closed = 1;
nodes = (
"380 -8 OFFCURVE",
"402 -2 OFFCURVE",
"435 10 CURVE",
"412 24 LINE",
"353 -5 OFFCURVE",
"310 -52 OFFCURVE",
"310 -106 CURVE",
"310 -157 OFFCURVE",
"345 -195 OFFCURVE",
"395 -195 CURVE",
"432 -195 OFFCURVE",
"468 -170 OFFCURVE",
"487 -138 CURVE",
"468 -114 LINE",
"451 -141 OFFCURVE",
"429 -160 OFFCURVE",
"403 -159 CURVE",
"376 -159 OFFCURVE",
"352 -135 OFFCURVE",
"352 -102 CURVE",
"352 -61 OFFCURVE",
"384 -12 OFFCURVE",
"442 10 CURVE SMOOTH",
"527 44 OFFCURVE",
"592 122 OFFCURVE",
"607 237 CURVE SMOOTH",
"664 710 LINE",
"614 710 LINE",
"557 240 LINE SMOOTH",
"542 116 OFFCURVE",
"459 39 OFFCURVE",
"338 39 CURVE SMOOTH",
"225 39 OFFCURVE",
"153 116 OFFCURVE",
"169 240 CURVE SMOOTH",
"226 710 LINE",
"176 710 LINE",
"118 237 LINE SMOOTH",
"99 83 OFFCURVE",
"192 -8 OFFCURVE",
"332 -8 CURVE SMOOTH"
);
}
);
width = 716;
},
{
anchors = (
{
name = bottom;
position = "{323.833, 0}";
},
{
name = ogonek;
position = "{420, 10}";
},
{
name = top;
position = "{410.167, 701.333}";
},
{
name = topright;
position = "{733, 696.833}";
}
);
layerId = "E3E5F2BC-81DA-462E-93BE-62096568DC8F";
paths = (
{
closed = 1;
nodes = (
"371.667 -8 OFFCURVE",
"392 -2.833 OFFCURVE",
"422.5 7.5 CURVE",
"412.833 19.833 LINE",
"359.667 -8.333 OFFCURVE",
"313.333 -55.333 OFFCURVE",
"313.333 -108.5 CURVE",
"313.333 -154.5 OFFCURVE",
"346.667 -185.833 OFFCURVE",
"385 -185.833 CURVE",
"418.667 -185.833 OFFCURVE",
"447.167 -160.833 OFFCURVE",
"461.167 -132.167 CURVE",
"448.833 -123.167 LINE",
"434.333 -148.5 OFFCURVE",
"413.167 -168.333 OFFCURVE",
"387.167 -168.167 CURVE",
"359.333 -168.167 OFFCURVE",
"332.833 -144.167 OFFCURVE",
"332.833 -107.833 CURVE",
"332.833 -66.833 OFFCURVE",
"369.833 -12.833 OFFCURVE",
"428.667 9.167 CURVE SMOOTH",
"509.5 39 OFFCURVE",
"566.167 112.833 OFFCURVE",
"580.333 227.833 CURVE SMOOTH",
"638.167 701.667 LINE",
"618.167 701.667 LINE",
"561.167 230 LINE SMOOTH",
"543.667 90.167 OFFCURVE",
"458.167 10.667 OFFCURVE",
"325.5 10.667 CURVE SMOOTH",
"204.167 10.667 OFFCURVE",
"127.167 90.167 OFFCURVE",
"144.833 230 CURVE SMOOTH",
"201.833 701.667 LINE",
"181.833 701.667 LINE",
"123.833 227.833 LINE SMOOTH",
"104.833 74.667 OFFCURVE",
"192.833 -8 OFFCURVE",
"323.667 -8 CURVE SMOOTH"
);
}
);
width = 694;
},
{
anchors = (
{
name = bottom;
position = "{363, 0}";
},
{
name = ogonek;
position = "{528, 10}";
},
{
name = top;
position = "{456, 730}";
},
{
name = topright;
position = "{733, 630}";
}
);
layerId = "156A42CF-5234-4DDE-A174-0E3EC098A6C5";
paths = (
{
closed = 1;
nodes = (
"406 -8 OFFCURVE",
"435 1 OFFCURVE",
"475 17 CURVE",
"408 37 LINE",
"329 6 OFFCURVE",
"299 -40 OFFCURVE",
"299 -97 CURVE SMOOTH",
"299 -165 OFFCURVE",
"338 -226 OFFCURVE",
"429 -226 CURVE SMOOTH",
"475 -226 OFFCURVE",
"537 -202 OFFCURVE",
"573 -159 CURVE",
"532 -85 LINE",
"506 -116 OFFCURVE",
"481 -131 OFFCURVE",
"454 -129 CURVE",
"431 -128 OFFCURVE",
"415 -105 OFFCURVE",
"415 -81 CURVE SMOOTH",
"415 -40 OFFCURVE",
"433 -10 OFFCURVE",
"485 14 CURVE SMOOTH",
"587 61 OFFCURVE",
"679 151 OFFCURVE",
"694 269 CURVE SMOOTH",
"751 736 LINE",
"601 736 LINE",
"544 272 LINE SMOOTH",
"535 202 OFFCURVE",
"460 133 OFFCURVE",
"378 133 CURVE SMOOTH",
"296 133 OFFCURVE",
"239 202 OFFCURVE",
"248 272 CURVE SMOOTH",
"305 736 LINE",
"155 736 LINE",
"98 269 LINE SMOOTH",
"78 109 OFFCURVE",
"188 -8 OFFCURVE",
"361 -8 CURVE SMOOTH"
);
}
);
width = 787;
}
);
leftKerningGroup = U;
rightKerningGroup = U;
unicode = 0172;
},
{
glyphname = V;
lastChange = "2021-06-30 03:44:16 +0000";
layers = (
{
anchors = (
{
name = bottom;
position = "{323, 0}";
},
{
name = top;
position = "{386, 700}";
}
);
layerId = master01;
paths = (
{
closed = 1;
nodes = (
"321 -29 LINE",
"712 710 LINE",
"656 710 LINE",
"319 58 LINE",
"346 54 LINE",
"165 710 LINE",
"108 710 LINE",
"319 -29 LINE"
);
}
);
width = 694;
},
{
anchors = (
{
name = bottom;
position = "{322.167, 0}";
},
{
name = top;
position = "{404.333, 700}";
}
);
layerId = "E3E5F2BC-81DA-462E-93BE-62096568DC8F";
paths = (
{
closed = 1;
nodes = (
"319.333 -29.833 LINE",
"700.333 701.667 LINE",
"678.5 701.667 LINE",
"317.333 2.167 LINE",
"328.5 1.5 LINE",
"138.333 701.667 LINE",
"116.333 701.667 LINE",
"318.167 -29.833 LINE"
);
}
);
width = 691;
},
{
anchors = (
{
name = bottom;
position = "{346, 0}";
},
{
name = top;
position = "{346, 700}";
}
);
layerId = "156A42CF-5234-4DDE-A174-0E3EC098A6C5";
paths = (
{
closed = 1;
nodes = (
"345 -28 LINE",
"772 736 LINE",
"600 736 LINE",
"342 223 LINE",
"424 206 LINE",
"274 736 LINE",
"100 736 LINE",
"340 -28 LINE"
);
}
);
width = 744;
}
);
leftKerningGroup = V;
rightKerningGroup = V;
unicode = 0056;
},
{
glyphname = W;
lastChange = "2021-06-30 03:44:16 +0000";
layers = (
{
anchors = (
{
name = bottom;
position = "{491, 0}";
},
{
name = top;
position = "{579, 710}";
}
);
layerId = master01;
paths = (
{
closed = 1;
nodes = (
"298 -33 LINE",
"523 406 LINE",
"507 469 LINE",
"310 72 LINE",
"320 69 LINE",
"164 708 LINE",
"108 708 LINE"
);
},
{
closed = 1;
nodes = (
"628 -32 LINE",
"1003 708 LINE",
"951 708 LINE",
"636 73 LINE",
"650 69 LINE",
"485 708 LINE",
"436 708 LINE"
);
}
);
width = 985;
},
{
anchors = (
{
name = bottom;
position = "{491, 0}";
},
{
name = top;
position = "{577.333, 701.667}";
}
);
layerId = "E3E5F2BC-81DA-462E-93BE-62096568DC8F";
paths = (
{
closed = 1;
nodes = (
"302.167 -32.167 LINE",
"513.833 401 LINE",
"506.167 424 LINE",
"304.167 10.333 LINE",
"310.833 9 LINE",
"138.167 701.333 LINE",
"116.333 701.333 LINE"
);
},
{
closed = 1;
nodes = (
"617.167 -32 LINE",
"992.167 701.333 LINE",
"971 701.333 LINE",
"617.667 8 LINE",
"628.333 4 LINE",
"451.667 701.333 LINE",
"431 701.333 LINE"
);
}
);
width = 983;
},
{
anchors = (
{
name = bottom;
position = "{509, 0}";
},
{
name = top;
position = "{600, 736}";
}
);
layerId = "156A42CF-5234-4DDE-A174-0E3EC098A6C5";
paths = (
{
closed = 1;
nodes = (
"301 -34 LINE",
"569 421 LINE",
"526 620 LINE",
"347 279 LINE",
"369 269 LINE",
"269 731 LINE",
"99 731 LINE"
);
},
{
closed = 1;
nodes = (
"680 -32 LINE",
"1058 731 LINE",
"902 731 LINE",
"713 288 LINE",
"738 284 LINE",
"612 731 LINE",
"468 731 LINE"
);
}
);
width = 1031;
}
);
leftKerningGroup = W;
rightKerningGroup = W;
unicode = 0057;
},
{
glyphname = X;
lastChange = "2021-06-30 03:44:16 +0000";
layers = (
{
layerId = master01;
paths = (
{
closed = 1;
nodes = (
"486 0 LINE",
"548 0 LINE",
"172 710 LINE",
"112 710 LINE"
);
},
{
closed = 1;
nodes = (
"75 0 LINE",
"322 332 LINE",
"299 375 LINE",
"15 0 LINE"
);
},
{
closed = 1;
nodes = (
"349 352 LINE",
"621 710 LINE",
"561 710 LINE",
"325 391 LINE"
);
}
);
width = 608;
},
{
layerId = "E3E5F2BC-81DA-462E-93BE-62096568DC8F";
paths = (
{
closed = 1;
nodes = (
"491 0 LINE",
"515.5 0 LINE",
"144.5 701.667 LINE",
"121.167 701.667 LINE"
);
},
{
closed = 1;
nodes = (
"50 0 LINE",
"315.333 352 LINE",
"301.5 364.167 LINE",
"25 0 LINE"
);
},
{
closed = 1;
nodes = (
"322.333 355.333 LINE",
"586 701.667 LINE",
"561 701.667 LINE",
"309.167 368.5 LINE"
);
}
);
width = 586;
},
{
layerId = "156A42CF-5234-4DDE-A174-0E3EC098A6C5";
paths = (
{
closed = 1;
nodes = (
"468 0 LINE",
"655 0 LINE",
"265 736 LINE",
"80 736 LINE"
);
},
{
closed = 1;
nodes = (
"160 0 LINE",
"343 266 LINE",
"292 412 LINE",
"-20 0 LINE"
);
},
{
closed = 1;
nodes = (
"437 341 LINE",
"738 736 LINE",
"562 736 LINE",
"377 466 LINE"
);
}
);
width = 681;
}
);
leftKerningGroup = X;
unicode = 0058;
},
{
glyphname = Y;
lastChange = "2021-06-30 03:44:16 +0000";
layers = (
{
anchors = (
{
name = bottom;
position = "{310, 0}";
},
{
name = top;
position = "{397, 710}";
},
{
name = topleft;
position = "{103, 710}";
}
);
layerId = master01;
paths = (
{
closed = 1;
nodes = (
"281 0 LINE",
"331 0 LINE",
"362 253 LINE",
"684 710 LINE",
"623 710 LINE",
"334 293 LINE",
"351 294 LINE",
"162 710 LINE",
"104 710 LINE",
"312 253 LINE"
);
}
);
width = 661;
},
{
anchors = (
{
name = bottom;
position = "{307.5, 0}";
},
{
name = top;
position = "{393.667, 701.667}";
},
{
name = topleft;
position = "{103, 701.667}";
}
);
layerId = "E3E5F2BC-81DA-462E-93BE-62096568DC8F";
paths = (
{
closed = 1;
nodes = (
"286.833 0 LINE",
"308.5 0 LINE",
"340.333 260.5 LINE",
"657.333 701.667 LINE",
"632.167 701.667 LINE",
"326.5 275.5 LINE",
"336 276.5 LINE",
"133.667 701.667 LINE",
"111.5 701.667 LINE",
"318.667 260.5 LINE"
);
}
);
width = 643;
},
{
anchors = (
{
name = bottom;
position = "{317, 0}";
},
{
name = top;
position = "{408, 736}";
},
{
name = topleft;
position = "{103, 736}";
}
);
layerId = "156A42CF-5234-4DDE-A174-0E3EC098A6C5";
paths = (
{
closed = 1;
nodes = (
"260 0 LINE",
"405 0 LINE",
"433 229 LINE",
"771 736 LINE",
"592 736 LINE",
"358 351 LINE",
"401 354 LINE",
"258 736 LINE",
"79 736 LINE",
"288 229 LINE"
);
}
);
width = 722;
}
);
leftKerningGroup = Y;
rightKerningGroup = Y;
unicode = 0059;
},
{
glyphname = Z;
lastChange = "2021-06-30 03:44:16 +0000";
layers = (
{
anchors = (
{
name = bottom;
position = "{298, 0}";
},
{
name = top;
position = "{398, 710}";
}
);
layerId = master01;
paths = (
{
closed = 1;
nodes = (
"600 0 LINE",
"606 47 LINE",
"92 47 LINE",
"97 39 LINE",
"663 710 LINE",
"205 710 LINE",
"183 710 OFFCURVE",
"176 719 OFFCURVE",
"177 733 CURVE SMOOTH",
"179 745 LINE",
"132 745 LINE",
"128 714 LINE SMOOTH",
"123 676 OFFCURVE",
"150 663 OFFCURVE",
"188 663 CURVE SMOOTH",
"588 663 LINE",
"579 676 LINE",
"11 0 LINE"
);
}
);
width = 641;
},
{
anchors = (
{
name = bottom;
position = "{293, 0}";
},
{
name = top;
position = "{381.333, 701.667}";
}
);
layerId = "E3E5F2BC-81DA-462E-93BE-62096568DC8F";
paths = (
{
closed = 1;
nodes = (
"592.5 0 LINE",
"595.167 18.667 LINE",
"45.333 18.667 LINE",
"47.833 14 LINE",
"647.167 701.667 LINE",
"175 701.667 LINE",
"153 701.667 OFFCURVE",
"146 712.333 OFFCURVE",
"147 724.667 CURVE SMOOTH",
"149 736.667 LINE",
"127.833 736.667 LINE",
"126.333 728.167 LINE SMOOTH",
"122.167 690.167 OFFCURVE",
"141.667 683 OFFCURVE",
"178 683 CURVE SMOOTH",
"618.833 683 LINE",
"612.333 688.5 LINE",
"14.333 0 LINE"
);
}
);
width = 631;
},
{
anchors = (
{
name = bottom;
position = "{314, 0}";
},
{
name = top;
position = "{435, 736}";
}
);
layerId = "156A42CF-5234-4DDE-A174-0E3EC098A6C5";
paths = (
{
closed = 1;
nodes = (
"624 0 LINE",
"641 140 LINE",
"246 140 LINE",
"259 124 LINE",
"715 736 LINE",
"306 736 LINE",
"282 736 OFFCURVE",
"276 742 OFFCURVE",
"277 759 CURVE SMOOTH",
"278 773 LINE",
"145 773 LINE",
"132 668 LINE SMOOTH",
"127 627 OFFCURVE",
"178 596 OFFCURVE",
"221 596 CURVE SMOOTH",
"486 596 LINE",
"469 636 LINE",
"-2 0 LINE"
);
}
);
width = 676;
}
);
unicode = 005A;
},
{
glyphname = AE;
lastChange = "2021-06-30 03:44:16 +0000";
layers = (
{
anchors = (
{
name = bottom;
position = "{434, 0}";
},
{
name = top;
position = "{669, 710}";
}
);
layerId = master01;
paths = (
{
closed = 1;
nodes = (
"444 0 LINE",
"836 0 LINE",
"842 47 LINE",
"499 47 LINE",
"534 333 LINE",
"823 333 LINE",
"829 380 LINE",
"539 380 LINE",
"574 662 LINE",
"903 662 LINE",
"909 710 LINE",
"531 710 LINE"
);
},
{
closed = 1;
nodes = (
"531 710 LINE",
"-4 0 LINE",
"51 0 LINE",
"526 635 LINE",
"529 641 OFFCURVE",
"535 654 OFFCURVE",
"539 664 CURVE"
);
},
{
closed = 1;
nodes = (
"179 196 LINE",
"479 196 LINE",
"484 236 LINE",
"195 236 LINE"
);
}
);
userData = {
com.schriftgestaltung.Glyphs.glyph.rightMetricsKey = E;
};
width = 934;
},
{
anchors = (
{
name = bottom;
position = "{437.333, 0}";
},
{
name = top;
position = "{657.333, 701.667}";
}
);
layerId = "E3E5F2BC-81DA-462E-93BE-62096568DC8F";
paths = (
{
closed = 1;
nodes = (
"439.833 0 LINE",
"821 0 LINE",
"823.667 19.5 LINE",
"462.333 19.5 LINE",
"502.333 343.833 LINE",
"810.5 343.833 LINE",
"812.333 363.333 LINE",
"504 363.333 LINE",
"543.167 682 LINE",
"890.5 682 LINE",
"893.167 701.667 LINE",
"526 701.667 LINE"
);
},
{
closed = 1;
nodes = (
"526 701.667 LINE",
"1 0 LINE",
"22.667 0 LINE",
"526 668.333 LINE",
"529.833 676 OFFCURVE",
"534.167 685.667 OFFCURVE",
"538.167 694 CURVE"
);
},
{
closed = 1;
nodes = (
"166.5 206 LINE",
"474 206 LINE",
"475.667 224.333 LINE",
"170 224.333 LINE"
);
}
);
userData = {
com.schriftgestaltung.Glyphs.glyph.rightMetricsKey = E;
};
width = 923;
},
{
anchors = (
{
name = bottom;
position = "{421, 0}";
},
{
name = top;
position = "{708, 736}";
}
);
layerId = "156A42CF-5234-4DDE-A174-0E3EC098A6C5";
paths = (
{
closed = 1;
nodes = (
"459 0 LINE",
"885 0 LINE",
"902 140 LINE",
"621 140 LINE",
"640 297 LINE",
"866 297 LINE",
"883 437 LINE",
"657 437 LINE",
"677 596 LINE",
"944 596 LINE",
"961 736 LINE",
"549 736 LINE"
);
},
{
closed = 1;
nodes = (
"549 736 LINE",
"-22 0 LINE",
"146 0 LINE",
"527 519 LINE",
"527 519 OFFCURVE",
"538 550 OFFCURVE",
"543 565 CURVE"
);
},
{
closed = 1;
nodes = (
"220 161 LINE",
"496 161 LINE",
"510 276 LINE",
"279 276 LINE"
);
}
);
userData = {
com.schriftgestaltung.Glyphs.glyph.rightMetricsKey = E;
};
width = 971;
}
);
unicode = 00C6;
},
{
glyphname = Oslash;
lastChange = "2021-06-30 03:44:16 +0000";
layers = (
{
anchors = (
{
name = bottom;
position = "{397, 0}";
},
{
name = center;
position = "{457, 350}";
},
{
name = ogonek;
position = "{519, 3}";
},
{
name = top;
position = "{484, 710}";
},
{
name = topleft;
position = "{72, 700}";
},
{
name = topright;
position = "{718, 595}";
}
);
components = (
{
name = O;
}
);
layerId = master01;
paths = (
{
closed = 1;
nodes = (
"792 722 LINE",
"110 16 LINE",
"132 -6 LINE",
"814 699 LINE"
);
}
);
width = 842;
},
{
anchors = (
{
name = bottom;
position = "{395.333, 0}";
},
{
name = center;
position = "{455.333, 350}";
},
{
name = ogonek;
position = "{491.5, 0.5}";
},
{
name = top;
position = "{481.5, 701.667}";
},
{
name = topleft;
position = "{81.167, 700}";
},
{
name = topright;
position = "{718.833, 597.5}";
}
);
components = (
{
name = O;
}
);
layerId = "E3E5F2BC-81DA-462E-93BE-62096568DC8F";
paths = (
{
closed = 1;
nodes = (
"792 717 LINE",
"112.5 9.333 LINE",
"122 -1 LINE",
"801.5 706.5 LINE"
);
}
);
userData = {
com.schriftgestaltung.componentsAlignment = (
-1
);
};
width = 837;
},
{
anchors = (
{
name = bottom;
position = "{402, 0}";
},
{
name = center;
position = "{463, 350}";
},
{
name = ogonek;
position = "{610, 10}";
},
{
name = top;
position = "{493, 736}";
},
{
name = topleft;
position = "{40, 700}";
},
{
name = topright;
position = "{715, 586}";
}
);
components = (
{
name = O;
}
);
layerId = "156A42CF-5234-4DDE-A174-0E3EC098A6C5";
paths = (
{
closed = 1;
nodes = (
"792 739 LINE",
"101 40 LINE",
"165 -23 LINE",
"854 675 LINE"
);
}
);
width = 858;
}
);
unicode = 00D8;
},
{
glyphname = Thorn;
lastChange = "2021-06-30 03:44:16 +0000";
layers = (
{
layerId = master01;
paths = (
{
closed = 1;
nodes = (
"208 556 LINE",
"226 704 LINE",
"176 704 LINE",
"89 0 LINE",
"139 0 LINE",
"157 145 LINE",
"266 145 LINE SMOOTH",
"442 145 OFFCURVE",
"519 268 OFFCURVE",
"519 379 CURVE SMOOTH",
"519 503 OFFCURVE",
"417 556 OFFCURVE",
"320 556 CURVE SMOOTH"
);
},
{
closed = 1;
nodes = (
"163 192 LINE",
"202 509 LINE",
"312 509 LINE SMOOTH",
"410 509 OFFCURVE",
"468 449 OFFCURVE",
"468 373 CURVE SMOOTH",
"468 309 OFFCURVE",
"423 192 OFFCURVE",
"272 192 CURVE SMOOTH"
);
}
);
userData = {
com.schriftgestaltung.Glyphs.glyph.leftMetricsKey = H;
com.schriftgestaltung.Glyphs.glyph.rightMetricsKey = P;
};
width = 550;
},
{
layerId = "E3E5F2BC-81DA-462E-93BE-62096568DC8F";
paths = (
{
closed = 1;
nodes = (
"182.167 538.5 LINE",
"201.833 700.667 LINE",
"181.833 700.667 LINE",
"95.667 0 LINE",
"115.667 0 LINE",
"134.5 154.167 LINE",
"246 154.167 LINE SMOOTH",
"411.167 154.167 OFFCURVE",
"488.167 266.333 OFFCURVE",
"488.167 373.167 CURVE SMOOTH",
"488.167 494.667 OFFCURVE",
"382 538.5 OFFCURVE",
"305.833 538.5 CURVE SMOOTH"
);
},
{
closed = 1;
nodes = (
"137.167 173.667 LINE",
"179.5 519 LINE",
"294.5 519 LINE SMOOTH",
"396.667 519 OFFCURVE",
"468 459.833 OFFCURVE",
"468 371.333 CURVE SMOOTH",
"468 300.667 OFFCURVE",
"418.833 173.667 OFFCURVE",
"251.167 173.667 CURVE SMOOTH"
);
}
);
userData = {
com.schriftgestaltung.Glyphs.glyph.leftMetricsKey = H;
com.schriftgestaltung.Glyphs.glyph.rightMetricsKey = P;
};
width = 530;
},
{
layerId = "156A42CF-5234-4DDE-A174-0E3EC098A6C5";
paths = (
{
closed = 1;
nodes = (
"290 616 LINE",
"302 714 LINE",
"152 714 LINE",
"64 0 LINE",
"214 0 LINE",
"228 113 LINE",
"327 113 LINE SMOOTH",
"541 113 OFFCURVE",
"618 272 OFFCURVE",
"618 399 CURVE SMOOTH",
"618 531 OFFCURVE",
"529 616 OFFCURVE",
"363 616 CURVE SMOOTH"
);
},
{
closed = 1;
nodes = (
"245 254 LINE",
"272 476 LINE",
"366 476 LINE SMOOTH",
"452 476 OFFCURVE",
"466 411 OFFCURVE",
"466 378 CURVE SMOOTH",
"466 335 OFFCURVE",
"433 254 OFFCURVE",
"338 254 CURVE SMOOTH"
);
}
);
userData = {
com.schriftgestaltung.Glyphs.glyph.leftMetricsKey = H;
com.schriftgestaltung.Glyphs.glyph.rightMetricsKey = P;
};
width = 617;
}
);
rightKerningGroup = P;
unicode = 00DE;
},
{
glyphname = Hbar;
lastChange = "2021-06-30 03:44:16 +0000";
layers = (
{
anchors = (
{
name = bottom;
position = "{425, 0}";
},
{
name = center;
position = "{467, 353}";
},
{
name = top;
position = "{509, 711}";
},
{
name = topleft;
position = "{120, 700}";
}
);
components = (
{
name = H;
transform = "{1, 0, 0, 1, 74, 0}";
}
);
layerId = master01;
paths = (
{
closed = 1;
nodes = (
"151 502 LINE",
"834 502 LINE",
"838 532 LINE",
"155 532 LINE"
);
}
);
userData = {
com.schriftgestaltung.Glyphs.glyph.leftMetricsKey = H;
com.schriftgestaltung.Glyphs.glyph.rightMetricsKey = H;
};
width = 912;
},
{
anchors = (
{
name = bottom;
position = "{419.166, 0}";
},
{
name = center;
position = "{462, 350.5}";
},
{
name = top;
position = "{504.833, 701.833}";
},
{
name = topleft;
position = "{151.666, 700}";
}
);
components = (
{
name = H;
transform = "{1, 0, 0, 1, 74.833, 0}";
}
);
layerId = "E3E5F2BC-81DA-462E-93BE-62096568DC8F";
paths = (
{
closed = 1;
nodes = (
"156 493.667 LINE",
"811.5 493.667 LINE",
"813.833 510.333 LINE",
"158.333 510.333 LINE"
);
}
);
userData = {
com.schriftgestaltung.Glyphs.glyph.leftMetricsKey = H;
com.schriftgestaltung.Glyphs.glyph.rightMetricsKey = H;
com.schriftgestaltung.componentsAlignment = (
-1
);
};
width = 894;
},
{
anchors = (
{
name = bottom;
position = "{440, 0}";
},
{
name = center;
position = "{480, 360}";
},
{
name = top;
position = "{520, 740}";
},
{
name = topleft;
position = "{9, 700}";
}
);
components = (
{
name = H;
transform = "{1, 0, 0, 1, 67, 0}";
}
);
layerId = "156A42CF-5234-4DDE-A174-0E3EC098A6C5";
paths = (
{
closed = 1;
nodes = (
"130 529 LINE",
"905 529 LINE",
"914 606 LINE",
"139 606 LINE"
);
}
);
userData = {
com.schriftgestaltung.Glyphs.glyph.leftMetricsKey = H;
com.schriftgestaltung.Glyphs.glyph.rightMetricsKey = H;
};
width = 966;
}
);
rightKerningGroup = z;
unicode = 0126;
},
{
glyphname = Lslash;
lastChange = "2021-06-30 03:44:16 +0000";
layers = (
{
anchors = (
{
name = bottom;
position = "{302, 0}";
},
{
name = center;
position = "{491, 355}";
},
{
name = top;
position = "{195, 715}";
},
{
name = topright;
position = "{619, 710}";
}
);
components = (
{
name = L;
}
);
layerId = master01;
paths = (
{
closed = 1;
nodes = (
"59 307 LINE",
"53 265 LINE",
"411 383 LINE",
"417 425 LINE"
);
}
);
width = 574;
},
{
anchors = (
{
name = bottom;
position = "{303.667, 0}";
},
{
name = center;
position = "{535.167, 350.833}";
},
{
name = top;
position = "{185, 702.5}";
},
{
name = topright;
position = "{603.167, 701.667}";
}
);
components = (
{
name = L;
}
);
layerId = "E3E5F2BC-81DA-462E-93BE-62096568DC8F";
paths = (
{
closed = 1;
nodes = (
"59 295.333 LINE",
"56.333 276.667 LINE",
"389.333 392.167 LINE",
"392 410.833 LINE"
);
}
);
userData = {
com.schriftgestaltung.componentsAlignment = (
-1
);
};
width = 554;
},
{
anchors = (
{
name = bottom;
position = "{298, 0}";
},
{
name = center;
position = "{343, 368}";
},
{
name = top;
position = "{227, 756}";
},
{
name = topright;
position = "{671, 736}";
}
);
components = (
{
name = L;
}
);
layerId = "156A42CF-5234-4DDE-A174-0E3EC098A6C5";
paths = (
{
closed = 1;
nodes = (
"58 346 LINE",
"43 225 LINE",
"484 351 LINE",
"499 472 LINE"
);
}
);
width = 640;
}
);
unicode = 0141;
},
{
glyphname = Eng;
lastChange = "2021-06-30 03:44:16 +0000";
layers = (
{
anchors = (
{
name = bottom;
position = "{385, 0}";
},
{
name = top;
position = "{465, 700}";
}
);
layerId = master01;
paths = (
{
closed = 1;
nodes = (
"637 -152 OFFCURVE",
"668 -88 OFFCURVE",
"678 -5 CURVE SMOOTH",
"765 710 LINE",
"716 710 LINE",
"640 85 LINE",
"656 80 LINE",
"174 725 LINE",
"172 725 LINE",
"83 0 LINE",
"132 0 LINE",
"207 624 LINE",
"193 623 LINE",
"669 -8 LINE",
"637 52 LINE",
"631 -6 LINE SMOOTH",
"625 -72 OFFCURVE",
"599 -127 OFFCURVE",
"555 -159 CURVE",
"581 -188 LINE"
);
}
);
width = 809;
},
{
anchors = (
{
name = bottom;
position = "{383.333, 0}";
},
{
name = top;
position = "{468.333, 700}";
}
);
layerId = "E3E5F2BC-81DA-462E-93BE-62096568DC8F";
paths = (
{
closed = 1;
nodes = (
"633.667 -147 OFFCURVE",
"660.5 -85.5 OFFCURVE",
"669.667 -6.667 CURVE SMOOTH",
"755.833 701.667 LINE",
"736 701.667 LINE",
"653.333 27.5 LINE",
"664.333 25 LINE",
"183.167 713.333 LINE",
"182 713.333 LINE",
"94.667 0 LINE",
"114.5 0 LINE",
"197 675.667 LINE",
"190.5 667.167 LINE",
"659.833 -1.333 LINE",
"652.833 18.667 LINE",
"650.167 -10.167 LINE SMOOTH",
"644.167 -77.833 OFFCURVE",
"619 -137 OFFCURVE",
"575 -169 CURVE",
"588.5 -181.333 LINE"
);
}
);
width = 811;
},
{
anchors = (
{
name = bottom;
position = "{390, 0}";
},
{
name = top;
position = "{452, 700}";
}
);
layerId = "156A42CF-5234-4DDE-A174-0E3EC098A6C5";
paths = (
{
closed = 1;
nodes = (
"647 -167 OFFCURVE",
"693 -96 OFFCURVE",
"705 0 CURVE",
"796 736 LINE",
"650 736 LINE",
"597 277 LINE",
"627 263 LINE",
"143 765 LINE",
"137 765 LINE",
"43 0 LINE",
"190 0 LINE",
"242 450 LINE",
"202 474 LINE",
"698 -30 LINE",
"586 163 LINE",
"567 8 LINE",
"560 -53 OFFCURVE",
"531 -95 OFFCURVE",
"488 -124 CURVE",
"557 -211 LINE"
);
}
);
width = 802;
}
);
unicode = 014A;
},
{
glyphname = OE;
lastChange = "2021-06-30 03:44:16 +0000";
layers = (
{
layerId = master01;
paths = (
{
closed = 1;
nodes = (
"607 705 LINE",
"579 713 OFFCURVE",
"549 718 OFFCURVE",
"517 718 CURVE SMOOTH",
"302 718 OFFCURVE",
"108 534 OFFCURVE",
"108 317 CURVE SMOOTH",
"108 136 OFFCURVE",
"243 -8 OFFCURVE",
"428 -8 CURVE SMOOTH",
"459 -8 OFFCURVE",
"489 -4 OFFCURVE",
"519 3 CURVE",
"504 48 LINE",
"480 42 OFFCURVE",
"457 40 OFFCURVE",
"433 40 CURVE SMOOTH",
"275 40 OFFCURVE",
"158 164 OFFCURVE",
"158 321 CURVE SMOOTH",
"158 509 OFFCURVE",
"326 669 OFFCURVE",
"511 669 CURVE SMOOTH",
"535 669 OFFCURVE",
"557 666 OFFCURVE",
"578 662 CURVE"
);
},
{
closed = 1;
nodes = (
"491 0 LINE",
"913 0 LINE",
"919 47 LINE",
"547 47 LINE",
"582 334 LINE",
"900 334 LINE",
"906 380 LINE",
"587 380 LINE",
"622 664 LINE",
"980 664 LINE",
"986 710 LINE",
"578 710 LINE"
);
}
);
width = 997;
},
{
layerId = "E3E5F2BC-81DA-462E-93BE-62096568DC8F";
paths = (
{
closed = 1;
nodes = (
"603.667 697.5 LINE",
"575.667 705.5 OFFCURVE",
"546.5 709.667 OFFCURVE",
"514.5 709.667 CURVE SMOOTH",
"302 709.667 OFFCURVE",
"109.667 529 OFFCURVE",
"109.667 313.667 CURVE SMOOTH",
"109.667 134.333 OFFCURVE",
"243.833 -8 OFFCURVE",
"426.333 -8 CURVE SMOOTH",
"457.333 -8 OFFCURVE",
"487.333 -4 OFFCURVE",
"516.5 3 CURVE",
"503.167 20.5 LINE",
"477.5 14.5 OFFCURVE",
"452.833 11.667 OFFCURVE",
"426.333 11.667 CURVE SMOOTH",
"255.833 11.667 OFFCURVE",
"129.667 145.667 OFFCURVE",
"129.667 314.333 CURVE SMOOTH",
"129.667 517.333 OFFCURVE",
"311.833 689.833 OFFCURVE",
"511.833 689.833 CURVE SMOOTH",
"537.5 689.833 OFFCURVE",
"562 686.833 OFFCURVE",
"584.667 682 CURVE"
);
},
{
closed = 1;
nodes = (
"495.167 0 LINE",
"898 0 LINE",
"900.667 19.5 LINE",
"517.833 19.5 LINE",
"557 344 LINE",
"886.667 344 LINE",
"889.333 363.333 LINE",
"559.5 363.333 LINE",
"598.667 682.333 LINE",
"967.5 682.333 LINE",
"970.167 701.667 LINE",
"581.333 701.667 LINE"
);
}
);
width = 990;
},
{
layerId = "156A42CF-5234-4DDE-A174-0E3EC098A6C5";
paths = (
{
closed = 1;
nodes = (
"619 731 LINE",
"590 739 OFFCURVE",
"558 744 OFFCURVE",
"525 744 CURVE SMOOTH",
"283 744 OFFCURVE",
"101 560 OFFCURVE",
"101 329 CURVE SMOOTH",
"101 141 OFFCURVE",
"241 -8 OFFCURVE",
"433 -8 CURVE SMOOTH",
"465 -8 OFFCURVE",
"495 -4 OFFCURVE",
"526 4 CURVE",
"506 139 LINE",
"489 135 OFFCURVE",
"472 133 OFFCURVE",
"455 133 CURVE SMOOTH",
"337 133 OFFCURVE",
"252 226 OFFCURVE",
"252 343 CURVE SMOOTH",
"252 493 OFFCURVE",
"353 600 OFFCURVE",
"508 600 CURVE SMOOTH",
"525 600 OFFCURVE",
"541 598 OFFCURVE",
"557 594 CURVE"
);
},
{
closed = 1;
nodes = (
"477 0 LINE",
"963 0 LINE",
"980 139 LINE",
"644 139 LINE",
"664 299 LINE",
"945 299 LINE",
"961 437 LINE",
"680 437 LINE",
"701 601 LINE",
"1023 601 LINE",
"1039 736 LINE",
"567 736 LINE"
);
}
);
width = 1021;
}
);
leftKerningGroup = O;
unicode = 0152;
},
{
glyphname = Schwa;
lastChange = "2021-06-30 03:44:16 +0000";
layers = (
{
layerId = master01;
paths = (
{
closed = 1;
nodes = (
"340 719 OFFCURVE",
"243 684 OFFCURVE",
"177 630 CURVE",
"199 590 LINE",
"255 637 OFFCURVE",
"342 671 OFFCURVE",
"420 670 CURVE SMOOTH",
"520 669 OFFCURVE",
"710 595 OFFCURVE",
"710 376 CURVE SMOOTH",
"710 259 OFFCURVE",
"611 37 OFFCURVE",
"375 40 CURVE SMOOTH",
"302 41 OFFCURVE",
"167 81 OFFCURVE",
"120 251 CURVE",
"102 234 LINE",
"722 430 LINE",
"715 468 LINE",
"64 266 LINE",
"109 30 OFFCURVE",
"291 -4 OFFCURVE",
"373 -4 CURVE SMOOTH",
"652 -4 OFFCURVE",
"761 242 OFFCURVE",
"761 383 CURVE SMOOTH",
"761 626 OFFCURVE",
"559 715 OFFCURVE",
"425 718 CURVE SMOOTH"
);
}
);
userData = {
com.schriftgestaltung.Glyphs.glyph.rightMetricsKey = O;
};
width = 810;
},
{
layerId = "E3E5F2BC-81DA-462E-93BE-62096568DC8F";
paths = (
{
closed = 1;
nodes = (
"333.333 710.667 OFFCURVE",
"246.333 677.333 OFFCURVE",
"179.5 624.167 CURVE",
"190.667 608.333 LINE",
"250.833 655.333 OFFCURVE",
"337.833 691 OFFCURVE",
"419.167 690.833 CURVE SMOOTH",
"522.5 690.667 OFFCURVE",
"741.667 618.333 OFFCURVE",
"741.667 370.167 CURVE SMOOTH",
"741.667 255.667 OFFCURVE",
"637.667 12 OFFCURVE",
"375.833 12.5 CURVE SMOOTH",
"308.667 12.667 OFFCURVE",
"147 41.833 OFFCURVE",
"90 235.167 CURVE",
"81.167 224.833 LINE",
"740.333 440 LINE",
"735.833 458 LINE",
"65.667 239.333 LINE",
"121.5 30.833 OFFCURVE",
"289.333 -5.667 OFFCURVE",
"374.667 -5.667 CURVE SMOOTH",
"658.667 -5.667 OFFCURVE",
"761.833 245.333 OFFCURVE",
"761.833 372.167 CURVE SMOOTH",
"761.833 635.167 OFFCURVE",
"533.167 710 OFFCURVE",
"420 710.5 CURVE SMOOTH"
);
}
);
userData = {
com.schriftgestaltung.Glyphs.glyph.rightMetricsKey = O;
};
width = 818.33333;
},
{
layerId = "156A42CF-5234-4DDE-A174-0E3EC098A6C5";
paths = (
{
closed = 1;
nodes = (
"349 743 OFFCURVE",
"227 702 OFFCURVE",
"168 651 CURVE",
"225 529 LINE",
"265 572 OFFCURVE",
"343 602 OFFCURVE",
"408 602 CURVE SMOOTH",
"504 602 OFFCURVE",
"603 548 OFFCURVE",
"603 396 CURVE SMOOTH",
"603 270 OFFCURVE",
"522 119 OFFCURVE",
"374 130 CURVE",
"279 136 OFFCURVE",
"233 210 OFFCURVE",
"221 305 CURVE",
"171 265 LINE",
"662 395 LINE",
"644 502 LINE",
"57 353 LINE",
"69 27 OFFCURVE",
"297 1 OFFCURVE",
"369 1 CURVE SMOOTH",
"629 1 OFFCURVE",
"758 210 OFFCURVE",
"758 398 CURVE SMOOTH",
"758 632 OFFCURVE",
"596 743 OFFCURVE",
"444 743 CURVE SMOOTH"
);
}
);
userData = {
com.schriftgestaltung.Glyphs.glyph.rightMetricsKey = O;
};
width = 789;
}
);
unicode = 018F;
},
{
glyphname = Nhookleft;
lastChange = "2021-06-30 03:44:16 +0000";
layers = (
{
layerId = master01;
paths = (
{
closed = 1;
nodes = (
"628 -8 LINE",
"716 710 LINE",
"669 710 LINE",
"593 85 LINE",
"608 89 LINE",
"125 725 LINE",
"123 725 LINE",
"34 0 LINE",
"81 0 LINE",
"157 624 LINE",
"144 616 LINE",
"625 -17 LINE"
);
},
{
closed = 1;
nodes = (
"45 89 LINE",
"33 -6 LINE SMOOTH",
"25 -72 OFFCURVE",
"-3 -124 OFFCURVE",
"-42 -159 CURVE",
"-14 -188 LINE",
"39 -148 OFFCURVE",
"70 -86 OFFCURVE",
"80 -5 CURVE SMOOTH",
"88 54 LINE"
);
}
);
userData = {
com.schriftgestaltung.Glyphs.glyph.leftMetricsKey = J;
com.schriftgestaltung.Glyphs.glyph.rightMetricsKey = N;
};
width = 768;
},
{
layerId = "E3E5F2BC-81DA-462E-93BE-62096568DC8F";
paths = (
{
closed = 1;
nodes = (
"606.333 -11.333 LINE",
"693.5 701.667 LINE",
"674 701.667 LINE",
"591.333 27.5 LINE",
"602.167 26.5 LINE",
"121.667 713.333 LINE",
"120.5 713.333 LINE",
"32.333 0 LINE",
"51.833 0 LINE",
"135.333 675.667 LINE",
"128.167 666 LINE",
"605 -12.833 LINE"
);
},
{
closed = 1;
nodes = (
"40.833 66.5 LINE",
"31.333 -10.167 LINE SMOOTH",
"23.333 -77.833 OFFCURVE",
"-5.5 -132.333 OFFCURVE",
"-43.667 -169 CURVE",
"-29.833 -181.333 LINE",
"12.333 -142.167 OFFCURVE",
"41.667 -83.5 OFFCURVE",
"51.667 -6.667 CURVE SMOOTH",
"59.667 60.667 LINE"
);
}
);
userData = {
com.schriftgestaltung.Glyphs.glyph.leftMetricsKey = J;
com.schriftgestaltung.Glyphs.glyph.rightMetricsKey = N;
};
width = 749.66667;
},
{
layerId = "156A42CF-5234-4DDE-A174-0E3EC098A6C5";
paths = (
{
closed = 1;
nodes = (
"704 4 LINE",
"794 736 LINE",
"648 736 LINE",
"595 277 LINE",
"625 263 LINE",
"141 765 LINE",
"135 765 LINE",
"41 0 LINE",
"188 0 LINE",
"240 450 LINE",
"200 474 LINE",
"696 -30 LINE"
);
},
{
closed = 1;
nodes = (
"61 163 LINE",
"42 8 LINE",
"34 -53 OFFCURVE",
"6 -95 OFFCURVE",
"-37 -124 CURVE",
"40 -211 LINE",
"129 -167 OFFCURVE",
"176 -96 OFFCURVE",
"188 0 CURVE",
"192 30 LINE"
);
}
);
userData = {
com.schriftgestaltung.Glyphs.glyph.leftMetricsKey = J;
com.schriftgestaltung.Glyphs.glyph.rightMetricsKey = N;
};
width = 829;
}
);
unicode = 019D;
},
{
glyphname = Germandbls;
lastChange = "2021-06-30 03:44:16 +0000";
layers = (
{
layerId = master01;
paths = (
{
closed = 1;
nodes = (
"668 -8 OFFCURVE",
"753 70 OFFCURVE",
"764 161 CURVE",
"776 259 OFFCURVE",
"699 296 OFFCURVE",
"626 338 CURVE",
"557 379 OFFCURVE",
"488 417 OFFCURVE",
"498 497 CURVE",
"506 565 OFFCURVE",
"570 618 OFFCURVE",
"638 618 CURVE",
"686 618 OFFCURVE",
"717 593 OFFCURVE",
"726 584 CURVE",
"747 620 LINE",
"706 675 OFFCURVE",
"605 729 OFFCURVE",
"486 729 CURVE",
"276 729 OFFCURVE",
"161 580 OFFCURVE",
"134 364 CURVE",
"89 0 LINE",
"138 0 LINE",
"183 360 LINE",
"210 588 OFFCURVE",
"327 689 OFFCURVE",
"486 689 CURVE",
"566 689 OFFCURVE",
"647 659 OFFCURVE",
"698 607 CURVE",
"715 629 LINE",
"700 640 OFFCURVE",
"681 654 OFFCURVE",
"636 654 CURVE",
"519 647 OFFCURVE",
"457 571 OFFCURVE",
"447 486 CURVE",
"436 392 OFFCURVE",
"514 339 OFFCURVE",
"593 298 CURVE",
"656 258 OFFCURVE",
"723 231 OFFCURVE",
"714 160 CURVE",
"703 78 OFFCURVE",
"616 35 OFFCURVE",
"555 35 CURVE",
"492 35 OFFCURVE",
"431 57 OFFCURVE",
"388 85 CURVE",
"363 45 LINE",
"404 17 OFFCURVE",
"467 -8 OFFCURVE",
"552 -8 CURVE"
);
}
);
userData = {
com.schriftgestaltung.Glyphs.glyph.leftMetricsKey = H;
com.schriftgestaltung.Glyphs.glyph.rightMetricsKey = S;
};
width = 818;
},
{
layerId = "E3E5F2BC-81DA-462E-93BE-62096568DC8F";
paths = (
{
closed = 1;
nodes = (
"661.333 -8 OFFCURVE",
"743.833 64.167 OFFCURVE",
"754 148.5 CURVE",
"765.167 236.5 OFFCURVE",
"689.833 271 OFFCURVE",
"616 313 CURVE",
"538.667 357.333 OFFCURVE",
"463.833 398.667 OFFCURVE",
"474.667 487 CURVE",
"483.5 564.167 OFFCURVE",
"560 624.667 OFFCURVE",
"637.167 624.667 CURVE",
"693.5 624.667 OFFCURVE",
"729.5 594.667 OFFCURVE",
"739.333 585.667 CURVE",
"751.167 600 LINE",
"709.333 656.667 OFFCURVE",
"614.167 711.5 OFFCURVE",
"491 711.5 CURVE",
"276 711.5 OFFCURVE",
"165.167 562.5 OFFCURVE",
"138.167 346.5 CURVE",
"95.667 0 LINE",
"115.5 0 LINE",
"158 342.5 LINE",
"187.5 586.333 OFFCURVE",
"316.167 694 OFFCURVE",
"491 694 CURVE",
"576 694 OFFCURVE",
"662.833 662.333 OFFCURVE",
"715.5 610.333 CURVE",
"722.5 616.5 LINE",
"706.667 626.667 OFFCURVE",
"687.667 642.333 OFFCURVE",
"637.667 642.333 CURVE",
"519 635.333 OFFCURVE",
"462 556 OFFCURVE",
"452.833 480.167 CURVE",
"441.833 389.5 OFFCURVE",
"519.833 339 OFFCURVE",
"602.167 297.167 CURVE",
"670.167 253 OFFCURVE",
"743.833 226 OFFCURVE",
"734 146.667 CURVE",
"723 59.667 OFFCURVE",
"626 10 OFFCURVE",
"559.167 10 CURVE",
"492.833 10 OFFCURVE",
"434.333 30.333 OFFCURVE",
"392.167 55 CURVE",
"383 37.5 LINE",
"415.667 17 OFFCURVE",
"471.167 -8 OFFCURVE",
"556.167 -8 CURVE"
);
}
);
userData = {
com.schriftgestaltung.Glyphs.glyph.leftMetricsKey = H;
com.schriftgestaltung.Glyphs.glyph.rightMetricsKey = S;
};
width = 833.83333;
},
{
layerId = "156A42CF-5234-4DDE-A174-0E3EC098A6C5";
paths = (
{
closed = 1;
nodes = (
"686 -8 OFFCURVE",
"780 91 OFFCURVE",
"793 203 CURVE",
"809 333 OFFCURVE",
"725 379 OFFCURVE",
"655 423 CURVE",
"613 452 OFFCURVE",
"565 478 OFFCURVE",
"571 530 CURVE",
"576 568 OFFCURVE",
"600 595 OFFCURVE",
"636 595 CURVE",
"657 595 OFFCURVE",
"671 587 OFFCURVE",
"679 580 CURVE",
"730 687 LINE",
"690 736 OFFCURVE",
"570 786 OFFCURVE",
"464 786 CURVE",
"243 786 OFFCURVE",
"142 637 OFFCURVE",
"116 421 CURVE",
"64 0 LINE",
"210 0 LINE",
"261 417 LINE",
"283 594 OFFCURVE",
"358 671 OFFCURVE",
"464 671 CURVE",
"530 671 OFFCURVE",
"591 649 OFFCURVE",
"634 597 CURVE",
"688 669 LINE",
"675 685 OFFCURVE",
"656 693 OFFCURVE",
"625 693 CURVE",
"516 685 OFFCURVE",
"438 620 OFFCURVE",
"424 506 CURVE",
"411 399 OFFCURVE",
"492 339 OFFCURVE",
"557 302 CURVE",
"605 274 OFFCURVE",
"648 247 OFFCURVE",
"642 203 CURVE",
"634 139 OFFCURVE",
"580 120 OFFCURVE",
"538 120 CURVE",
"486 120 OFFCURVE",
"417 146 OFFCURVE",
"371 184 CURVE",
"293 71 LINE",
"363 16 OFFCURVE",
"451 -8 OFFCURVE",
"535 -8 CURVE"
);
}
);
userData = {
com.schriftgestaltung.Glyphs.glyph.leftMetricsKey = H;
com.schriftgestaltung.Glyphs.glyph.rightMetricsKey = S;
};
width = 835;
}
);
unicode = 1E9E;
},
{
glyphname = Delta;
lastChange = "2021-06-30 03:44:16 +0000";
layers = (
{
layerId = master01;
paths = (
{
closed = 1;
nodes = (
"666 0 LINE",
"436 741 LINE",
"431 741 LINE",
"26 0 LINE"
);
},
{
closed = 1;
nodes = (
"632 46 LINE",
"72 46 LINE",
"83 12 LINE",
"449 684 LINE",
"408 684 LINE",
"603 12 LINE"
);
}
);
userData = {
com.schriftgestaltung.Glyphs.glyph.leftMetricsKey = A;
com.schriftgestaltung.Glyphs.glyph.rightMetricsKey = A;
};
width = 742;
},
{
layerId = "E3E5F2BC-81DA-462E-93BE-62096568DC8F";
paths = (
{
closed = 1;
nodes = (
"671 0 LINE",
"449.333 733.5 LINE",
"444.333 733.5 LINE",
"39.333 0 LINE"
);
},
{
closed = 1;
nodes = (
"654.5 18.5 LINE",
"58.667 18.5 LINE",
"64.667 8.667 LINE",
"450.667 708.167 LINE",
"438 711.5 LINE",
"646.333 6.167 LINE"
);
}
);
userData = {
com.schriftgestaltung.Glyphs.glyph.leftMetricsKey = A;
com.schriftgestaltung.Glyphs.glyph.rightMetricsKey = A;
};
width = 757;
},
{
layerId = "156A42CF-5234-4DDE-A174-0E3EC098A6C5";
paths = (
{
closed = 1;
nodes = (
"691 0 LINE",
"435 765 LINE",
"430 765 LINE",
"-19 0 LINE"
);
},
{
closed = 1;
nodes = (
"601 140 LINE",
"83 140 LINE",
"165 62 LINE",
"466 572 LINE",
"346 594 LINE",
"519 80 LINE"
);
}
);
userData = {
com.schriftgestaltung.Glyphs.glyph.leftMetricsKey = A;
com.schriftgestaltung.Glyphs.glyph.rightMetricsKey = A;
};
width = 734;
}
);
unicode = 0394;
},
{
glyphname = Ohm;
lastChange = "2021-06-30 03:44:16 +0000";
layers = (
{
layerId = master01;
paths = (
{
closed = 1;
nodes = (
"494 16 LINE",
"615 56 OFFCURVE",
"731 133 OFFCURVE",
"742 321 CURVE SMOOTH",
"751 458 OFFCURVE",
"686 596 OFFCURVE",
"508 596 CURVE SMOOTH",
"307 597 OFFCURVE",
"197 429 OFFCURVE",
"197 263 CURVE SMOOTH",
"197 116 OFFCURVE",
"288 53 OFFCURVE",
"384 17 CURVE",
"387 42 LINE",
"304 79 OFFCURVE",
"226 158 OFFCURVE",
"244 297 CURVE SMOOTH",
"264 452 OFFCURVE",
"362 555 OFFCURVE",
"504 554 CURVE SMOOTH",
"637 553 OFFCURVE",
"715 461 OFFCURVE",
"696 301 CURVE SMOOTH",
"682 164 OFFCURVE",
"594 79 OFFCURVE",
"497 42 CURVE"
);
},
{
closed = 1;
nodes = (
"162 0 LINE",
"382 0 LINE",
"387 42 LINE",
"167 42 LINE"
);
},
{
closed = 1;
nodes = (
"492 0 LINE",
"701 0 LINE",
"707 42 LINE",
"497 42 LINE"
);
}
);
width = 833;
},
{
layerId = "E3E5F2BC-81DA-462E-93BE-62096568DC8F";
paths = (
{
closed = 1;
nodes = (
"492.333 2.667 LINE",
"636.667 51.833 OFFCURVE",
"739.333 142.167 OFFCURVE",
"741.167 321.833 CURVE SMOOTH",
"742.667 444.667 OFFCURVE",
"685.167 588.5 OFFCURVE",
"509.667 589.333 CURVE SMOOTH",
"291.167 590.333 OFFCURVE",
"197.833 392.333 OFFCURVE",
"197.833 253 CURVE SMOOTH",
"197.833 118.5 OFFCURVE",
"277.167 44.667 OFFCURVE",
"382.333 2.833 CURVE",
"384.5 18.667 LINE",
"293.167 57.333 OFFCURVE",
"201 136.333 OFFCURVE",
"220.667 289.5 CURVE SMOOTH",
"244.833 477.833 OFFCURVE",
"363.667 571.667 OFFCURVE",
"506.5 570.667 CURVE SMOOTH",
"647.833 569.667 OFFCURVE",
"743.333 476 OFFCURVE",
"719.333 286 CURVE SMOOTH",
"700.333 134 OFFCURVE",
"596.5 55.667 OFFCURVE",
"494.5 18.667 CURVE"
);
},
{
closed = 1;
nodes = (
"166.167 0 LINE",
"382 0 LINE",
"384.5 18.667 LINE",
"168.667 18.667 LINE"
);
},
{
closed = 1;
nodes = (
"492 0 LINE",
"696.833 0 LINE",
"699.5 18.667 LINE",
"494.5 18.667 LINE"
);
}
);
width = 833;
},
{
layerId = "156A42CF-5234-4DDE-A174-0E3EC098A6C5";
paths = (
{
closed = 1;
nodes = (
"499 60 LINE",
"544 71 OFFCURVE",
"703 101 OFFCURVE",
"743 319 CURVE SMOOTH",
"777 504 OFFCURVE",
"688 620 OFFCURVE",
"503 620 CURVE SMOOTH",
"359 620 OFFCURVE",
"196 552 OFFCURVE",
"196 297 CURVE SMOOTH",
"196 109 OFFCURVE",
"323 81 OFFCURVE",
"390 65 CURVE",
"397 121 LINE",
"341 152 OFFCURVE",
"310 231 OFFCURVE",
"323 321 CURVE SMOOTH",
"329 365 OFFCURVE",
"358 499 OFFCURVE",
"494 499 CURVE SMOOTH",
"599 499 OFFCURVE",
"619 411 OFFCURVE",
"619 350 CURVE SMOOTH",
"619 265 OFFCURVE",
"586 157 OFFCURVE",
"507 121 CURVE"
);
},
{
closed = 1;
nodes = (
"147 0 LINE",
"382 0 LINE",
"397 121 LINE",
"162 121 LINE"
);
},
{
closed = 1;
nodes = (
"492 0 LINE",
"716 0 LINE",
"731 121 LINE",
"507 121 LINE"
);
}
);
width = 833;
}
);
unicode = 2126;
},
{
glyphname = micro;
lastChange = "2021-06-30 03:44:16 +0000";
layers = (
{
layerId = master01;
paths = (
{
closed = 1;
nodes = (
"262 -11 OFFCURVE",
"335 38 OFFCURVE",
"363 99 CURVE",
"354 0 LINE",
"396 0 LINE",
"444 391 LINE",
"397 391 LINE",
"371 183 LINE SMOOTH",
"361 95 OFFCURVE",
"284 30 OFFCURVE",
"207 30 CURVE",
"148 33 OFFCURVE",
"123 69 OFFCURVE",
"127 120 CURVE",
"160 391 LINE",
"113 391 LINE",
"79 109 LINE",
"41 -201 LINE",
"82 -201 LINE",
"119 103 LINE",
"80 78 LINE",
"86 25 OFFCURVE",
"125 -11 OFFCURVE",
"187 -11 CURVE SMOOTH"
);
}
);
userData = {
com.schriftgestaltung.Glyphs.glyph.leftMetricsKey = n;
com.schriftgestaltung.Glyphs.glyph.rightMetricsKey = n;
};
width = 509;
},
{
layerId = "E3E5F2BC-81DA-462E-93BE-62096568DC8F";
paths = (
{
closed = 1;
nodes = (
"262 -7.667 OFFCURVE",
"339.167 44.667 OFFCURVE",
"364.667 107.333 CURVE",
"353.167 0 LINE",
"369.333 0 LINE",
"415.667 377.667 LINE",
"396.167 377.667 LINE",
"369.333 159.667 LINE SMOOTH",
"359.333 73.333 OFFCURVE",
"274 10 OFFCURVE",
"192.833 10 CURVE",
"128 13 OFFCURVE",
"98.833 53.167 OFFCURVE",
"103.667 107.5 CURVE",
"136.667 377.667 LINE",
"117.167 377.667 LINE",
"84.833 108.167 LINE",
"46.833 -201 LINE",
"65.333 -201 LINE",
"99 77.167 LINE",
"85 68 LINE",
"94.333 21.667 OFFCURVE",
"130.833 -7.667 OFFCURVE",
"187.833 -7.667 CURVE SMOOTH"
);
}
);
userData = {
com.schriftgestaltung.Glyphs.glyph.leftMetricsKey = n;
com.schriftgestaltung.Glyphs.glyph.rightMetricsKey = n;
};
width = 487;
},
{
layerId = "156A42CF-5234-4DDE-A174-0E3EC098A6C5";
paths = (
{
closed = 1;
nodes = (
"262 -21 OFFCURVE",
"320 16 OFFCURVE",
"357 71 CURVE",
"358 0 LINE",
"485 0 LINE",
"539 437 LINE",
"399 437 LINE",
"377 259 LINE",
"366 166 OFFCURVE",
"318 98 OFFCURVE",
"256 98 CURVE",
"215 98 OFFCURVE",
"203 123 OFFCURVE",
"205 162 CURVE",
"239 437 LINE",
"99 437 LINE",
"59 110 LINE",
"22 -201 LINE",
"137 -201 LINE",
"185 189 LINE",
"65 112 LINE",
"58 35 OFFCURVE",
"105 -21 OFFCURVE",
"184 -21 CURVE"
);
}
);
userData = {
com.schriftgestaltung.Glyphs.glyph.leftMetricsKey = n;
com.schriftgestaltung.Glyphs.glyph.rightMetricsKey = n;
};
width = 584;
}
);
unicode = 00B5;
},
{
glyphname = a;
lastChange = "2021-06-30 03:44:16 +0000";
layers = (
{
anchors = (
{
name = bottom;
position = "{238, -5}";
},
{
name = ogonek;
position = "{449, 3}";
},
{
name = top;
position = "{288, 400}";
}
);
layerId = master01;
paths = (
{
closed = 1;
nodes = (
"324 -7 OFFCURVE",
"394 47 OFFCURVE",
"422 96 CURVE",
"415 114 LINE",
"401 0 LINE",
"448 0 LINE",
"495 391 LINE",
"454 391 LINE",
"433 272 LINE",
"442 286 LINE",
"419 353 OFFCURVE",
"357 403 OFFCURVE",
"266 403 CURVE SMOOTH",
"115 403 OFFCURVE",
"50 275 OFFCURVE",
"50 183 CURVE SMOOTH",
"50 73 OFFCURVE",
"131 -7 OFFCURVE",
"232 -6 CURVE SMOOTH"
);
},
{
closed = 1;
nodes = (
"164 33 OFFCURVE",
"99 101 OFFCURVE",
"99 188 CURVE SMOOTH",
"99 252 OFFCURVE",
"144 363 OFFCURVE",
"272 363 CURVE SMOOTH",
"356 363 OFFCURVE",
"422 303 OFFCURVE",
"428 226 CURVE",
"422 169 LINE",
"406 88 OFFCURVE",
"335 33 OFFCURVE",
"255 33 CURVE SMOOTH"
);
}
);
userData = {
com.schriftgestaltung.Glyphs.glyph.leftMetricsKey = o;
com.schriftgestaltung.Glyphs.glyph.rightMetricsKey = n;
};
width = 561;
},
{
anchors = (
{
name = bottom;
position = "{221.333, -0.833}";
},
{
name = ogonek;
position = "{424.833, 0.5}";
},
{
name = top;
position = "{268, 379.167}";
}
);
layerId = "E3E5F2BC-81DA-462E-93BE-62096568DC8F";
paths = (
{
closed = 1;
nodes = (
"318.167 -5.333 OFFCURVE",
"389.833 41.167 OFFCURVE",
"423.667 105.167 CURVE",
"423.333 119.833 LINE",
"408.5 0 LINE",
"428 0 LINE",
"473.333 377.667 LINE",
"458.167 377.667 LINE",
"437.167 242.833 LINE",
"442 255.167 LINE",
"420.667 331.333 OFFCURVE",
"350.333 386.333 OFFCURVE",
"261 386.333 CURVE SMOOTH",
"108.333 386.333 OFFCURVE",
"55 257.5 OFFCURVE",
"55 177.167 CURVE SMOOTH",
"55 75.5 OFFCURVE",
"131.833 -5.333 OFFCURVE",
"237.833 -5.167 CURVE SMOOTH"
);
},
{
closed = 1;
nodes = (
"145.667 12.167 OFFCURVE",
"74.833 86.833 OFFCURVE",
"74.833 178.833 CURVE SMOOTH",
"74.833 246.167 OFFCURVE",
"122.333 368 OFFCURVE",
"262 368 CURVE SMOOTH",
"355.167 368 OFFCURVE",
"428.667 298 OFFCURVE",
"433.833 211 CURVE",
"429.5 169.833 LINE",
"416.833 77.167 OFFCURVE",
"335.833 12.167 OFFCURVE",
"243.333 12.167 CURVE SMOOTH"
);
}
);
userData = {
com.schriftgestaltung.Glyphs.glyph.leftMetricsKey = o;
com.schriftgestaltung.Glyphs.glyph.rightMetricsKey = n;
};
width = 545;
},
{
anchors = (
{
name = bottom;
position = "{297, -20}";
},
{
name = ogonek;
position = "{531, 10}";
},
{
name = top;
position = "{357, 470}";
}
);
background = {
paths = (
{
closed = 1;
nodes = (
"334 -12 OFFCURVE",
"393 65 OFFCURVE",
"398 65 CURVE",
"390 95 LINE",
"379 0 LINE",
"519 0 LINE",
"572 437 LINE",
"442 437 LINE",
"427 390 LINE",
"403 425 OFFCURVE",
"371 459 OFFCURVE",
"284 459 CURVE",
"173 459 OFFCURVE",
"59 366 OFFCURVE",
"41 218 CURVE",
"39 203 OFFCURVE",
"38 189 OFFCURVE",
"38 176 CURVE SMOOTH",
"38 46 OFFCURVE",
"120 -12 OFFCURVE",
"231 -12 CURVE"
);
},
{
closed = 1;
nodes = (
"228 102 OFFCURVE",
"183 147 OFFCURVE",
"183 210 CURVE SMOOTH",
"183 215 OFFCURVE",
"183 220 OFFCURVE",
"184 225 CURVE",
"193 295 OFFCURVE",
"250 345 OFFCURVE",
"310 345 CURVE",
"363 345 OFFCURVE",
"402 318 OFFCURVE",
"412 275 CURVE",
"399 168 LINE",
"372 124 OFFCURVE",
"335 102 OFFCURVE",
"285 102 CURVE"
);
}
);
};
layerId = "156A42CF-5234-4DDE-A174-0E3EC098A6C5";
paths = (
{
closed = 1;
nodes = (
"334 -12 OFFCURVE",
"393 65 OFFCURVE",
"398 65 CURVE",
"390 95 LINE",
"379 0 LINE",
"519 0 LINE",
"572 437 LINE",
"442 437 LINE",
"420 369 LINE",
"429 390 LINE",
"405 425 OFFCURVE",
"371 459 OFFCURVE",
"284 459 CURVE",
"140 459 OFFCURVE",
"38 333 OFFCURVE",
"38 203 CURVE SMOOTH",
"38 66 OFFCURVE",
"130 -12 OFFCURVE",
"216 -10 CURVE"
);
},
{
closed = 1;
nodes = (
"228 102 OFFCURVE",
"183 147 OFFCURVE",
"183 220 CURVE SMOOTH",
"183 273 OFFCURVE",
"219 345 OFFCURVE",
"310 345 CURVE",
"363 345 OFFCURVE",
"402 318 OFFCURVE",
"412 275 CURVE",
"399 168 LINE",
"372 124 OFFCURVE",
"335 102 OFFCURVE",
"295 102 CURVE SMOOTH"
);
}
);
userData = {
com.schriftgestaltung.Glyphs.glyph.leftMetricsKey = o;
com.schriftgestaltung.Glyphs.glyph.rightMetricsKey = n;
};
width = 618;
}
);
leftKerningGroup = o;
unicode = 0061;
},
{
glyphname = b;
lastChange = "2021-06-30 03:44:16 +0000";
layers = (
{
anchors = (
{
name = bottom;
position = "{277, 0}";
},
{
name = top;
position = "{327, 408}";
}
);
layerId = master01;
paths = (
{
closed = 1;
nodes = (
"446 -7 OFFCURVE",
"513 103 OFFCURVE",
"513 211 CURVE SMOOTH",
"513 329 OFFCURVE",
"435 402 OFFCURVE",
"324 402 CURVE SMOOTH",
"247 402 OFFCURVE",
"179 363 OFFCURVE",
"143 307 CURVE",
"147 284 LINE",
"205 760 LINE",
"158 760 LINE",
"65 0 LINE",
"112 0 LINE",
"128 136 LINE",
"115 113 LINE",
"140 45 OFFCURVE",
"206 -7 OFFCURVE",
"294 -7 CURVE SMOOTH"
);
},
{
closed = 1;
nodes = (
"171 34 OFFCURVE",
"139 132 OFFCURVE",
"133 175 CURVE",
"142 242 LINE",
"165 313 OFFCURVE",
"231 364 OFFCURVE",
"309 364 CURVE SMOOTH",
"408 364 OFFCURVE",
"464 297 OFFCURVE",
"464 208 CURVE SMOOTH",
"464 134 OFFCURVE",
"422 34 OFFCURVE",
"292 34 CURVE SMOOTH"
);
}
);
userData = {
com.schriftgestaltung.Glyphs.glyph.leftMetricsKey = n;
com.schriftgestaltung.Glyphs.glyph.rightMetricsKey = o;
};
width = 564;
},
{
anchors = (
{
name = bottom;
position = "{268.667, 0}";
},
{
name = top;
position = "{315.333, 380.5}";
}
);
layerId = "E3E5F2BC-81DA-462E-93BE-62096568DC8F";
paths = (
{
closed = 1;
nodes = (
"435.167 -5.333 OFFCURVE",
"489.667 102.167 OFFCURVE",
"489.667 202.667 CURVE SMOOTH",
"489.667 310.667 OFFCURVE",
"417.5 385.333 OFFCURVE",
"305.667 385.333 CURVE SMOOTH",
"228.667 385.333 OFFCURVE",
"158.167 341.333 OFFCURVE",
"123 277 CURVE",
"122 260.667 LINE",
"182.5 751.667 LINE",
"163 751.667 LINE",
"70.833 0 LINE",
"90.333 0 LINE",
"108 151 LINE",
"102.5 130.5 LINE",
"123.333 54.167 OFFCURVE",
"194.333 -5.333 OFFCURVE",
"283.167 -5.333 CURVE SMOOTH"
);
},
{
closed = 1;
nodes = (
"144.333 12.333 OFFCURVE",
"112.333 131.167 OFFCURVE",
"111.333 174.167 CURVE",
"118.667 231.167 LINE",
"141.667 310.5 OFFCURVE",
"216 368.167 OFFCURVE",
"301.5 368.167 CURVE SMOOTH",
"410.5 368.167 OFFCURVE",
"469.833 293.667 OFFCURVE",
"469.833 202.167 CURVE SMOOTH",
"469.833 120.667 OFFCURVE",
"427 12.333 OFFCURVE",
"285.333 12.333 CURVE SMOOTH"
);
}
);
userData = {
com.schriftgestaltung.Glyphs.glyph.leftMetricsKey = n;
com.schriftgestaltung.Glyphs.glyph.rightMetricsKey = o;
};
width = 544;
},
{
anchors = (
{
name = bottom;
position = "{304, 0}";
},
{
name = top;
position = "{365, 500}";
}
);
layerId = "156A42CF-5234-4DDE-A174-0E3EC098A6C5";
paths = (
{
closed = 1;
nodes = (
"483 -12 OFFCURVE",
"589 107 OFFCURVE",
"589 238 CURVE SMOOTH",
"589 390 OFFCURVE",
"492 459 OFFCURVE",
"386 459 CURVE",
"321 459 OFFCURVE",
"268 436 OFFCURVE",
"234 407 CURVE",
"229 362 LINE",
"281 789 LINE",
"142 789 LINE",
"45 0 LINE",
"185 0 LINE",
"196 85 LINE",
"181 55 LINE",
"213 15 OFFCURVE",
"257 -12 OFFCURVE",
"331 -12 CURVE"
);
},
{
closed = 1;
nodes = (
"259 106 OFFCURVE",
"226 134 OFFCURVE",
"207 178 CURVE",
"220 279 LINE",
"242 322 OFFCURVE",
"282 349 OFFCURVE",
"335 349 CURVE",
"401 349 OFFCURVE",
"446 307 OFFCURVE",
"446 229 CURVE SMOOTH",
"446 178 OFFCURVE",
"406 106 OFFCURVE",
"314 106 CURVE"
);
}
);
userData = {
com.schriftgestaltung.Glyphs.glyph.leftMetricsKey = n;
com.schriftgestaltung.Glyphs.glyph.rightMetricsKey = o;
};
width = 626;
}
);
unicode = 0062;
},
{
glyphname = c;
lastChange = "2021-06-30 03:44:16 +0000";
layers = (
{
anchors = (
{
name = bottom;
position = "{191, 0}";
},
{
name = top;
position = "{244, 395}";
}
);
layerId = master01;
paths = (
{
closed = 1;
nodes = (
"350 60 LINE",
"322 42 OFFCURVE",
"290 31 OFFCURVE",
"254 31 CURVE SMOOTH",
"162 31 OFFCURVE",
"98 99 OFFCURVE",
"98 183 CURVE SMOOTH",
"98 281 OFFCURVE",
"178 358 OFFCURVE",
"269 358 CURVE SMOOTH",
"316 358 OFFCURVE",
"357 338 OFFCURVE",
"383 312 CURVE",
"412 343 LINE",
"378 377 OFFCURVE",
"328 398 OFFCURVE",
"266 398 CURVE SMOOTH",
"141 398 OFFCURVE",
"50 294 OFFCURVE",
"50 181 CURVE SMOOTH",
"50 61 OFFCURVE",
"149 -9 OFFCURVE",
"247 -9 CURVE SMOOTH",
"292 -9 OFFCURVE",
"336 5 OFFCURVE",
"372 28 CURVE"
);
}
);
userData = {
com.schriftgestaltung.Glyphs.glyph.leftMetricsKey = o;
};
width = 436;
},
{
anchors = (
{
name = bottom;
position = "{187.667, 0}";
},
{
name = top;
position = "{234.833, 378.333}";
}
);
layerId = "E3E5F2BC-81DA-462E-93BE-62096568DC8F";
paths = (
{
closed = 1;
nodes = (
"346.667 41.667 LINE",
"316.167 22 OFFCURVE",
"281.667 10.167 OFFCURVE",
"243.167 10.167 CURVE SMOOTH",
"145.333 10.167 OFFCURVE",
"74.667 84.833 OFFCURVE",
"74.667 176.333 CURVE SMOOTH",
"74.667 281 OFFCURVE",
"162.167 365.5 OFFCURVE",
"263.167 365.5 CURVE SMOOTH",
"310.167 365.5 OFFCURVE",
"352.833 346.333 OFFCURVE",
"382.167 317.833 CURVE",
"395.333 332.167 LINE",
"363 364.5 OFFCURVE",
"316.333 383 OFFCURVE",
"261.833 383 CURVE SMOOTH",
"149.333 383 OFFCURVE",
"55 289 OFFCURVE",
"55 176 CURVE SMOOTH",
"55 71.833 OFFCURVE",
"135.667 -7.333 OFFCURVE",
"241.167 -7.333 CURVE SMOOTH",
"283.667 -7.333 OFFCURVE",
"323.5 5.833 OFFCURVE",
"357.833 28 CURVE"
);
}
);
userData = {
com.schriftgestaltung.Glyphs.glyph.leftMetricsKey = o;
};
width = 423;
},
{
anchors = (
{
name = bottom;
position = "{204, 0}";
},
{
name = top;
position = "{276, 450}";
}
);
background = {
paths = (
{
closed = 1;
nodes = (
"363 120 LINE",
"344 107 OFFCURVE",
"321 100 OFFCURVE",
"294 100 CURVE SMOOTH",
"222 100 OFFCURVE",
"178 147 OFFCURVE",
"178 207 CURVE SMOOTH",
"178 281 OFFCURVE",
"232 332 OFFCURVE",
"291 332 CURVE SMOOTH",
"339 332 OFFCURVE",
"372 310 OFFCURVE",
"390 293 CURVE",
"469 378 LINE",
"430 417 OFFCURVE",
"371 447 OFFCURVE",
"282 447 CURVE SMOOTH",
"169 447 OFFCURVE",
"56 370 OFFCURVE",
"39 232 CURVE SMOOTH",
"38 220 OFFCURVE",
"37 208 OFFCURVE",
"37 197 CURVE SMOOTH",
"37 72 OFFCURVE",
"121 -5 OFFCURVE",
"258 -13 CURVE SMOOTH",
"314 -16 OFFCURVE",
"379 0 OFFCURVE",
"422 28 CURVE"
);
}
);
};
layerId = "156A42CF-5234-4DDE-A174-0E3EC098A6C5";
paths = (
{
closed = 1;
nodes = (
"363 120 LINE",
"344 107 OFFCURVE",
"321 100 OFFCURVE",
"294 100 CURVE SMOOTH",
"222 100 OFFCURVE",
"178 147 OFFCURVE",
"178 207 CURVE SMOOTH",
"178 281 OFFCURVE",
"232 332 OFFCURVE",
"291 332 CURVE SMOOTH",
"339 332 OFFCURVE",
"372 310 OFFCURVE",
"390 293 CURVE",
"469 378 LINE",
"430 417 OFFCURVE",
"371 447 OFFCURVE",
"282 447 CURVE SMOOTH",
"115 447 OFFCURVE",
"37 312 OFFCURVE",
"37 197 CURVE SMOOTH",
"37 23 OFFCURVE",
"196 -13 OFFCURVE",
"269 -13 CURVE SMOOTH",
"322 -13 OFFCURVE",
"382 2 OFFCURVE",
"422 28 CURVE"
);
}
);
userData = {
com.schriftgestaltung.Glyphs.glyph.leftMetricsKey = o;
};
width = 485;
}
);
leftKerningGroup = o;
unicode = 0063;
},
{
glyphname = ccedilla;
lastChange = "2021-06-30 03:44:16 +0000";
layers = (
{
layerId = master01;
paths = (
{
closed = 1;
nodes = (
"355 68 LINE",
"324 46 OFFCURVE",
"287 33 OFFCURVE",
"247 33 CURVE SMOOTH",
"162 33 OFFCURVE",
"102 97 OFFCURVE",
"102 180 CURVE SMOOTH",
"102 279 OFFCURVE",
"187 360 OFFCURVE",
"288 360 CURVE SMOOTH",
"327 360 OFFCURVE",
"361 347 OFFCURVE",
"386 324 CURVE",
"396 335 OFFCURVE",
"407 345 OFFCURVE",
"417 355 CURVE",
"385 383 OFFCURVE",
"342 400 OFFCURVE",
"292 400 CURVE SMOOTH",
"170 400 OFFCURVE",
"61 298 OFFCURVE",
"61 175 CURVE SMOOTH",
"61 73 OFFCURVE",
"137 -8 OFFCURVE",
"242 -8 CURVE SMOOTH",
"292 -8 OFFCURVE",
"338 9 OFFCURVE",
"377 38 CURVE",
"369 48 OFFCURVE",
"363 58 OFFCURVE",
"355 68 CURVE"
);
},
{
closed = 1;
nodes = (
"243 0 LINE",
"213 0 LINE",
"210 -18 LINE SMOOTH",
"204 -74 OFFCURVE",
"274 -70 OFFCURVE",
"274 -128 CURVE SMOOTH",
"274 -169 OFFCURVE",
"245 -201 OFFCURVE",
"204 -201 CURVE SMOOTH",
"174 -201 OFFCURVE",
"153 -183 OFFCURVE",
"150 -158 CURVE",
"140 -161 OFFCURVE",
"129 -166 OFFCURVE",
"119 -170 CURVE",
"129 -214 OFFCURVE",
"163 -236 OFFCURVE",
"203 -236 CURVE SMOOTH",
"263 -236 OFFCURVE",
"309 -191 OFFCURVE",
"309 -125 CURVE SMOOTH",
"309 -104 OFFCURVE",
"300 -79 OFFCURVE",
"277 -61 CURVE SMOOTH",
"261 -49 OFFCURVE",
"237 -43 OFFCURVE",
"242 -7 CURVE SMOOTH"
);
}
);
width = 403;
},
{
layerId = "E3E5F2BC-81DA-462E-93BE-62096568DC8F";
paths = (
{
closed = 1;
nodes = (
"350 50.5 LINE",
"316.5 26.833 OFFCURVE",
"276.167 12.167 OFFCURVE",
"233.667 12.167 CURVE SMOOTH",
"142.833 12.167 OFFCURVE",
"77 82 OFFCURVE",
"77 171.667 CURVE SMOOTH",
"77 278.167 OFFCURVE",
"171.167 367.5 OFFCURVE",
"278 367.5 CURVE SMOOTH",
"320.333 367.5 OFFCURVE",
"356.833 352.833 OFFCURVE",
"384.333 328.167 CURVE",
"388.5 333.333 OFFCURVE",
"394.5 337.5 OFFCURVE",
"398.667 342.5 CURVE",
"368.333 369.667 OFFCURVE",
"327 385.833 OFFCURVE",
"279.5 385.833 CURVE SMOOTH",
"162.5 385.833 OFFCURVE",
"58.5 287.167 OFFCURVE",
"58.5 169.167 CURVE SMOOTH",
"58.5 70.5 OFFCURVE",
"131.167 -6.333 OFFCURVE",
"232 -6.333 CURVE SMOOTH",
"279.5 -6.333 OFFCURVE",
"323.833 9.833 OFFCURVE",
"361.167 37.167 CURVE",
"357.333 41.333 OFFCURVE",
"353.833 46.333 OFFCURVE",
"350 50.5 CURVE"
);
},
{
closed = 1;
nodes = (
"230.5 0 LINE",
"213 0 LINE",
"210.833 -16.333 LINE SMOOTH",
"204.833 -67.333 OFFCURVE",
"279 -64.167 OFFCURVE",
"279 -128 CURVE SMOOTH",
"279 -173.167 OFFCURVE",
"245 -207.667 OFFCURVE",
"201.5 -207.667 CURVE SMOOTH",
"169 -207.667 OFFCURVE",
"146.333 -188 OFFCURVE",
"142.5 -160.5 CURVE",
"136.667 -161.833 OFFCURVE",
"129.833 -164.333 OFFCURVE",
"124 -165.833 CURVE",
"132.333 -205.667 OFFCURVE",
"163.833 -225.167 OFFCURVE",
"199.667 -225.167 CURVE SMOOTH",
"250.5 -225.167 OFFCURVE",
"297.333 -190.167 OFFCURVE",
"297.333 -122.5 CURVE SMOOTH",
"297.333 -104.833 OFFCURVE",
"288.333 -79 OFFCURVE",
"263.667 -61 CURVE SMOOTH",
"247.667 -49.833 OFFCURVE",
"223.667 -41.333 OFFCURVE",
"229.5 -6.167 CURVE SMOOTH"
);
}
);
width = 383;
},
{
layerId = "156A42CF-5234-4DDE-A174-0E3EC098A6C5";
paths = (
{
closed = 1;
nodes = (
"370 127 LINE",
"349 111 OFFCURVE",
"322 102 OFFCURVE",
"291 102 CURVE SMOOTH",
"225 102 OFFCURVE",
"186 148 OFFCURVE",
"186 206 CURVE SMOOTH",
"186 280 OFFCURVE",
"241 335 OFFCURVE",
"320 335 CURVE SMOOTH",
"350 335 OFFCURVE",
"376 326 OFFCURVE",
"393 311 CURVE",
"422 341 OFFCURVE",
"450 369 OFFCURVE",
"478 398 CURVE",
"440 429 OFFCURVE",
"392 449 OFFCURVE",
"334 449 CURVE SMOOTH",
"194 449 OFFCURVE",
"69 333 OFFCURVE",
"69 196 CURVE SMOOTH",
"69 82 OFFCURVE",
"157 -12 OFFCURVE",
"277 -12 CURVE SMOOTH",
"333 -12 OFFCURVE",
"387 8 OFFCURVE",
"430 39 CURVE",
"409 69 OFFCURVE",
"392 97 OFFCURVE",
"370 127 CURVE"
);
},
{
closed = 1;
nodes = (
"286 0 LINE",
"212 0 LINE",
"209 -25 LINE SMOOTH",
"201 -95 OFFCURVE",
"259 -89 OFFCURVE",
"259 -128 CURVE SMOOTH",
"259 -154 OFFCURVE",
"245 -180 OFFCURVE",
"213 -180 CURVE SMOOTH",
"191 -180 OFFCURVE",
"177 -166 OFFCURVE",
"174 -148 CURVE",
"151 -160 OFFCURVE",
"127 -172 OFFCURVE",
"104 -184 CURVE",
"117 -243 OFFCURVE",
"162 -271 OFFCURVE",
"213 -271 CURVE SMOOTH",
"305 -271 OFFCURVE",
"349 -195 OFFCURVE",
"349 -133 CURVE SMOOTH",
"349 -103 OFFCURVE",
"340 -79 OFFCURVE",
"321 -62 CURVE SMOOTH",
"306 -48 OFFCURVE",
"280 -48 OFFCURVE",
"285 -8 CURVE SMOOTH"
);
}
);
width = 468;
}
);
leftKerningGroup = o;
unicode = 00E7;
},
{
glyphname = d;
lastChange = "2021-06-30 03:44:16 +0000";
layers = (
{
anchors = (
{
name = bottom;
position = "{253, 0}";
},
{
name = center;
position = "{447, 497}";
},
{
name = top;
position = "{287, 408}";
},
{
name = topright;
position = "{586, 667}";
}
);
layerId = master01;
paths = (
{
closed = 1;
nodes = (
"311 -10 OFFCURVE",
"383 32 OFFCURVE",
"424 94 CURVE",
"416 113 LINE",
"402 0 LINE",
"449 0 LINE",
"544 760 LINE",
"496 760 LINE",
"436 269 LINE",
"451 284 LINE",
"427 348 OFFCURVE",
"362 399 OFFCURVE",
"280 403 CURVE SMOOTH",
"157 408 OFFCURVE",
"61 319 OFFCURVE",
"51 201 CURVE SMOOTH",
"41 92 OFFCURVE",
"120 -1 OFFCURVE",
"233 -5 CURVE SMOOTH"
);
},
{
closed = 1;
nodes = (
"154 40 OFFCURVE",
"91 114 OFFCURVE",
"99 206 CURVE SMOOTH",
"109 306 OFFCURVE",
"188 370 OFFCURVE",
"283 364 CURVE SMOOTH",
"364 361 OFFCURVE",
"424 299 OFFCURVE",
"430 224 CURVE",
"424 173 LINE",
"407 89 OFFCURVE",
"330 30 OFFCURVE",
"245 35 CURVE SMOOTH"
);
}
);
userData = {
com.schriftgestaltung.Glyphs.glyph.leftMetricsKey = o;
com.schriftgestaltung.Glyphs.glyph.rightMetricsKey = n;
};
width = 564;
},
{
anchors = (
{
name = bottom;
position = "{233, 0}";
},
{
name = center;
position = "{484.5, 571.167}";
},
{
name = top;
position = "{277, 380.5}";
},
{
name = topright;
position = "{564.333, 717}";
}
);
layerId = "E3E5F2BC-81DA-462E-93BE-62096568DC8F";
paths = (
{
closed = 1;
nodes = (
"311 -9.167 OFFCURVE",
"387.167 37 OFFCURVE",
"424.833 105.667 CURVE",
"423.5 121.333 LINE",
"408.667 0 LINE",
"428.167 0 LINE",
"521.5 751.667 LINE",
"501.833 751.667 LINE",
"438.5 240.667 LINE",
"444.333 251.5 LINE",
"423.667 323 OFFCURVE",
"357.833 381.5 OFFCURVE",
"275.833 386.333 CURVE SMOOTH",
"167.833 393 OFFCURVE",
"70.167 318.167 OFFCURVE",
"56.833 201 CURVE SMOOTH",
"44.333 93.667 OFFCURVE",
"120 2.333 OFFCURVE",
"228.833 -3.333 CURVE SMOOTH"
);
},
{
closed = 1;
nodes = (
"134 20 OFFCURVE",
"65.167 103.167 OFFCURVE",
"76.5 201 CURVE SMOOTH",
"89 307.667 OFFCURVE",
"175.5 375.833 OFFCURVE",
"275.5 369 CURVE SMOOTH",
"364 364.333 OFFCURVE",
"429.833 292.333 OFFCURVE",
"434.167 207.333 CURVE",
"430.667 173.833 LINE",
"417.833 77.333 OFFCURVE",
"329.167 7.5 OFFCURVE",
"231.667 13.333 CURVE SMOOTH"
);
}
);
userData = {
com.schriftgestaltung.Glyphs.glyph.leftMetricsKey = o;
com.schriftgestaltung.Glyphs.glyph.rightMetricsKey = n;
};
width = 547;
},
{
anchors = (
{
name = bottom;
position = "{327, 0}";
},
{
name = center;
position = "{327, 250}";
},
{
name = top;
position = "{327, 500}";
},
{
name = topright;
position = "{664, 500}";
}
);
layerId = "156A42CF-5234-4DDE-A174-0E3EC098A6C5";
paths = (
{
closed = 1;
nodes = (
"312 -12 OFFCURVE",
"356 17 OFFCURVE",
"405 55 CURVE",
"398 85 LINE",
"387 0 LINE",
"527 0 LINE",
"624 789 LINE",
"485 789 LINE",
"433 362 LINE",
"457 394 LINE",
"427 430 OFFCURVE",
"370 459 OFFCURVE",
"300 459 CURVE",
"128 459 OFFCURVE",
"38 322 OFFCURVE",
"38 200 CURVE SMOOTH",
"38 85 OFFCURVE",
"128 -12 OFFCURVE",
"253 -12 CURVE"
);
},
{
closed = 1;
nodes = (
"227 106 OFFCURVE",
"182 151 OFFCURVE",
"182 221 CURVE SMOOTH",
"182 300 OFFCURVE",
"235 349 OFFCURVE",
"314 349 CURVE",
"370 349 OFFCURVE",
"411 322 OFFCURVE",
"422 279 CURVE",
"409 172 LINE",
"379 128 OFFCURVE",
"340 106 OFFCURVE",
"297 106 CURVE"
);
}
);
userData = {
com.schriftgestaltung.Glyphs.glyph.leftMetricsKey = o;
com.schriftgestaltung.Glyphs.glyph.rightMetricsKey = n;
};
width = 626;
}
);
leftKerningGroup = o;
unicode = 0064;
},
{
glyphname = e;
lastChange = "2021-06-30 03:44:16 +0000";
layers = (
{
anchors = (
{
name = bottom;
position = "{223, -5}";
},
{
name = ogonek;
position = "{372, 17}";
},
{
name = top;
position = "{267, 403}";
}
);
layerId = master01;
paths = (
{
closed = 1;
nodes = (
"162 33 OFFCURVE",
"97 101 OFFCURVE",
"97 191 CURVE SMOOTH",
"97 285 OFFCURVE",
"171 363 OFFCURVE",
"268 363 CURVE SMOOTH",
"336 363 OFFCURVE",
"383 316 OFFCURVE",
"401 257 CURVE",
"419 271 LINE",
"88 169 LINE",
"96 133 LINE",
"453 244 LINE",
"431 349 OFFCURVE",
"363 402 OFFCURVE",
"269 402 CURVE SMOOTH",
"139 402 OFFCURVE",
"50 297 OFFCURVE",
"50 186 CURVE SMOOTH",
"50 72 OFFCURVE",
"131 -7 OFFCURVE",
"248 -7 CURVE SMOOTH",
"294 -7 OFFCURVE",
"341 8 OFFCURVE",
"379 34 CURVE",
"359 70 LINE",
"329 47 OFFCURVE",
"291 33 OFFCURVE",
"252 33 CURVE SMOOTH"
);
}
);
userData = {
com.schriftgestaltung.Glyphs.glyph.leftMetricsKey = o;
};
width = 488;
},
{
anchors = (
{
name = bottom;
position = "{213, -0.833}";
},
{
name = ogonek;
position = "{367.833, 12}";
},
{
name = top;
position = "{258.667, 379.667}";
}
);
layerId = "E3E5F2BC-81DA-462E-93BE-62096568DC8F";
paths = (
{
closed = 1;
nodes = (
"138.667 11.333 OFFCURVE",
"74.5 91.833 OFFCURVE",
"74.5 179.333 CURVE SMOOTH",
"74.5 283.333 OFFCURVE",
"161 367.167 OFFCURVE",
"263 367.167 CURVE SMOOTH",
"338.5 367.167 OFFCURVE",
"389.667 314.333 OFFCURVE",
"410.167 251.167 CURVE",
"418.167 260.167 LINE",
"69.667 148.167 LINE",
"73.5 129.667 LINE",
"432.167 247.333 LINE",
"411 328.167 OFFCURVE",
"353.833 385.333 OFFCURVE",
"262.333 385.333 CURVE SMOOTH",
"149 385.333 OFFCURVE",
"55 291.167 OFFCURVE",
"55 176.833 CURVE SMOOTH",
"55 74.5 OFFCURVE",
"131.833 -6.167 OFFCURVE",
"240.5 -6.167 CURVE SMOOTH",
"287.333 -6.167 OFFCURVE",
"332.667 9.667 OFFCURVE",
"369 37.333 CURVE",
"358.167 51.667 LINE",
"326.5 26.167 OFFCURVE",
"285.167 11.333 OFFCURVE",
"242 11.333 CURVE SMOOTH"
);
}
);
userData = {
com.schriftgestaltung.Glyphs.glyph.leftMetricsKey = o;
};
width = 470;
},
{
anchors = (
{
name = bottom;
position = "{263, -20}";
},
{
name = ogonek;
position = "{392, 33}";
},
{
name = top;
position = "{301, 480}";
}
);
layerId = "156A42CF-5234-4DDE-A174-0E3EC098A6C5";
paths = (
{
closed = 1;
nodes = (
"245 107 OFFCURVE",
"179 131 OFFCURVE",
"179 231 CURVE SMOOTH",
"179 289 OFFCURVE",
"211 348 OFFCURVE",
"293 348 CURVE SMOOTH",
"334 348 OFFCURVE",
"368 323 OFFCURVE",
"379 278 CURVE",
"428 293 LINE",
"154 222 LINE",
"176 144 LINE",
"528 231 LINE",
"504 417 OFFCURVE",
"400 457 OFFCURVE",
"298 457 CURVE SMOOTH",
"111 457 OFFCURVE",
"39 318 OFFCURVE",
"39 215 CURVE SMOOTH",
"39 62 OFFCURVE",
"134 -11 OFFCURVE",
"278 -11 CURVE",
"323 -11 OFFCURVE",
"374 2 OFFCURVE",
"418 23 CURVE",
"369 131 LINE",
"343 117 OFFCURVE",
"319 107 OFFCURVE",
"293 107 CURVE SMOOTH"
);
}
);
userData = {
com.schriftgestaltung.Glyphs.glyph.leftMetricsKey = o;
};
width = 555;
}
);
leftKerningGroup = o;
unicode = 0065;
},
{
glyphname = eogonek;
lastChange = "2021-06-30 03:44:16 +0000";
layers = (
{
layerId = master01;
paths = (
{
closed = 1;
nodes = (
"335 -191 OFFCURVE",
"371 -166 OFFCURVE",
"390 -134 CURVE",
"371 -110 LINE",
"354 -136 OFFCURVE",
"332 -155 OFFCURVE",
"305 -155 CURVE",
"279 -154 OFFCURVE",
"254 -133 OFFCURVE",
"255 -98 CURVE",
"255 -58 OFFCURVE",
"284 -23 OFFCURVE",
"335 11 CURVE SMOOTH",
"349 19 OFFCURVE",
"363 27 OFFCURVE",
"379 34 CURVE",
"359 70 LINE",
"329 47 OFFCURVE",
"292 33 OFFCURVE",
"253 33 CURVE SMOOTH",
"162 33 OFFCURVE",
"97 101 OFFCURVE",
"97 191 CURVE SMOOTH",
"97 285 OFFCURVE",
"171 363 OFFCURVE",
"269 363 CURVE SMOOTH",
"336 363 OFFCURVE",
"383 316 OFFCURVE",
"402 257 CURVE",
"419 267 LINE",
"88 165 LINE",
"96 133 LINE",
"453 244 LINE",
"431 349 OFFCURVE",
"363 402 OFFCURVE",
"269 402 CURVE SMOOTH",
"139 402 OFFCURVE",
"50 297 OFFCURVE",
"50 186 CURVE SMOOTH",
"50 72 OFFCURVE",
"131 -7 OFFCURVE",
"248 -7 CURVE SMOOTH",
"276 -5 OFFCURVE",
"305 4 OFFCURVE",
"330 17 CURVE",
"322 38 LINE",
"259 6 OFFCURVE",
"213 -47 OFFCURVE",
"213 -103 CURVE",
"213 -155 OFFCURVE",
"252 -189 OFFCURVE",
"298 -191 CURVE"
);
}
);
width = 476;
},
{
layerId = "E3E5F2BC-81DA-462E-93BE-62096568DC8F";
paths = (
{
closed = 1;
nodes = (
"334.167 -186.833 OFFCURVE",
"362.667 -161.833 OFFCURVE",
"376.667 -133.167 CURVE",
"364.333 -124.167 LINE",
"349.833 -149.333 OFFCURVE",
"328.667 -169.167 OFFCURVE",
"302.5 -169.167 CURVE",
"274.833 -169 OFFCURVE",
"248.167 -145.5 OFFCURVE",
"248.333 -108.833 CURVE",
"248.333 -63.833 OFFCURVE",
"278.167 -23.833 OFFCURVE",
"333.333 15.167 CURVE SMOOTH",
"344.833 23.167 OFFCURVE",
"356.333 30.333 OFFCURVE",
"368.167 37.333 CURVE",
"357.333 51.667 LINE",
"325.667 26.167 OFFCURVE",
"284.5 11.333 OFFCURVE",
"241.333 11.333 CURVE SMOOTH",
"137.833 11.333 OFFCURVE",
"73.667 91.833 OFFCURVE",
"73.667 179.333 CURVE SMOOTH",
"73.667 283.333 OFFCURVE",
"160.167 367.167 OFFCURVE",
"262.333 367.167 CURVE SMOOTH",
"337.667 367.167 OFFCURVE",
"388.833 314.333 OFFCURVE",
"409.5 251.167 CURVE",
"417.333 259.5 LINE",
"68.833 147.5 LINE",
"72.667 129.667 LINE",
"431.333 247.333 LINE",
"410.167 328.167 OFFCURVE",
"353 385.333 OFFCURVE",
"261.5 385.333 CURVE SMOOTH",
"148.167 385.333 OFFCURVE",
"54.167 291.167 OFFCURVE",
"54.167 176.833 CURVE SMOOTH",
"54.167 74.5 OFFCURVE",
"131 -6.167 OFFCURVE",
"239.667 -6.167 CURVE SMOOTH",
"271.833 -5.833 OFFCURVE",
"303.333 2.333 OFFCURVE",
"330.833 16.167 CURVE",
"340.333 36.333 LINE",
"282.333 2.667 OFFCURVE",
"228.833 -47.833 OFFCURVE",
"228.833 -109.667 CURVE",
"228.833 -155.833 OFFCURVE",
"262.833 -186.5 OFFCURVE",
"300.5 -186.833 CURVE"
);
}
);
width = 453;
},
{
layerId = "156A42CF-5234-4DDE-A174-0E3EC098A6C5";
paths = (
{
closed = 1;
nodes = (
"336 -206 OFFCURVE",
"398 -179 OFFCURVE",
"434 -136 CURVE",
"393 -62 LINE",
"367 -93 OFFCURVE",
"342 -108 OFFCURVE",
"315 -106 CURVE",
"292 -105 OFFCURVE",
"272 -90 OFFCURVE",
"276 -61 CURVE SMOOTH",
"279 -37 OFFCURVE",
"303 -19 OFFCURVE",
"340 -3 CURVE SMOOTH",
"361 6 OFFCURVE",
"387 14 OFFCURVE",
"415 23 CURVE",
"366 131 LINE",
"340 117 OFFCURVE",
"316 107 OFFCURVE",
"290 107 CURVE SMOOTH",
"242 107 OFFCURVE",
"176 131 OFFCURVE",
"176 231 CURVE SMOOTH",
"176 289 OFFCURVE",
"208 348 OFFCURVE",
"290 348 CURVE SMOOTH",
"331 348 OFFCURVE",
"365 323 OFFCURVE",
"376 278 CURVE",
"425 293 LINE",
"151 222 LINE",
"173 144 LINE",
"525 231 LINE",
"501 417 OFFCURVE",
"397 457 OFFCURVE",
"295 457 CURVE SMOOTH",
"108 457 OFFCURVE",
"36 318 OFFCURVE",
"36 215 CURVE SMOOTH",
"36 62 OFFCURVE",
"131 -11 OFFCURVE",
"275 -11 CURVE",
"291 -1 OFFCURVE",
"312 10 OFFCURVE",
"328 20 CURVE",
"259 42 LINE",
"180 17 OFFCURVE",
"160 -46 OFFCURVE",
"160 -82 CURVE SMOOTH",
"160 -151 OFFCURVE",
"215 -198 OFFCURVE",
"290 -203 CURVE"
);
}
);
width = 552;
}
);
leftKerningGroup = o;
unicode = 0119;
},
{
glyphname = f;
lastChange = "2021-06-30 03:44:16 +0000";
layers = (
{
anchors = (
{
name = bottom;
position = "{111, 0}";
},
{
name = top;
position = "{266, 695}";
}
);
layerId = master01;
paths = (
{
closed = 1;
nodes = (
"138 0 LINE",
"180 347 LINE",
"311 347 LINE",
"316 390 LINE",
"185 390 LINE",
"210 588 LINE SMOOTH",
"222 690 OFFCURVE",
"255 725 OFFCURVE",
"313 725 CURVE SMOOTH",
"327 725 OFFCURVE",
"338 722 OFFCURVE",
"346 715 CURVE",
"371 749 LINE",
"353 759 OFFCURVE",
"331 764 OFFCURVE",
"313 764 CURVE SMOOTH",
"228 764 OFFCURVE",
"177 712 OFFCURVE",
"162 587 CURVE SMOOTH",
"138 390 LINE",
"71 390 LINE",
"66 347 LINE",
"133 347 LINE",
"91 0 LINE"
);
}
);
width = 324;
},
{
anchors = (
{
name = bottom;
position = "{84.333, 0}";
},
{
name = top;
position = "{285.167, 753.333}";
}
);
layerId = "E3E5F2BC-81DA-462E-93BE-62096568DC8F";
paths = (
{
closed = 1;
nodes = (
"112.167 0 LINE",
"155.833 357 LINE",
"286 357 LINE",
"287.667 375 LINE",
"157.5 375 LINE",
"184.167 588.833 LINE SMOOTH",
"197.833 703.333 OFFCURVE",
"231.667 741.667 OFFCURVE",
"294.667 741.667 CURVE SMOOTH",
"307.833 741.667 OFFCURVE",
"317.167 738.667 OFFCURVE",
"323.5 735 CURVE",
"334.333 749 LINE",
"321.333 754 OFFCURVE",
"307.667 757.333 OFFCURVE",
"294.667 757.333 CURVE SMOOTH",
"222.167 757.333 OFFCURVE",
"179.5 714.5 OFFCURVE",
"163.667 585.333 CURVE SMOOTH",
"138 375 LINE",
"72.667 375 LINE",
"71 357 LINE",
"136.333 357 LINE",
"92.667 0 LINE"
);
}
);
width = 291;
},
{
anchors = (
{
name = bottom;
position = "{201, 0}";
},
{
name = top;
position = "{201, 500}";
}
);
layerId = "156A42CF-5234-4DDE-A174-0E3EC098A6C5";
paths = (
{
closed = 1;
nodes = (
"224 0 LINE",
"262 315 LINE",
"394 315 LINE",
"410 439 LINE",
"278 439 LINE",
"296 587 LINE",
"303 645 OFFCURVE",
"334 671 OFFCURVE",
"374 671 CURVE",
"390 671 OFFCURVE",
"408 666 OFFCURVE",
"420 649 CURVE",
"492 750 LINE",
"460 775 OFFCURVE",
"410 786 OFFCURVE",
"373 786 CURVE",
"248 786 OFFCURVE",
"170 705 OFFCURVE",
"156 591 CURVE",
"138 439 LINE",
"64 439 LINE",
"48 315 LINE",
"122 315 LINE",
"84 0 LINE"
);
}
);
width = 436;
}
);
rightKerningGroup = f;
unicode = 0066;
},
{
glyphname = g;
lastChange = "2021-06-30 03:44:16 +0000";
layers = (
{
anchors = (
{
name = bottom;
position = "{235, -131}";
},
{
name = top;
position = "{304, 408}";
}
);
layerId = master01;
paths = (
{
closed = 1;
nodes = (
"372 -190 OFFCURVE",
"438 -114 OFFCURVE",
"449 -20 CURVE SMOOTH",
"500 391 LINE",
"459 391 LINE",
"435 273 LINE",
"446 290 LINE",
"425 357 OFFCURVE",
"355 402 OFFCURVE",
"267 402 CURVE SMOOTH",
"110 402 OFFCURVE",
"50 265 OFFCURVE",
"50 188 CURVE SMOOTH",
"50 74 OFFCURVE",
"131 -7 OFFCURVE",
"241 -7 CURVE SMOOTH",
"323 -7 OFFCURVE",
"397 36 OFFCURVE",
"428 105 CURVE",
"418 114 LINE",
"402 -13 LINE",
"391 -89 OFFCURVE",
"347 -148 OFFCURVE",
"240 -148 CURVE SMOOTH",
"187 -148 OFFCURVE",
"134 -137 OFFCURVE",
"76 -71 CURVE",
"44 -102 LINE",
"107 -173 OFFCURVE",
"165 -190 OFFCURVE",
"237 -190 CURVE SMOOTH"
);
},
{
closed = 1;
nodes = (
"140 363 OFFCURVE",
"275 363 CURVE SMOOTH",
"360 363 OFFCURVE",
"425 303 OFFCURVE",
"432 225 CURVE",
"425 167 LINE",
"409 92 OFFCURVE",
"336 33 OFFCURVE",
"254 33 CURVE SMOOTH",
"162 33 OFFCURVE",
"98 100 OFFCURVE",
"98 188 CURVE SMOOTH",
"98 248 OFFCURVE"
);
}
);
userData = {
com.schriftgestaltung.Glyphs.glyph.leftMetricsKey = o;
com.schriftgestaltung.Glyphs.glyph.rightMetricsKey = n;
};
width = 565;
},
{
anchors = (
{
name = bottom;
position = "{220, -170.167}";
},
{
name = top;
position = "{295.667, 380.5}";
}
);
layerId = "E3E5F2BC-81DA-462E-93BE-62096568DC8F";
paths = (
{
closed = 1;
nodes = (
"366.167 -180.833 OFFCURVE",
"415.5 -102.333 OFFCURVE",
"425.667 -19.167 CURVE SMOOTH",
"475 377.667 LINE",
"459.833 377.667 LINE",
"437.5 245.5 LINE",
"441 255.833 LINE",
"420 331.167 OFFCURVE",
"349.167 385.333 OFFCURVE",
"261.167 385.333 CURVE SMOOTH",
"109.167 385.333 OFFCURVE",
"55 250 OFFCURVE",
"55 178.833 CURVE SMOOTH",
"55 75.667 OFFCURVE",
"132.667 -5.333 OFFCURVE",
"239.333 -5.333 CURVE SMOOTH",
"318 -5.333 OFFCURVE",
"393.667 41.833 OFFCURVE",
"428.833 114.167 CURVE",
"423 119 LINE",
"405.333 -17.167 LINE",
"393.5 -96.5 OFFCURVE",
"352 -163 OFFCURVE",
"230 -163 CURVE SMOOTH",
"183.667 -163 OFFCURVE",
"127.333 -158.667 OFFCURVE",
"60.167 -81 CURVE",
"47.333 -92.833 LINE",
"116.167 -173.833 OFFCURVE",
"175 -180.833 OFFCURVE",
"230.333 -180.833 CURVE SMOOTH"
);
},
{
closed = 1;
nodes = (
"118.333 368 OFFCURVE",
"263.333 368 CURVE SMOOTH",
"356.667 368 OFFCURVE",
"429.167 298 OFFCURVE",
"434.5 210 CURVE",
"429.167 167 LINE",
"417.333 82.833 OFFCURVE",
"335.167 12.167 OFFCURVE",
"241.5 12.167 CURVE SMOOTH",
"144.5 12.167 OFFCURVE",
"74.667 87.5 OFFCURVE",
"74.667 178.833 CURVE SMOOTH",
"74.667 241.333 OFFCURVE"
);
}
);
userData = {
com.schriftgestaltung.Glyphs.glyph.leftMetricsKey = o;
com.schriftgestaltung.Glyphs.glyph.rightMetricsKey = n;
};
width = 546;
},
{
anchors = (
{
name = bottom;
position = "{290, 0}";
},
{
name = top;
position = "{340, 500}";
}
);
layerId = "156A42CF-5234-4DDE-A174-0E3EC098A6C5";
paths = (
{
closed = 1;
nodes = (
"400 -220 OFFCURVE",
"519 -151 OFFCURVE",
"533 -23 CURVE",
"591 437 LINE",
"462 437 LINE",
"438 381 LINE",
"449 402 LINE",
"425 434 OFFCURVE",
"371 459 OFFCURVE",
"294 459 CURVE",
"121 459 OFFCURVE",
"39 315 OFFCURVE",
"39 217 CURVE SMOOTH",
"39 69 OFFCURVE",
"132 -12 OFFCURVE",
"253 -12 CURVE",
"335 -12 OFFCURVE",
"389 28 OFFCURVE",
"413 73 CURVE",
"409 98 LINE",
"398 2 LINE",
"391 -64 OFFCURVE",
"337 -98 OFFCURVE",
"280 -98 CURVE",
"203 -98 OFFCURVE",
"164 -66 OFFCURVE",
"134 -38 CURVE",
"40 -134 LINE",
"83 -170 OFFCURVE",
"138 -220 OFFCURVE",
"267 -220 CURVE"
);
},
{
closed = 1;
nodes = (
"220 345 OFFCURVE",
"319 345 CURVE",
"376 345 OFFCURVE",
"417 318 OFFCURVE",
"431 275 CURVE",
"418 168 LINE",
"388 124 OFFCURVE",
"346 102 OFFCURVE",
"302 102 CURVE",
"227 102 OFFCURVE",
"182 143 OFFCURVE",
"182 217 CURVE SMOOTH",
"182 270 OFFCURVE"
);
}
);
userData = {
com.schriftgestaltung.Glyphs.glyph.leftMetricsKey = o;
com.schriftgestaltung.Glyphs.glyph.rightMetricsKey = n;
};
width = 636;
}
);
leftKerningGroup = o;
unicode = 0067;
},
{
glyphname = gcommaaccent;
lastChange = "2021-06-30 03:44:16 +0000";
layers = (
{
anchors = (
{
name = bottom;
position = "{346, 629}";
},
{
name = top;
position = "{304, 408}";
}
);
components = (
{
name = g;
}
);
layerId = master01;
paths = (
{
closed = 1;
nodes = (
"306 572 OFFCURVE",
"285 509 OFFCURVE",
"288 455 CURVE",
"332 454 LINE",
"330 509 OFFCURVE",
"348 557 OFFCURVE",
"386 582 CURVE",
"363 601 LINE"
);
}
);
width = 565;
},
{
anchors = (
{
name = bottom;
position = "{333.5, 589.167}";
},
{
name = top;
position = "{295.667, 380.5}";
}
);
components = (
{
name = g;
}
);
layerId = "E3E5F2BC-81DA-462E-93BE-62096568DC8F";
paths = (
{
closed = 1;
nodes = (
"307.666 538 OFFCURVE",
"291.666 481.667 OFFCURVE",
"291.333 429.334 CURVE",
"312.833 428.334 LINE",
"312.5 485 OFFCURVE",
"332.166 529.667 OFFCURVE",
"372.666 553.834 CURVE",
"363.833 563.667 LINE"
);
}
);
width = 546;
},
{
anchors = (
{
name = bottom;
position = "{395, 762}";
},
{
name = top;
position = "{340, 500}";
}
);
components = (
{
name = g;
}
);
layerId = "156A42CF-5234-4DDE-A174-0E3EC098A6C5";
paths = (
{
closed = 1;
nodes = (
"307 687 OFFCURVE",
"271 599 OFFCURVE",
"282 542 CURVE",
"404 541 LINE",
"395 588 OFFCURVE",
"409 650 OFFCURVE",
"438 678 CURVE",
"366 726 LINE"
);
}
);
width = 636;
}
);
leftKerningGroup = o;
unicode = 0123;
},
{
glyphname = h;
lastChange = "2021-06-30 03:44:16 +0000";
layers = (
{
anchors = (
{
name = bottom;
position = "{236, 0}";
},
{
name = center;
position = "{160, 586}";
},
{
name = top;
position = "{174, 647}";
}
);
layerId = master01;
paths = (
{
closed = 1;
nodes = (
"147 289 LINE",
"205 760 LINE",
"158 760 LINE",
"65 0 LINE",
"112 0 LINE",
"138 209 LINE SMOOTH",
"149 297 OFFCURVE",
"225 360 OFFCURVE",
"309 360 CURVE",
"363 358 OFFCURVE",
"389 322 OFFCURVE",
"385 276 CURVE",
"352 0 LINE",
"399 0 LINE",
"434 285 LINE",
"440 354 OFFCURVE",
"398 402 OFFCURVE",
"324 402 CURVE SMOOTH",
"246 402 OFFCURVE",
"179 361 OFFCURVE",
"145 305 CURVE"
);
}
);
userData = {
com.schriftgestaltung.Glyphs.glyph.leftMetricsKey = n;
com.schriftgestaltung.Glyphs.glyph.rightMetricsKey = n;
};
width = 512;
},
{
anchors = (
{
name = bottom;
position = "{221, 0}";
},
{
name = center;
position = "{151.667, 573.5}";
},
{
name = top;
position = "{165.667, 617.833}";
}
);
layerId = "E3E5F2BC-81DA-462E-93BE-62096568DC8F";
paths = (
{
closed = 1;
nodes = (
"124.5 277.333 LINE",
"182.5 751.667 LINE",
"163 751.667 LINE",
"70.833 0 LINE",
"90.333 0 LINE",
"117.167 218.167 LINE SMOOTH",
"128.167 304.5 OFFCURVE",
"212.5 366.667 OFFCURVE",
"301.5 366.667 CURVE",
"358.833 363.833 OFFCURVE",
"388.167 324.5 OFFCURVE",
"384.167 276.833 CURVE",
"350.333 0 LINE",
"369.833 0 LINE",
"403.167 272.5 LINE",
"409.167 339 OFFCURVE",
"370.5 385.333 OFFCURVE",
"299.833 385.333 CURVE SMOOTH",
"224.333 385.333 OFFCURVE",
"154.833 342.667 OFFCURVE",
"123.333 286.667 CURVE"
);
}
);
userData = {
com.schriftgestaltung.Glyphs.glyph.leftMetricsKey = n;
com.schriftgestaltung.Glyphs.glyph.rightMetricsKey = n;
};
width = 487;
},
{
anchors = (
{
name = bottom;
position = "{286, 0}";
},
{
name = center;
position = "{186, 626}";
},
{
name = top;
position = "{200, 745}";
}
);
layerId = "156A42CF-5234-4DDE-A174-0E3EC098A6C5";
paths = (
{
closed = 1;
nodes = (
"225 341 LINE",
"279 789 LINE",
"142 789 LINE",
"46 0 LINE",
"186 0 LINE",
"208 178 LINE",
"219 271 OFFCURVE",
"268 339 OFFCURVE",
"333 339 CURVE",
"378 339 OFFCURVE",
"392 314 OFFCURVE",
"389 275 CURVE",
"356 0 LINE",
"496 0 LINE",
"536 327 LINE",
"543 404 OFFCURVE",
"488 458 OFFCURVE",
"406 458 CURVE",
"325 458 OFFCURVE",
"261 421 OFFCURVE",
"224 366 CURVE"
);
}
);
userData = {
com.schriftgestaltung.Glyphs.glyph.leftMetricsKey = n;
com.schriftgestaltung.Glyphs.glyph.rightMetricsKey = n;
};
width = 595;
}
);
unicode = 0068;
},
{
glyphname = iogonek;
lastChange = "2021-06-30 03:44:16 +0000";
layers = (
{
components = (
{
name = dotaccentcomb;
transform = "{1, 0, 0, 1, -6, -11}";
}
);
layerId = master01;
paths = (
{
closed = 1;
nodes = (
"102 -198 OFFCURVE",
"138 -172 OFFCURVE",
"157 -140 CURVE",
"138 -116 LINE",
"121 -143 OFFCURVE",
"99 -161 OFFCURVE",
"73 -161 CURVE",
"46 -160 OFFCURVE",
"21 -140 OFFCURVE",
"22 -104 CURVE",
"23 -65 OFFCURVE",
"58 -31 OFFCURVE",
"118 1 CURVE",
"165 391 LINE",
"118 391 LINE",
"70 0 LINE",
"108 5 LINE",
"79 14 LINE",
"20 -13 OFFCURVE",
"-20 -63 OFFCURVE",
"-20 -110 CURVE",
"-20 -161 OFFCURVE",
"19 -195 OFFCURVE",
"66 -197 CURVE"
);
}
);
width = 201;
},
{
components = (
{
name = dotaccentcomb;
transform = "{1, 0, 0, 1, 1.5, -1.833}";
}
);
layerId = "E3E5F2BC-81DA-462E-93BE-62096568DC8F";
paths = (
{
closed = 1;
nodes = (
"93.667 -186.333 OFFCURVE",
"122.167 -161.167 OFFCURVE",
"136.167 -132.5 CURVE",
"123.833 -123.5 LINE",
"109.333 -148.833 OFFCURVE",
"88.167 -168.5 OFFCURVE",
"62.167 -168.5 CURVE",
"34.333 -168.333 OFFCURVE",
"7.667 -145 OFFCURVE",
"7.833 -108.167 CURVE",
"8 -69.167 OFFCURVE",
"40.5 -32.667 OFFCURVE",
"98.833 1 CURVE",
"144.167 377.667 LINE",
"124.667 377.667 LINE",
"78.333 0 LINE",
"88.833 6.667 LINE",
"87.333 14 LINE",
"34.167 -13 OFFCURVE",
"-11.667 -58.833 OFFCURVE",
"-11.667 -109.167 CURVE",
"-11.667 -155.167 OFFCURVE",
"22.333 -185.833 OFFCURVE",
"60.167 -186.167 CURVE"
);
}
);
userData = {
com.schriftgestaltung.componentsAlignment = (
-1
);
};
width = 179;
},
{
components = (
{
name = dotaccentcomb;
transform = "{1, 0, 0, 1, -32, -40}";
}
);
layerId = "156A42CF-5234-4DDE-A174-0E3EC098A6C5";
paths = (
{
closed = 1;
nodes = (
"130 -235 OFFCURVE",
"192 -208 OFFCURVE",
"228 -165 CURVE",
"187 -91 LINE",
"161 -122 OFFCURVE",
"136 -137 OFFCURVE",
"109 -135 CURVE",
"86 -134 OFFCURVE",
"66 -124 OFFCURVE",
"70 -90 CURVE SMOOTH",
"74 -51 OFFCURVE",
"117 -26 OFFCURVE",
"181 0 CURVE",
"235 437 LINE",
"95 437 LINE",
"41 0 LINE",
"171 0 LINE",
"53 13 LINE",
"-26 -12 OFFCURVE",
"-46 -75 OFFCURVE",
"-46 -111 CURVE SMOOTH",
"-46 -180 OFFCURVE",
"9 -227 OFFCURVE",
"84 -232 CURVE"
);
}
);
width = 276;
}
);
unicode = 012F;
},
{
glyphname = k;
lastChange = "2021-06-30 03:44:16 +0000";
layers = (
{
anchors = (
{
name = bottom;
position = "{203, 0}";
},
{
name = top;
position = "{252, 391}";
}
);
layerId = master01;
paths = (
{
closed = 1;
nodes = (
"112 0 LINE",
"206 760 LINE",
"158 760 LINE",
"65 0 LINE"
);
},
{
closed = 1;
nodes = (
"197 228 LINE",
"329 0 LINE",
"384 0 LINE",
"233 254 LINE"
);
},
{
closed = 1;
nodes = (
"406 374 LINE",
"374 399 LINE",
"109 189 LINE",
"113 142 LINE"
);
}
);
userData = {
com.schriftgestaltung.Glyphs.glyph.leftMetricsKey = n;
};
width = 451;
},
{
anchors = (
{
name = bottom;
position = "{188.833, 0}";
},
{
name = top;
position = "{235.333, 377.667}";
}
);
layerId = "E3E5F2BC-81DA-462E-93BE-62096568DC8F";
paths = (
{
closed = 1;
nodes = (
"90.333 0 LINE",
"182.667 751.667 LINE",
"163 751.667 LINE",
"70.833 0 LINE"
);
},
{
closed = 1;
nodes = (
"187 231.333 LINE",
"328.167 0 LINE",
"350.667 0 LINE",
"203 241.5 LINE"
);
},
{
closed = 1;
nodes = (
"371 374 LINE",
"358.167 384.833 LINE",
"100.667 169.833 LINE",
"99.667 147.833 LINE"
);
}
);
userData = {
com.schriftgestaltung.Glyphs.glyph.leftMetricsKey = n;
};
width = 423;
},
{
anchors = (
{
name = bottom;
position = "{252, 0}";
},
{
name = top;
position = "{306, 437}";
}
);
layerId = "156A42CF-5234-4DDE-A174-0E3EC098A6C5";
paths = (
{
closed = 1;
nodes = (
"186 0 LINE",
"282 789 LINE",
"142 789 LINE",
"46 0 LINE"
);
},
{
closed = 1;
nodes = (
"231 217 LINE",
"332 0 LINE",
"495 0 LINE",
"333 297 LINE"
);
},
{
closed = 1;
nodes = (
"524 373 LINE",
"449 448 LINE",
"161 254 LINE",
"159 121 LINE"
);
}
);
userData = {
com.schriftgestaltung.Glyphs.glyph.leftMetricsKey = n;
};
width = 547;
}
);
rightKerningGroup = k;
unicode = 006B;
},
{
glyphname = l;
lastChange = "2021-06-30 03:44:16 +0000";
layers = (
{
anchors = (
{
name = bottom;
position = "{90, 0}";
},
{
name = center;
position = "{114, 220}";
},
{
name = top;
position = "{174, 757}";
},
{
name = topright;
position = "{277, 746}";
}
);
layerId = master01;
paths = (
{
closed = 1;
nodes = (
"65 0 LINE",
"112 0 LINE",
"206 760 LINE",
"158 760 LINE"
);
}
);
userData = {
com.schriftgestaltung.Glyphs.glyph.leftMetricsKey = n;
com.schriftgestaltung.Glyphs.glyph.rightMetricsKey = n;
};
width = 226;
},
{
anchors = (
{
name = bottom;
position = "{80.833, 0}";
},
{
name = center;
position = "{104, 193.333}";
},
{
name = top;
position = "{165.667, 751.167}";
},
{
name = topright;
position = "{255.333, 749.333}";
}
);
layerId = "E3E5F2BC-81DA-462E-93BE-62096568DC8F";
paths = (
{
closed = 1;
nodes = (
"70.833 0 LINE",
"90.333 0 LINE",
"182.667 751.667 LINE",
"163 751.667 LINE"
);
}
);
userData = {
com.schriftgestaltung.Glyphs.glyph.leftMetricsKey = n;
com.schriftgestaltung.Glyphs.glyph.rightMetricsKey = n;
};
width = 208;
},
{
anchors = (
{
name = bottom;
position = "{120, 0}";
},
{
name = center;
position = "{147, 309}";
},
{
name = top;
position = "{203, 776}";
},
{
name = topright;
position = "{350, 736}";
}
);
layerId = "156A42CF-5234-4DDE-A174-0E3EC098A6C5";
paths = (
{
closed = 1;
nodes = (
"46 0 LINE",
"186 0 LINE",
"282 789 LINE",
"142 789 LINE"
);
}
);
userData = {
com.schriftgestaltung.Glyphs.glyph.leftMetricsKey = n;
com.schriftgestaltung.Glyphs.glyph.rightMetricsKey = n;
};
width = 285;
}
);
unicode = 006C;
},
{
glyphname = m;
lastChange = "2021-06-30 03:44:16 +0000";
layers = (
{
anchors = (
{
name = bottom;
position = "{386, 0}";
},
{
name = top;
position = "{419, 408}";
}
);
layerId = master01;
paths = (
{
closed = 1;
nodes = (
"113 391 LINE",
"65 0 LINE",
"112 0 LINE",
"138 210 LINE SMOOTH",
"149 293 OFFCURVE",
"224 360 OFFCURVE",
"307 360 CURVE",
"360 357 OFFCURVE",
"384 321 OFFCURVE",
"380 275 CURVE",
"346 0 LINE",
"394 0 LINE",
"420 214 LINE",
"433 295 OFFCURVE",
"506 360 OFFCURVE",
"589 360 CURVE",
"642 357 OFFCURVE",
"665 321 OFFCURVE",
"661 275 CURVE",
"627 0 LINE",
"675 0 LINE",
"709 285 LINE",
"716 354 OFFCURVE",
"675 402 OFFCURVE",
"601 402 CURVE SMOOTH",
"530 402 OFFCURVE",
"465 365 OFFCURVE",
"426 308 CURVE",
"430 312 LINE",
"425 368 OFFCURVE",
"386 402 OFFCURVE",
"322 402 CURVE SMOOTH",
"246 402 OFFCURVE",
"180 363 OFFCURVE",
"142 303 CURVE",
"146 286 LINE",
"154 391 LINE"
);
}
);
userData = {
com.schriftgestaltung.Glyphs.glyph.leftMetricsKey = n;
com.schriftgestaltung.Glyphs.glyph.rightMetricsKey = n;
};
width = 788;
},
{
anchors = (
{
name = bottom;
position = "{361.833, 0}";
},
{
name = top;
position = "{405.667, 380.5}";
}
);
layerId = "E3E5F2BC-81DA-462E-93BE-62096568DC8F";
paths = (
{
closed = 1;
nodes = (
"117.167 377.667 LINE",
"70.833 0 LINE",
"90.333 0 LINE",
"117.167 218.333 LINE SMOOTH",
"128.167 303.833 OFFCURVE",
"212.333 366.667 OFFCURVE",
"301.167 366.667 CURVE",
"358.333 363.667 OFFCURVE",
"387.333 324.333 OFFCURVE",
"383.333 276.667 CURVE",
"349.333 0 LINE",
"369 0 LINE",
"396.667 224 LINE",
"410.5 306.667 OFFCURVE",
"492.667 366.667 OFFCURVE",
"579.833 366.667 CURVE",
"637 363.667 OFFCURVE",
"665.833 324.333 OFFCURVE",
"661.833 276.667 CURVE",
"627.833 0 LINE",
"647.5 0 LINE",
"682.333 278.333 LINE SMOOTH",
"689.333 339 OFFCURVE",
"648.333 385.333 OFFCURVE",
"577.667 385.333 CURVE SMOOTH",
"505 385.333 OFFCURVE",
"438.333 345 OFFCURVE",
"402.667 286.333 CURVE",
"404.167 285.333 LINE",
"409.167 342.167 OFFCURVE",
"363.5 385.333 OFFCURVE",
"299.5 385.333 CURVE SMOOTH",
"224.333 385.333 OFFCURVE",
"156.667 343 OFFCURVE",
"121.167 281.333 CURVE",
"121.833 271.833 LINE",
"132.333 377.667 LINE"
);
}
);
userData = {
com.schriftgestaltung.Glyphs.glyph.leftMetricsKey = n;
com.schriftgestaltung.Glyphs.glyph.rightMetricsKey = n;
};
width = 766;
},
{
anchors = (
{
name = bottom;
position = "{465, 0}";
},
{
name = top;
position = "{465, 500}";
}
);
layerId = "156A42CF-5234-4DDE-A174-0E3EC098A6C5";
paths = (
{
closed = 1;
nodes = (
"99 437 LINE",
"46 0 LINE",
"186 0 LINE",
"208 181 LINE",
"217 257 OFFCURVE",
"262 338 OFFCURVE",
"328 338 CURVE",
"367 335 OFFCURVE",
"372 309 OFFCURVE",
"369 270 CURVE",
"336 0 LINE",
"476 0 LINE",
"498 179 LINE",
"507 257 OFFCURVE",
"552 338 OFFCURVE",
"621 338 CURVE",
"659 335 OFFCURVE",
"662 309 OFFCURVE",
"659 270 CURVE",
"626 0 LINE",
"765 0 LINE",
"805 328 LINE",
"813 405 OFFCURVE",
"765 459 OFFCURVE",
"678 459 CURVE",
"620 459 OFFCURVE",
"561 421 OFFCURVE",
"518 371 CURVE",
"520 372 LINE",
"513 433 OFFCURVE",
"468 459 OFFCURVE",
"397 459 CURVE",
"324 459 OFFCURVE",
"267 425 OFFCURVE",
"226 366 CURVE",
"228 352 LINE",
"226 437 LINE"
);
}
);
userData = {
com.schriftgestaltung.Glyphs.glyph.leftMetricsKey = n;
com.schriftgestaltung.Glyphs.glyph.rightMetricsKey = n;
};
width = 864;
}
);
leftKerningGroup = n;
unicode = 006D;
},
{
glyphname = n;
lastChange = "2021-06-30 03:44:16 +0000";
layers = (
{
anchors = (
{
name = bottom;
position = "{232, 0}";
},
{
name = top;
position = "{282, 408}";
}
);
layerId = master01;
paths = (
{
closed = 1;
nodes = (
"113 391 LINE",
"65 0 LINE",
"112 0 LINE",
"138 209 LINE SMOOTH",
"148 297 OFFCURVE",
"219 360 OFFCURVE",
"301 360 CURVE SMOOTH",
"360 360 OFFCURVE",
"391 324 OFFCURVE",
"385 273 CURVE SMOOTH",
"352 0 LINE",
"399 0 LINE",
"434 285 LINE SMOOTH",
"442 355 OFFCURVE",
"398 402 OFFCURVE",
"320 402 CURVE SMOOTH",
"240 402 OFFCURVE",
"174 361 OFFCURVE",
"140 301 CURVE",
"149 291 LINE",
"154 391 LINE"
);
}
);
width = 512;
},
{
anchors = (
{
name = bottom;
position = "{220.333, 0}";
},
{
name = top;
position = "{267, 380.5}";
}
);
layerId = "E3E5F2BC-81DA-462E-93BE-62096568DC8F";
paths = (
{
closed = 1;
nodes = (
"117.167 377.667 LINE",
"70.833 0 LINE",
"90.333 0 LINE",
"117.167 218.167 LINE SMOOTH",
"127.167 304.5 OFFCURVE",
"204.833 366.667 OFFCURVE",
"291 366.667 CURVE SMOOTH",
"355 366.667 OFFCURVE",
"391 327.333 OFFCURVE",
"383.333 272.167 CURVE SMOOTH",
"350.333 0 LINE",
"369.833 0 LINE",
"403.167 272.5 LINE SMOOTH",
"412 340 OFFCURVE",
"370.5 385.333 OFFCURVE",
"294.167 385.333 CURVE SMOOTH",
"216.667 385.333 OFFCURVE",
"152.333 342.667 OFFCURVE",
"120 281 CURVE",
"124.833 273.5 LINE",
"132.333 377.667 LINE"
);
}
);
width = 487;
},
{
anchors = (
{
name = bottom;
position = "{271, 0}";
},
{
name = top;
position = "{333, 500}";
}
);
layerId = "156A42CF-5234-4DDE-A174-0E3EC098A6C5";
paths = (
{
closed = 1;
nodes = (
"99 437 LINE",
"46 0 LINE",
"186 0 LINE",
"208 178 LINE",
"219 271 OFFCURVE",
"268 339 OFFCURVE",
"333 339 CURVE",
"378 339 OFFCURVE",
"392 314 OFFCURVE",
"390 275 CURVE",
"356 0 LINE",
"496 0 LINE",
"536 327 LINE",
"543 404 OFFCURVE",
"488 458 OFFCURVE",
"406 458 CURVE",
"325 458 OFFCURVE",
"261 421 OFFCURVE",
"224 366 CURVE",
"229 350 LINE",
"226 437 LINE"
);
}
);
width = 595;
}
);
leftKerningGroup = n;
rightKerningGroup = n;
unicode = 006E;
},
{
glyphname = o;
lastChange = "2021-06-30 03:44:16 +0000";
layers = (
{
anchors = (
{
name = bottom;
position = "{232, 0}";
},
{
name = center;
position = "{249, 204}";
},
{
name = ogonek;
position = "{306, -1}";
},
{
name = top;
position = "{271, 395}";
},
{
name = topright;
position = "{359, 365}";
}
);
layerId = master01;
paths = (
{
closed = 1;
nodes = (
"406 -8 OFFCURVE",
"468 117 OFFCURVE",
"468 212 CURVE SMOOTH",
"468 325 OFFCURVE",
"379 402 OFFCURVE",
"270 402 CURVE SMOOTH",
"116 402 OFFCURVE",
"50 283 OFFCURVE",
"50 183 CURVE SMOOTH",
"50 66 OFFCURVE",
"143 -8 OFFCURVE",
"248 -8 CURVE SMOOTH"
);
},
{
closed = 1;
nodes = (
"167 32 OFFCURVE",
"98 94 OFFCURVE",
"98 185 CURVE SMOOTH",
"98 269 OFFCURVE",
"151 362 OFFCURVE",
"268 362 CURVE SMOOTH",
"349 362 OFFCURVE",
"420 302 OFFCURVE",
"420 209 CURVE SMOOTH",
"420 126 OFFCURVE",
"368 32 OFFCURVE",
"250 32 CURVE SMOOTH"
);
}
);
width = 519;
},
{
anchors = (
{
name = bottom;
position = "{219.5, 0}";
},
{
name = center;
position = "{241.5, 190.667}";
},
{
name = ogonek;
position = "{276, -4.333}";
},
{
name = top;
position = "{264.333, 378.333}";
},
{
name = topright;
position = "{334.833, 371.667}";
}
);
layerId = "E3E5F2BC-81DA-462E-93BE-62096568DC8F";
paths = (
{
closed = 1;
nodes = (
"382.667 -6.333 OFFCURVE",
"448 105.333 OFFCURVE",
"448 202.833 CURVE SMOOTH",
"448 307.5 OFFCURVE",
"369.833 385.333 OFFCURVE",
"263.333 385.333 CURVE SMOOTH",
"121 385.333 OFFCURVE",
"55 274.667 OFFCURVE",
"55 176.333 CURVE SMOOTH",
"55 71 OFFCURVE",
"133.833 -6.333 OFFCURVE",
"239.667 -6.333 CURVE SMOOTH"
);
},
{
closed = 1;
nodes = (
"144.5 11.167 OFFCURVE",
"74.667 85.667 OFFCURVE",
"74.667 177.5 CURVE SMOOTH",
"74.667 269.833 OFFCURVE",
"134.333 367.833 OFFCURVE",
"262.167 367.833 CURVE SMOOTH",
"358.167 367.833 OFFCURVE",
"428.333 293.667 OFFCURVE",
"428.333 201.5 CURVE SMOOTH",
"428.333 109.333 OFFCURVE",
"368.833 11.167 OFFCURVE",
"240.833 11.167 CURVE SMOOTH"
);
}
);
width = 502;
},
{
anchors = (
{
name = bottom;
position = "{278, 0}";
},
{
name = center;
position = "{278, 250}";
},
{
name = ogonek;
position = "{409, 10}";
},
{
name = top;
position = "{298, 450}";
},
{
name = topright;
position = "{441, 343}";
}
);
layerId = "156A42CF-5234-4DDE-A174-0E3EC098A6C5";
paths = (
{
closed = 1;
nodes = (
"486 -12 OFFCURVE",
"536 156 OFFCURVE",
"536 241 CURVE SMOOTH",
"536 382 OFFCURVE",
"414 457 OFFCURVE",
"297 457 CURVE SMOOTH",
"104 457 OFFCURVE",
"38 311 OFFCURVE",
"38 204 CURVE SMOOTH",
"38 51 OFFCURVE",
"176 -12 OFFCURVE",
"279 -12 CURVE SMOOTH"
);
},
{
closed = 1;
nodes = (
"246 103 OFFCURVE",
"179 121 OFFCURVE",
"179 211 CURVE SMOOTH",
"179 265 OFFCURVE",
"210 343 OFFCURVE",
"292 343 CURVE SMOOTH",
"322 343 OFFCURVE",
"394 329 OFFCURVE",
"394 235 CURVE SMOOTH",
"394 183 OFFCURVE",
"368 103 OFFCURVE",
"283 103 CURVE SMOOTH"
);
}
);
width = 573;
}
);
leftKerningGroup = o;
rightKerningGroup = o;
unicode = 006F;
},
{
glyphname = ohorn;
lastChange = "2021-06-30 03:44:16 +0000";
layers = (
{
anchors = (
{
name = bottom;
position = "{232, 0}";
},
{
name = center;
position = "{249, 204}";
},
{
name = ogonek;
position = "{306, -1}";
},
{
name = top;
position = "{271, 395}";
},
{
name = topright;
position = "{358, 330}";
}
);
layerId = master01;
paths = (
{
closed = 1;
nodes = (
"406 -8 OFFCURVE",
"468 117 OFFCURVE",
"468 212 CURVE SMOOTH",
"468 325 OFFCURVE",
"379 402 OFFCURVE",
"270 402 CURVE SMOOTH",
"116 402 OFFCURVE",
"50 283 OFFCURVE",
"50 183 CURVE SMOOTH",
"50 66 OFFCURVE",
"143 -8 OFFCURVE",
"248 -8 CURVE SMOOTH"
);
},
{
closed = 1;
nodes = (
"167 32 OFFCURVE",
"98 94 OFFCURVE",
"98 185 CURVE SMOOTH",
"98 269 OFFCURVE",
"151 362 OFFCURVE",
"268 362 CURVE SMOOTH",
"349 362 OFFCURVE",
"420 302 OFFCURVE",
"420 209 CURVE SMOOTH",
"420 126 OFFCURVE",
"368 32 OFFCURVE",
"250 32 CURVE SMOOTH"
);
},
{
closed = 1;
nodes = (
"413 295 LINE",
"465 291 OFFCURVE",
"508 306 OFFCURVE",
"523 405 CURVE",
"486 406 LINE",
"477 343 OFFCURVE",
"454 323 OFFCURVE",
"417 327 CURVE"
);
}
);
width = 530;
},
{
anchors = (
{
name = bottom;
position = "{219.5, 0}";
},
{
name = center;
position = "{241.5, 190.667}";
},
{
name = ogonek;
position = "{276, -4.333}";
},
{
name = top;
position = "{264.333, 378.333}";
},
{
name = topright;
position = "{334.667, 365.833}";
}
);
layerId = "E3E5F2BC-81DA-462E-93BE-62096568DC8F";
paths = (
{
closed = 1;
nodes = (
"382.667 -6.333 OFFCURVE",
"448 105.333 OFFCURVE",
"448 202.833 CURVE SMOOTH",
"448 307.5 OFFCURVE",
"369.833 385.333 OFFCURVE",
"263.333 385.333 CURVE SMOOTH",
"121 385.333 OFFCURVE",
"55 274.667 OFFCURVE",
"55 176.333 CURVE SMOOTH",
"55 71 OFFCURVE",
"133.833 -6.333 OFFCURVE",
"239.667 -6.333 CURVE SMOOTH"
);
},
{
closed = 1;
nodes = (
"144.5 11.167 OFFCURVE",
"74.667 85.667 OFFCURVE",
"74.667 177.5 CURVE SMOOTH",
"74.667 269.833 OFFCURVE",
"134.333 367.833 OFFCURVE",
"262.167 367.833 CURVE SMOOTH",
"358.167 367.833 OFFCURVE",
"428.333 293.667 OFFCURVE",
"428.333 201.5 CURVE SMOOTH",
"428.333 109.333 OFFCURVE",
"368.833 11.167 OFFCURVE",
"240.833 11.167 CURVE SMOOTH"
);
},
{
closed = 1;
nodes = (
"407.167 294.167 LINE",
"447.5 290.167 OFFCURVE",
"479.667 300.167 OFFCURVE",
"488 388.333 CURVE",
"470.167 389.333 LINE",
"464.5 323.833 OFFCURVE",
"443.167 306.333 OFFCURVE",
"409.5 310.333 CURVE"
);
}
);
width = 504;
},
{
anchors = (
{
name = bottom;
position = "{275, 0}";
},
{
name = center;
position = "{275, 250}";
},
{
name = ogonek;
position = "{406, 10}";
},
{
name = top;
position = "{295, 450}";
},
{
name = topright;
position = "{437, 209}";
}
);
layerId = "156A42CF-5234-4DDE-A174-0E3EC098A6C5";
paths = (
{
closed = 1;
nodes = (
"483 -12 OFFCURVE",
"533 156 OFFCURVE",
"533 241 CURVE SMOOTH",
"533 382 OFFCURVE",
"411 457 OFFCURVE",
"294 457 CURVE SMOOTH",
"101 457 OFFCURVE",
"35 311 OFFCURVE",
"35 204 CURVE SMOOTH",
"35 51 OFFCURVE",
"173 -12 OFFCURVE",
"276 -12 CURVE SMOOTH"
);
},
{
closed = 1;
nodes = (
"243 103 OFFCURVE",
"176 121 OFFCURVE",
"176 211 CURVE SMOOTH",
"176 265 OFFCURVE",
"207 343 OFFCURVE",
"289 343 CURVE SMOOTH",
"319 343 OFFCURVE",
"391 329 OFFCURVE",
"391 235 CURVE SMOOTH",
"391 183 OFFCURVE",
"365 103 OFFCURVE",
"280 103 CURVE SMOOTH"
);
},
{
closed = 1;
nodes = (
"432 298 LINE",
"525 292 OFFCURVE",
"602 327 OFFCURVE",
"640 461 CURVE",
"537 461 LINE",
"518 405 OFFCURVE",
"489 378 OFFCURVE",
"442 381 CURVE"
);
}
);
width = 615;
}
);
leftKerningGroup = o;
rightKerningGroup = o;
unicode = 01A1;
},
{
glyphname = oogonek;
lastChange = "2021-06-30 03:44:16 +0000";
layers = (
{
anchors = (
{
name = ogonek;
position = "{306, -1}";
}
);
layerId = master01;
paths = (
{
closed = 1;
nodes = (
"279 13 LINE",
"224 -10 OFFCURVE",
"186 -61 OFFCURVE",
"186 -119 CURVE",
"186 -170 OFFCURVE",
"225 -205 OFFCURVE",
"271 -206 CURVE",
"307 -207 OFFCURVE",
"344 -181 OFFCURVE",
"363 -149 CURVE",
"344 -125 LINE",
"327 -152 OFFCURVE",
"305 -171 OFFCURVE",
"278 -170 CURVE",
"252 -170 OFFCURVE",
"227 -148 OFFCURVE",
"228 -113 CURVE",
"229 -53 OFFCURVE",
"281 -12 OFFCURVE",
"332 9 CURVE SMOOTH",
"422 41 OFFCURVE",
"468 121 OFFCURVE",
"468 212 CURVE SMOOTH",
"468 325 OFFCURVE",
"379 402 OFFCURVE",
"270 402 CURVE SMOOTH",
"116 402 OFFCURVE",
"50 283 OFFCURVE",
"50 183 CURVE SMOOTH",
"50 66 OFFCURVE",
"143 -8 OFFCURVE",
"248 -8 CURVE SMOOTH",
"282 -8 OFFCURVE",
"303 0 OFFCURVE",
"326 11 CURVE"
);
},
{
closed = 1;
nodes = (
"167 32 OFFCURVE",
"98 94 OFFCURVE",
"98 185 CURVE SMOOTH",
"98 269 OFFCURVE",
"151 362 OFFCURVE",
"268 362 CURVE SMOOTH",
"349 362 OFFCURVE",
"420 302 OFFCURVE",
"420 209 CURVE SMOOTH",
"420 126 OFFCURVE",
"368 32 OFFCURVE",
"250 32 CURVE SMOOTH"
);
}
);
width = 519;
},
{
anchors = (
{
name = ogonek;
position = "{276, -4.333}";
}
);
layerId = "E3E5F2BC-81DA-462E-93BE-62096568DC8F";
paths = (
{
closed = 1;
nodes = (
"276.5 6.333 LINE",
"228.167 -14.167 OFFCURVE",
"188.5 -61 OFFCURVE",
"188.5 -123.167 CURVE",
"188.5 -169.167 OFFCURVE",
"222.5 -200 OFFCURVE",
"260.167 -200.167 CURVE",
"293.667 -200.333 OFFCURVE",
"322.333 -175.167 OFFCURVE",
"336.333 -146.5 CURVE",
"324 -137.5 LINE",
"309.5 -162.833 OFFCURVE",
"288.333 -182.667 OFFCURVE",
"262.167 -182.5 CURVE",
"234.5 -182.5 OFFCURVE",
"207.833 -158.833 OFFCURVE",
"208 -122.167 CURVE",
"208.167 -59.667 OFFCURVE",
"256 -10.333 OFFCURVE",
"301.167 2.333 CURVE SMOOTH",
"394.5 26.833 OFFCURVE",
"448 101.833 OFFCURVE",
"448 202.833 CURVE SMOOTH",
"448 307.5 OFFCURVE",
"369.833 385.333 OFFCURVE",
"263.333 385.333 CURVE SMOOTH",
"121 385.333 OFFCURVE",
"55 274.667 OFFCURVE",
"55 176.333 CURVE SMOOTH",
"55 71 OFFCURVE",
"133.833 -6.333 OFFCURVE",
"239.667 -6.333 CURVE SMOOTH",
"262.833 -6.333 OFFCURVE",
"281.333 -2.5 OFFCURVE",
"300.167 3.5 CURVE"
);
},
{
closed = 1;
nodes = (
"144.5 11.167 OFFCURVE",
"74.667 85.667 OFFCURVE",
"74.667 177.5 CURVE SMOOTH",
"74.667 269.833 OFFCURVE",
"134.333 367.833 OFFCURVE",
"262.167 367.833 CURVE SMOOTH",
"358.167 367.833 OFFCURVE",
"428.333 293.667 OFFCURVE",
"428.333 201.5 CURVE SMOOTH",
"428.333 109.333 OFFCURVE",
"368.833 11.167 OFFCURVE",
"240.833 11.167 CURVE SMOOTH"
);
}
);
width = 502;
},
{
anchors = (
{
name = ogonek;
position = "{406, 10}";
}
);
layerId = "156A42CF-5234-4DDE-A174-0E3EC098A6C5";
paths = (
{
closed = 1;
nodes = (
"288 35 LINE",
"209 4 OFFCURVE",
"177 -60 OFFCURVE",
"177 -105 CURVE SMOOTH",
"177 -174 OFFCURVE",
"232 -221 OFFCURVE",
"307 -226 CURVE",
"353 -229 OFFCURVE",
"415 -202 OFFCURVE",
"451 -159 CURVE",
"410 -85 LINE",
"384 -116 OFFCURVE",
"359 -131 OFFCURVE",
"332 -129 CURVE",
"309 -128 OFFCURVE",
"289 -113 OFFCURVE",
"293 -84 CURVE SMOOTH",
"300 -32 OFFCURVE",
"365 -17 OFFCURVE",
"434 33 CURVE SMOOTH",
"512 89 OFFCURVE",
"533 184 OFFCURVE",
"533 241 CURVE SMOOTH",
"533 382 OFFCURVE",
"411 457 OFFCURVE",
"294 457 CURVE SMOOTH",
"101 457 OFFCURVE",
"35 311 OFFCURVE",
"35 204 CURVE SMOOTH",
"35 51 OFFCURVE",
"173 -12 OFFCURVE",
"276 -12 CURVE SMOOTH",
"344 -12 OFFCURVE",
"374 8 OFFCURVE",
"411 35 CURVE"
);
},
{
closed = 1;
nodes = (
"243 103 OFFCURVE",
"176 121 OFFCURVE",
"176 211 CURVE SMOOTH",
"176 265 OFFCURVE",
"207 343 OFFCURVE",
"289 343 CURVE SMOOTH",
"319 343 OFFCURVE",
"391 329 OFFCURVE",
"391 235 CURVE SMOOTH",
"391 183 OFFCURVE",
"365 103 OFFCURVE",
"280 103 CURVE SMOOTH"
);
}
);
width = 574;
}
);
leftKerningGroup = o;
rightKerningGroup = o;
unicode = 01EB;
},
{
glyphname = p;
lastChange = "2021-06-30 03:44:16 +0000";
layers = (
{
anchors = (
{
name = bottom;
position = "{250, 0}";
},
{
name = top;
position = "{298, 391}";
}
);
layerId = master01;
paths = (
{
closed = 1;
nodes = (
"406 -8 OFFCURVE",
"509 98 OFFCURVE",
"509 225 CURVE SMOOTH",
"509 328 OFFCURVE",
"432 403 OFFCURVE",
"329 403 CURVE SMOOTH",
"253 403 OFFCURVE",
"175 358 OFFCURVE",
"132 295 CURVE",
"143 266 LINE",
"155 394 LINE",
"113 394 LINE",
"42 -188 LINE",
"89 -188 LINE",
"122 111 LINE",
"109 99 LINE",
"130 37 OFFCURVE",
"197 -8 OFFCURVE",
"275 -8 CURVE SMOOTH"
);
},
{
closed = 1;
nodes = (
"163 33 OFFCURVE",
"130 127 OFFCURVE",
"131 175 CURVE",
"137 218 LINE",
"154 303 OFFCURVE",
"229 364 OFFCURVE",
"315 364 CURVE SMOOTH",
"398 364 OFFCURVE",
"461 302 OFFCURVE",
"461 218 CURVE SMOOTH",
"461 119 OFFCURVE",
"377 33 OFFCURVE",
"275 33 CURVE SMOOTH"
);
}
);
userData = {
com.schriftgestaltung.Glyphs.glyph.leftMetricsKey = n;
com.schriftgestaltung.Glyphs.glyph.rightMetricsKey = o;
};
width = 558;
},
{
anchors = (
{
name = bottom;
position = "{247.5, 0}";
},
{
name = top;
position = "{293.833, 377.667}";
}
);
layerId = "E3E5F2BC-81DA-462E-93BE-62096568DC8F";
paths = (
{
closed = 1;
nodes = (
"386.833 -6.333 OFFCURVE",
"489.833 93 OFFCURVE",
"489.833 214.167 CURVE SMOOTH",
"489.833 312.167 OFFCURVE",
"417 386.333 OFFCURVE",
"316.5 386.333 CURVE SMOOTH",
"235.5 386.333 OFFCURVE",
"155.833 336.333 OFFCURVE",
"120.333 265.833 CURVE",
"119.667 236.833 LINE",
"135.833 378.167 LINE",
"117.167 378.167 LINE",
"49.5 -181.333 LINE",
"69 -181.333 LINE",
"97.833 63.5 LINE",
"101.5 114 LINE",
"120.833 43.667 OFFCURVE",
"186.167 -6.333 OFFCURVE",
"268.333 -6.333 CURVE SMOOTH"
);
},
{
closed = 1;
nodes = (
"138.833 11.333 OFFCURVE",
"105 125.333 OFFCURVE",
"111.833 175 CURVE",
"115.333 198.833 LINE",
"128.167 296.333 OFFCURVE",
"215.667 369 OFFCURVE",
"313.333 369 CURVE SMOOTH",
"404.667 369 OFFCURVE",
"470.167 301.167 OFFCURVE",
"470.167 211.333 CURVE SMOOTH",
"470.167 103.167 OFFCURVE",
"375.333 11.333 OFFCURVE",
"269.167 11.333 CURVE SMOOTH"
);
}
);
userData = {
com.schriftgestaltung.Glyphs.glyph.leftMetricsKey = n;
com.schriftgestaltung.Glyphs.glyph.rightMetricsKey = o;
};
width = 543;
},
{
anchors = (
{
name = bottom;
position = "{262, 0}";
},
{
name = top;
position = "{316, 437}";
}
);
layerId = "156A42CF-5234-4DDE-A174-0E3EC098A6C5";
paths = (
{
closed = 1;
nodes = (
"474 -12 OFFCURVE",
"577 116 OFFCURVE",
"577 261 CURVE SMOOTH",
"577 382 OFFCURVE",
"485 459 OFFCURVE",
"375 459 CURVE",
"322 459 OFFCURVE",
"260 432 OFFCURVE",
"196 392 CURVE",
"226 362 LINE",
"222 447 LINE",
"102 447 LINE",
"19 -210 LINE",
"158 -210 LINE",
"191 85 LINE",
"159 49 LINE",
"185 13 OFFCURVE",
"250 -12 OFFCURVE",
"302 -12 CURVE"
);
},
{
closed = 1;
nodes = (
"247 105 OFFCURVE",
"216 132 OFFCURVE",
"199 175 CURVE",
"212 282 LINE",
"244 326 OFFCURVE",
"279 348 OFFCURVE",
"325 348 CURVE",
"381 348 OFFCURVE",
"435 305 OFFCURVE",
"435 239 CURVE SMOOTH",
"435 170 OFFCURVE",
"385 105 OFFCURVE",
"298 105 CURVE"
);
}
);
userData = {
com.schriftgestaltung.Glyphs.glyph.leftMetricsKey = n;
com.schriftgestaltung.Glyphs.glyph.rightMetricsKey = o;
};
width = 612;
}
);
rightKerningGroup = o;
unicode = 0070;
},
{
glyphname = q;
lastChange = "2021-06-30 03:44:16 +0000";
layers = (
{
anchors = (
{
name = bottom;
position = "{234, 0}";
},
{
name = top;
position = "{282, 391}";
}
);
layerId = master01;
paths = (
{
closed = 1;
nodes = (
"324 -8 OFFCURVE",
"399 50 OFFCURVE",
"428 103 CURVE",
"412 116 LINE",
"376 -188 LINE",
"423 -188 LINE",
"494 391 LINE",
"449 391 LINE",
"432 271 LINE",
"444 292 LINE",
"422 354 OFFCURVE",
"361 403 OFFCURVE",
"275 403 CURVE SMOOTH",
"151 403 OFFCURVE",
"49 296 OFFCURVE",
"49 174 CURVE SMOOTH",
"49 67 OFFCURVE",
"131 -8 OFFCURVE",
"229 -7 CURVE SMOOTH"
);
},
{
closed = 1;
nodes = (
"158 32 OFFCURVE",
"95 94 OFFCURVE",
"95 176 CURVE SMOOTH",
"95 277 OFFCURVE",
"179 363 OFFCURVE",
"281 363 CURVE SMOOTH",
"394 363 OFFCURVE",
"427 271 OFFCURVE",
"426 218 CURVE",
"420 176 LINE",
"400 94 OFFCURVE",
"324 32 OFFCURVE",
"241 32 CURVE SMOOTH"
);
}
);
userData = {
com.schriftgestaltung.Glyphs.glyph.leftMetricsKey = o;
com.schriftgestaltung.Glyphs.glyph.rightMetricsKey = n;
};
width = 559;
},
{
anchors = (
{
name = bottom;
position = "{223.167, 0}";
},
{
name = top;
position = "{269.5, 377.667}";
}
);
layerId = "E3E5F2BC-81DA-462E-93BE-62096568DC8F";
paths = (
{
closed = 1;
nodes = (
"312.333 -6.333 OFFCURVE",
"389 45.833 OFFCURVE",
"424.667 114.667 CURVE",
"421.167 121.833 LINE",
"385.167 -181.333 LINE",
"404.667 -181.333 LINE",
"472.333 377.667 LINE",
"453.167 377.667 LINE",
"436.167 238.5 LINE",
"442.333 262.833 LINE",
"422 333.167 OFFCURVE",
"356.833 386.333 OFFCURVE",
"274.167 386.333 CURVE SMOOTH",
"156.833 386.333 OFFCURVE",
"54 285.167 OFFCURVE",
"54 164.833 CURVE SMOOTH",
"54 67 OFFCURVE",
"128.5 -6.333 OFFCURVE",
"227.333 -6.167 CURVE SMOOTH"
);
},
{
closed = 1;
nodes = (
"139.667 11.167 OFFCURVE",
"73.333 79 OFFCURVE",
"73.333 166 CURVE SMOOTH",
"73.333 276.167 OFFCURVE",
"167.333 368.833 OFFCURVE",
"274.333 368.833 CURVE SMOOTH",
"405.667 368.833 OFFCURVE",
"438.667 257.667 OFFCURVE",
"431.833 201.333 CURVE",
"429.167 179.333 LINE",
"412.5 85.667 OFFCURVE",
"324.833 11.167 OFFCURVE",
"230.167 11.167 CURVE SMOOTH"
);
}
);
userData = {
com.schriftgestaltung.Glyphs.glyph.leftMetricsKey = o;
com.schriftgestaltung.Glyphs.glyph.rightMetricsKey = n;
};
width = 544;
},
{
anchors = (
{
name = bottom;
position = "{276, 0}";
},
{
name = top;
position = "{330, 437}";
}
);
background = {
paths = (
{
closed = 1;
nodes = (
"228 102 OFFCURVE",
"183 147 OFFCURVE",
"183 220 CURVE SMOOTH",
"183 273 OFFCURVE",
"219 345 OFFCURVE",
"310 345 CURVE",
"363 345 OFFCURVE",
"402 318 OFFCURVE",
"412 275 CURVE",
"399 168 LINE",
"372 124 OFFCURVE",
"335 102 OFFCURVE",
"295 102 CURVE SMOOTH"
);
}
);
};
layerId = "156A42CF-5234-4DDE-A174-0E3EC098A6C5";
paths = (
{
closed = 1;
nodes = (
"360 -12 OFFCURVE",
"419 65 OFFCURVE",
"424 65 CURVE",
"390 95 LINE",
"352 -210 LINE",
"492 -210 LINE",
"572 437 LINE",
"442 437 LINE",
"423 378 LINE",
"433 390 LINE",
"409 425 OFFCURVE",
"371 459 OFFCURVE",
"284 459 CURVE",
"140 459 OFFCURVE",
"38 333 OFFCURVE",
"38 203 CURVE SMOOTH",
"38 66 OFFCURVE",
"146 -12 OFFCURVE",
"242 -10 CURVE"
);
},
{
closed = 1;
nodes = (
"227 100 OFFCURVE",
"173 143 OFFCURVE",
"173 209 CURVE SMOOTH",
"173 278 OFFCURVE",
"223 343 OFFCURVE",
"310 343 CURVE",
"361 343 OFFCURVE",
"396 316 OFFCURVE",
"413 273 CURVE",
"397 166 LINE",
"365 122 OFFCURVE",
"329 100 OFFCURVE",
"283 100 CURVE"
);
}
);
userData = {
com.schriftgestaltung.Glyphs.glyph.leftMetricsKey = o;
com.schriftgestaltung.Glyphs.glyph.rightMetricsKey = n;
};
width = 617;
}
);
leftKerningGroup = o;
unicode = 0071;
},
{
glyphname = r;
lastChange = "2021-06-30 03:44:16 +0000";
layers = (
{
anchors = (
{
name = bottom;
position = "{106, 0}";
},
{
name = top;
position = "{184, 408}";
}
);
layerId = master01;
paths = (
{
closed = 1;
nodes = (
"113 391 LINE",
"65 0 LINE",
"112 0 LINE",
"138 207 LINE SMOOTH",
"147 291 OFFCURVE",
"227 356 OFFCURVE",
"317 356 CURVE",
"324 402 LINE",
"256 401 OFFCURVE",
"178 360 OFFCURVE",
"143 287 CURVE",
"154 391 LINE"
);
}
);
userData = {
com.schriftgestaltung.Glyphs.glyph.leftMetricsKey = n;
};
width = 343;
},
{
anchors = (
{
name = bottom;
position = "{81, 0}";
},
{
name = top;
position = "{182.333, 380.5}";
}
);
layerId = "E3E5F2BC-81DA-462E-93BE-62096568DC8F";
paths = (
{
closed = 1;
nodes = (
"117.167 377.667 LINE",
"70.833 0 LINE",
"90.333 0 LINE",
"117.167 217.833 LINE SMOOTH",
"127 304.333 OFFCURVE",
"209.5 364.333 OFFCURVE",
"297.833 366.833 CURVE",
"299.833 385.333 LINE",
"226 383.5 OFFCURVE",
"151.333 342.5 OFFCURVE",
"119.667 271.167 CURVE",
"132.333 377.667 LINE"
);
}
);
userData = {
com.schriftgestaltung.Glyphs.glyph.leftMetricsKey = n;
};
width = 321;
},
{
anchors = (
{
name = bottom;
position = "{190, 0}";
},
{
name = top;
position = "{190, 500}";
}
);
layerId = "156A42CF-5234-4DDE-A174-0E3EC098A6C5";
paths = (
{
closed = 1;
nodes = (
"99 437 LINE",
"46 0 LINE",
"185 0 LINE",
"206 171 LINE",
"215 247 OFFCURVE",
"284 330 OFFCURVE",
"381 319 CURVE",
"405 459 LINE",
"356 459 OFFCURVE",
"268 417 OFFCURVE",
"221 340 CURVE",
"225 437 LINE"
);
}
);
userData = {
com.schriftgestaltung.Glyphs.glyph.leftMetricsKey = n;
};
width = 414;
}
);
rightKerningGroup = r;
unicode = 0072;
},
{
glyphname = s;
lastChange = "2021-06-30 03:44:16 +0000";
layers = (
{
anchors = (
{
name = bottom;
position = "{155, 0}";
},
{
name = top;
position = "{214, 408}";
}
);
layerId = master01;
paths = (
{
closed = 1;
nodes = (
"278 -8 OFFCURVE",
"305 70 OFFCURVE",
"305 108 CURVE SMOOTH",
"305 175 OFFCURVE",
"256 198 OFFCURVE",
"205 220 CURVE SMOOTH",
"165 237 OFFCURVE",
"127 253 OFFCURVE",
"126 296 CURVE SMOOTH",
"126 324 OFFCURVE",
"152 360 OFFCURVE",
"201 360 CURVE SMOOTH",
"231 360 OFFCURVE",
"273 352 OFFCURVE",
"297 316 CURVE",
"321 348 LINE",
"281 395 OFFCURVE",
"217 399 OFFCURVE",
"201 399 CURVE SMOOTH",
"122 400 OFFCURVE",
"77 339 OFFCURVE",
"77 287 CURVE SMOOTH",
"77 236 OFFCURVE",
"113 208 OFFCURVE",
"163 188 CURVE SMOOTH",
"209 169 OFFCURVE",
"257 154 OFFCURVE",
"257 103 CURVE SMOOTH",
"257 72 OFFCURVE",
"226 31 OFFCURVE",
"170 31 CURVE SMOOTH",
"129 31 OFFCURVE",
"85 44 OFFCURVE",
"57 83 CURVE",
"32 54 LINE",
"65 6 OFFCURVE",
"125 -8 OFFCURVE",
"170 -8 CURVE SMOOTH"
);
}
);
width = 369;
},
{
anchors = (
{
name = bottom;
position = "{149.167, 0}";
},
{
name = top;
position = "{197.333, 380.5}";
}
);
layerId = "E3E5F2BC-81DA-462E-93BE-62096568DC8F";
paths = (
{
closed = 1;
nodes = (
"230.5 -11.333 OFFCURVE",
"272.5 35 OFFCURVE",
"279.167 95.5 CURVE SMOOTH",
"286.667 164.167 OFFCURVE",
"228.5 183.833 OFFCURVE",
"175.833 206.667 CURVE SMOOTH",
"134.167 224.5 OFFCURVE",
"97 244.667 OFFCURVE",
"101.833 291.833 CURVE SMOOTH",
"106.833 343.167 OFFCURVE",
"156.167 365.833 OFFCURVE",
"193.5 364.167 CURVE SMOOTH",
"221 362.5 OFFCURVE",
"261.333 348.667 OFFCURVE",
"281.167 319.333 CURVE",
"293.5 332.167 LINE",
"266.833 367.5 OFFCURVE",
"222 379.833 OFFCURVE",
"195.167 381.5 CURVE SMOOTH",
"141.167 384.167 OFFCURVE",
"87.833 351.5 OFFCURVE",
"81.167 290.333 CURVE SMOOTH",
"75.333 232.667 OFFCURVE",
"117.167 209.667 OFFCURVE",
"163.833 190.5 CURVE SMOOTH",
"213.167 169.833 OFFCURVE",
"265.333 152.333 OFFCURVE",
"259.5 92.167 CURVE SMOOTH",
"252 29.5 OFFCURVE",
"201.833 7.667 OFFCURVE",
"152.5 10.167 CURVE SMOOTH",
"107.333 11.833 OFFCURVE",
"68.333 31.5 OFFCURVE",
"50.333 58.833 CURVE",
"37 47.333 LINE",
"62.5 9.333 OFFCURVE",
"112.5 -5.5 OFFCURVE",
"150 -7.167 CURVE SMOOTH"
);
}
);
width = 346;
},
{
anchors = (
{
name = bottom;
position = "{174, 0}";
},
{
name = top;
position = "{270, 500}";
}
);
layerId = "156A42CF-5234-4DDE-A174-0E3EC098A6C5";
paths = (
{
closed = 1;
nodes = (
"316 -10 OFFCURVE",
"380 57 OFFCURVE",
"389 135 CURVE",
"397 200 OFFCURVE",
"362 240 OFFCURVE",
"302 265 CURVE",
"260 282 OFFCURVE",
"208 291 OFFCURVE",
"208 324 CURVE SMOOTH",
"208 344 OFFCURVE",
"221 363 OFFCURVE",
"259 363 CURVE SMOOTH",
"293 363 OFFCURVE",
"323 348 OFFCURVE",
"351 320 CURVE",
"414 399 LINE",
"360 445 OFFCURVE",
"297 456 OFFCURVE",
"237 456 CURVE SMOOTH",
"96 456 OFFCURVE",
"65 358 OFFCURVE",
"65 305 CURVE SMOOTH",
"65 253 OFFCURVE",
"93 207 OFFCURVE",
"162 180 CURVE",
"204 164 OFFCURVE",
"247 154 OFFCURVE",
"247 124 CURVE SMOOTH",
"247 109 OFFCURVE",
"239 87 OFFCURVE",
"198 87 CURVE SMOOTH",
"176 87 OFFCURVE",
"134 87 OFFCURVE",
"81 148 CURVE",
"14 75 LINE",
"70 1 OFFCURVE",
"163 -9 OFFCURVE",
"199 -9 CURVE SMOOTH"
);
}
);
width = 448;
}
);
leftKerningGroup = s;
unicode = 0073;
},
{
glyphname = t;
lastChange = "2021-06-30 03:44:16 +0000";
layers = (
{
anchors = (
{
name = bottom;
position = "{134, 0}";
},
{
name = center;
position = "{154, 191}";
},
{
name = top;
position = "{196, 558}";
},
{
name = topright;
position = "{295, 501}";
}
);
layerId = master01;
paths = (
{
closed = 1;
nodes = (
"151 386 LINE",
"67 386 LINE",
"62 347 LINE",
"146 347 LINE",
"104 0 LINE",
"151 0 LINE",
"193 347 LINE",
"315 347 LINE",
"320 386 LINE",
"198 386 LINE",
"220 563 LINE",
"172 563 LINE"
);
}
);
width = 325;
},
{
anchors = (
{
name = bottom;
position = "{122.333, 0}";
},
{
name = center;
position = "{145.667, 188.5}";
},
{
name = top;
position = "{180.167, 542.167}";
},
{
name = topright;
position = "{273.333, 501.833}";
}
);
layerId = "E3E5F2BC-81DA-462E-93BE-62096568DC8F";
paths = (
{
closed = 1;
nodes = (
"155.167 370.167 LINE",
"67 370.167 LINE",
"64.5 352 LINE",
"152.667 352 LINE",
"109.833 0 LINE",
"129.333 0 LINE",
"172.167 352 LINE",
"298.333 352 LINE",
"300.833 370.167 LINE",
"174.667 370.167 LINE",
"195.833 543 LINE",
"176.167 543 LINE"
);
}
);
width = 304;
},
{
anchors = (
{
name = bottom;
position = "{174, 0}";
},
{
name = center;
position = "{181, 200}";
},
{
name = top;
position = "{248, 612}";
},
{
name = topright;
position = "{367, 500}";
}
);
layerId = "156A42CF-5234-4DDE-A174-0E3EC098A6C5";
paths = (
{
closed = 1;
nodes = (
"136 439 LINE",
"68 439 LINE",
"55 330 LINE",
"123 330 LINE",
"83 0 LINE",
"223 0 LINE",
"263 330 LINE",
"369 330 LINE",
"382 439 LINE",
"276 439 LINE",
"299 629 LINE",
"159 629 LINE"
);
}
);
width = 394;
}
);
unicode = 0074;
},
{
glyphname = u;
lastChange = "2021-06-30 03:44:16 +0000";
layers = (
{
anchors = (
{
name = bottom;
position = "{232, -5}";
},
{
name = ogonek;
position = "{389, 3}";
},
{
name = top;
position = "{281, 408}";
},
{
name = topright;
position = "{418, 282}";
}
);
layerId = master01;
paths = (
{
closed = 1;
nodes = (
"265 -11 OFFCURVE",
"340 38 OFFCURVE",
"369 99 CURVE",
"364 110 LINE",
"354 0 LINE",
"396 0 LINE",
"444 391 LINE",
"397 391 LINE",
"371 183 LINE SMOOTH",
"361 95 OFFCURVE",
"284 30 OFFCURVE",
"207 30 CURVE",
"149 33 OFFCURVE",
"121 69 OFFCURVE",
"126 115 CURVE SMOOTH",
"160 391 LINE",
"113 391 LINE",
"78 103 LINE SMOOTH",
"70 34 OFFCURVE",
"115 -11 OFFCURVE",
"187 -11 CURVE SMOOTH"
);
}
);
userData = {
com.schriftgestaltung.Glyphs.glyph.leftMetricsKey = n;
com.schriftgestaltung.Glyphs.glyph.rightMetricsKey = n;
};
width = 509;
},
{
anchors = (
{
name = bottom;
position = "{212, -0.833}";
},
{
name = ogonek;
position = "{368.167, 0.5}";
},
{
name = top;
position = "{266.833, 380.5}";
},
{
name = topright;
position = "{393, 270.333}";
}
);
layerId = "E3E5F2BC-81DA-462E-93BE-62096568DC8F";
paths = (
{
closed = 1;
nodes = (
"262.5 -7.667 OFFCURVE",
"341.667 45.5 OFFCURVE",
"367.333 108.167 CURVE",
"365.667 115 LINE",
"353.167 0 LINE",
"369.333 0 LINE",
"415.667 377.667 LINE",
"396.167 377.667 LINE",
"369.333 159.667 LINE SMOOTH",
"359.333 73.333 OFFCURVE",
"274 10 OFFCURVE",
"192.833 10 CURVE",
"129 13 OFFCURVE",
"96.833 52.333 OFFCURVE",
"102.667 100.833 CURVE SMOOTH",
"136.667 377.667 LINE",
"117.167 377.667 LINE",
"83.833 101.333 LINE SMOOTH",
"75.833 34.833 OFFCURVE",
"117.5 -7.667 OFFCURVE",
"187.833 -7.667 CURVE SMOOTH"
);
}
);
userData = {
com.schriftgestaltung.Glyphs.glyph.leftMetricsKey = n;
com.schriftgestaltung.Glyphs.glyph.rightMetricsKey = n;
};
width = 487;
},
{
anchors = (
{
name = bottom;
position = "{297, -20}";
},
{
name = ogonek;
position = "{460, 11}";
},
{
name = top;
position = "{327, 500}";
},
{
name = topright;
position = "{501, 321}";
}
);
layerId = "156A42CF-5234-4DDE-A174-0E3EC098A6C5";
paths = (
{
closed = 1;
nodes = (
"262 -21 OFFCURVE",
"323 16 OFFCURVE",
"360 71 CURVE",
"357 87 LINE",
"358 0 LINE",
"485 0 LINE",
"539 437 LINE",
"399 437 LINE",
"377 259 LINE",
"366 166 OFFCURVE",
"318 98 OFFCURVE",
"256 98 CURVE",
"215 98 OFFCURVE",
"203 123 OFFCURVE",
"205 162 CURVE",
"239 437 LINE",
"99 437 LINE",
"59 110 LINE",
"52 33 OFFCURVE",
"105 -21 OFFCURVE",
"184 -21 CURVE"
);
}
);
userData = {
com.schriftgestaltung.Glyphs.glyph.leftMetricsKey = n;
com.schriftgestaltung.Glyphs.glyph.rightMetricsKey = n;
};
width = 584;
}
);
leftKerningGroup = n;
unicode = 0075;
},
{
glyphname = uring;
lastChange = "2021-06-30 03:44:16 +0000";
layers = (
{
anchors = (
{
name = bottom;
position = "{232, -5}";
},
{
name = ogonek;
position = "{389, 3}";
},
{
name = top;
position = "{281, 408}";
},
{
name = topright;
position = "{418, 282}";
}
);
components = (
{
name = u;
}
);
layerId = master01;
paths = (
{
closed = 1;
nodes = (
"238 490 LINE SMOOTH",
"238 454 OFFCURVE",
"265 426 OFFCURVE",
"301 426 CURVE SMOOTH",
"344 426 OFFCURVE",
"382 462 OFFCURVE",
"382 505 CURVE SMOOTH",
"382 541 OFFCURVE",
"355 569 OFFCURVE",
"319 569 CURVE SMOOTH",
"276 569 OFFCURVE",
"238 533 OFFCURVE",
"238 490 CURVE SMOOTH"
);
},
{
closed = 1;
nodes = (
"266 493 LINE SMOOTH",
"266 519 OFFCURVE",
"290 541 OFFCURVE",
"316 541 CURVE SMOOTH",
"338 541 OFFCURVE",
"354 523 OFFCURVE",
"354 501 CURVE SMOOTH",
"354 475 OFFCURVE",
"330 453 OFFCURVE",
"305 453 CURVE SMOOTH",
"283 453 OFFCURVE",
"266 472 OFFCURVE",
"266 493 CURVE SMOOTH"
);
}
);
width = 490;
},
{
anchors = (
{
name = bottom;
position = "{212, -0.833}";
},
{
name = ogonek;
position = "{368.167, 0.5}";
},
{
name = top;
position = "{266.833, 380.5}";
},
{
name = topright;
position = "{393, 270.333}";
}
);
components = (
{
name = u;
}
);
layerId = "E3E5F2BC-81DA-462E-93BE-62096568DC8F";
paths = (
{
closed = 1;
nodes = (
"227.167 466.667 LINE SMOOTH",
"227.167 434 OFFCURVE",
"250.833 409.333 OFFCURVE",
"284.333 409.333 CURVE SMOOTH",
"324 409.333 OFFCURVE",
"357 441.167 OFFCURVE",
"357 480.833 CURVE SMOOTH",
"357 513.5 OFFCURVE",
"333.333 538.167 OFFCURVE",
"299.833 538.167 CURVE SMOOTH",
"260.167 538.167 OFFCURVE",
"227.167 506.333 OFFCURVE",
"227.167 466.667 CURVE SMOOTH"
);
},
{
closed = 1;
nodes = (
"243.5 469.667 LINE SMOOTH",
"243.5 497.333 OFFCURVE",
"270.833 521.833 OFFCURVE",
"298.5 521.833 CURVE SMOOTH",
"322.167 521.833 OFFCURVE",
"340.667 501.333 OFFCURVE",
"340.667 477.667 CURVE SMOOTH",
"340.667 450 OFFCURVE",
"314.167 425.5 OFFCURVE",
"286.667 425.5 CURVE SMOOTH",
"263 425.5 OFFCURVE",
"243.5 446.167 OFFCURVE",
"243.5 469.667 CURVE SMOOTH"
);
}
);
userData = {
com.schriftgestaltung.componentsAlignment = (
-1
);
};
width = 458.33333;
},
{
anchors = (
{
name = bottom;
position = "{297, -20}";
},
{
name = ogonek;
position = "{460, 11}";
},
{
name = top;
position = "{327, 500}";
},
{
name = topright;
position = "{501, 321}";
}
);
components = (
{
name = u;
}
);
layerId = "156A42CF-5234-4DDE-A174-0E3EC098A6C5";
paths = (
{
closed = 1;
nodes = (
"274 567 LINE SMOOTH",
"274 520 OFFCURVE",
"311 481 OFFCURVE",
"358 481 CURVE SMOOTH",
"412 481 OFFCURVE",
"464 530 OFFCURVE",
"464 585 CURVE SMOOTH",
"464 631 OFFCURVE",
"428 670 OFFCURVE",
"381 670 CURVE SMOOTH",
"327 670 OFFCURVE",
"274 621 OFFCURVE",
"274 567 CURVE SMOOTH"
);
},
{
closed = 1;
nodes = (
"340 571 LINE SMOOTH",
"340 590 OFFCURVE",
"355 604 OFFCURVE",
"373 604 CURVE SMOOTH",
"389 604 OFFCURVE",
"399 594 OFFCURVE",
"399 578 CURVE SMOOTH",
"399 560 OFFCURVE",
"384 546 OFFCURVE",
"366 546 CURVE SMOOTH",
"350 546 OFFCURVE",
"340 557 OFFCURVE",
"340 571 CURVE SMOOTH"
);
}
);
width = 596;
}
);
unicode = 016F;
},
{
glyphname = uogonek;
lastChange = "2021-06-30 03:44:16 +0000";
layers = (
{
layerId = master01;
paths = (
{
closed = 1;
nodes = (
"385 -203 OFFCURVE",
"422 -177 OFFCURVE",
"441 -146 CURVE",
"422 -122 LINE",
"405 -148 OFFCURVE",
"383 -167 OFFCURVE",
"356 -166 CURVE",
"330 -166 OFFCURVE",
"304 -146 OFFCURVE",
"306 -109 CURVE",
"306 -69 OFFCURVE",
"339 -33 OFFCURVE",
"395 0 CURVE",
"443 391 LINE",
"396 391 LINE",
"370 183 LINE SMOOTH",
"360 95 OFFCURVE",
"283 30 OFFCURVE",
"206 30 CURVE",
"148 33 OFFCURVE",
"120 69 OFFCURVE",
"125 115 CURVE SMOOTH",
"159 391 LINE",
"112 391 LINE",
"77 103 LINE SMOOTH",
"69 34 OFFCURVE",
"114 -11 OFFCURVE",
"186 -11 CURVE SMOOTH",
"261 -11 OFFCURVE",
"334 38 OFFCURVE",
"362 99 CURVE",
"353 0 LINE",
"394 2 LINE",
"363 15 LINE",
"304 -14 OFFCURVE",
"264 -63 OFFCURVE",
"264 -115 CURVE",
"264 -166 OFFCURVE",
"303 -201 OFFCURVE",
"349 -202 CURVE"
);
}
);
width = 509;
},
{
layerId = "E3E5F2BC-81DA-462E-93BE-62096568DC8F";
paths = (
{
closed = 1;
nodes = (
"365 -195.5 OFFCURVE",
"393.667 -170.333 OFFCURVE",
"407.667 -141.833 CURVE",
"395.333 -132.833 LINE",
"380.833 -158 OFFCURVE",
"359.667 -177.833 OFFCURVE",
"333.5 -177.667 CURVE",
"305.833 -177.667 OFFCURVE",
"279 -154.333 OFFCURVE",
"279.333 -117.333 CURVE",
"279.333 -75.667 OFFCURVE",
"310.667 -36.333 OFFCURVE",
"369.167 0 CURVE",
"415.5 377.667 LINE",
"396 377.667 LINE",
"369.167 159.667 LINE SMOOTH",
"359.167 73.333 OFFCURVE",
"273.833 10 OFFCURVE",
"192.667 10 CURVE",
"128.833 13 OFFCURVE",
"96.667 52.333 OFFCURVE",
"102.5 100.833 CURVE SMOOTH",
"136.5 377.667 LINE",
"117 377.667 LINE",
"83.667 101.333 LINE SMOOTH",
"75.667 34.833 OFFCURVE",
"117.333 -7.667 OFFCURVE",
"187.667 -7.667 CURVE SMOOTH",
"261.833 -7.667 OFFCURVE",
"339 44.667 OFFCURVE",
"364.5 107.333 CURVE",
"353 0 LINE",
"369 2.833 LINE",
"358.833 13.333 LINE",
"305.667 -15.667 OFFCURVE",
"259.833 -63.833 OFFCURVE",
"259.833 -118.333 CURVE",
"259.833 -164.333 OFFCURVE",
"293.833 -195.167 OFFCURVE",
"331.5 -195.333 CURVE"
);
}
);
width = 487;
},
{
layerId = "156A42CF-5234-4DDE-A174-0E3EC098A6C5";
paths = (
{
closed = 1;
nodes = (
"453 -228 OFFCURVE",
"515 -201 OFFCURVE",
"551 -158 CURVE",
"510 -84 LINE",
"484 -115 OFFCURVE",
"459 -130 OFFCURVE",
"432 -128 CURVE",
"409 -127 OFFCURVE",
"389 -117 OFFCURVE",
"393 -83 CURVE SMOOTH",
"396 -48 OFFCURVE",
"432 -22 OFFCURVE",
"481 0 CURVE",
"535 437 LINE",
"395 437 LINE",
"373 259 LINE",
"362 166 OFFCURVE",
"314 98 OFFCURVE",
"252 98 CURVE",
"211 98 OFFCURVE",
"199 123 OFFCURVE",
"201 162 CURVE",
"235 437 LINE",
"95 437 LINE",
"55 110 LINE",
"48 33 OFFCURVE",
"101 -21 OFFCURVE",
"180 -21 CURVE",
"258 -21 OFFCURVE",
"316 16 OFFCURVE",
"353 71 CURVE",
"354 0 LINE",
"477 0 LINE",
"376 20 LINE",
"297 -9 OFFCURVE",
"277 -62 OFFCURVE",
"277 -104 CURVE SMOOTH",
"277 -173 OFFCURVE",
"332 -220 OFFCURVE",
"407 -225 CURVE"
);
}
);
width = 584;
}
);
unicode = 0173;
},
{
glyphname = v;
lastChange = "2021-06-30 03:44:16 +0000";
layers = (
{
anchors = (
{
name = bottom;
position = "{196, 0}";
},
{
name = top;
position = "{246, 408}";
}
);
layerId = master01;
paths = (
{
closed = 1;
nodes = (
"205 -15 LINE",
"449 391 LINE",
"396 391 LINE",
"196 43 LINE",
"224 42 LINE",
"106 391 LINE",
"51 391 LINE",
"200 -15 LINE"
);
}
);
width = 455;
},
{
anchors = (
{
name = bottom;
position = "{191, 0}";
},
{
name = top;
position = "{237.667, 380.5}";
}
);
layerId = "E3E5F2BC-81DA-462E-93BE-62096568DC8F";
paths = (
{
closed = 1;
nodes = (
"193.333 -16.667 LINE",
"419.833 377.667 LINE",
"397.667 377.667 LINE",
"186.833 7.167 LINE",
"198.167 7 LINE",
"77.667 377.667 LINE",
"56.833 377.667 LINE",
"187.5 -16.667 LINE"
);
}
);
width = 431;
},
{
anchors = (
{
name = bottom;
position = "{211, 0}";
},
{
name = top;
position = "{273, 500}";
}
);
layerId = "156A42CF-5234-4DDE-A174-0E3EC098A6C5";
paths = (
{
closed = 1;
nodes = (
"245 -9 LINE",
"547 437 LINE",
"391 437 LINE",
"226 138 LINE",
"311 135 LINE",
"199 437 LINE",
"33 437 LINE",
"241 -9 LINE"
);
}
);
width = 534;
}
);
leftKerningGroup = v;
rightKerningGroup = v;
unicode = 0076;
},
{
glyphname = w;
lastChange = "2021-06-30 03:44:16 +0000";
layers = (
{
anchors = (
{
name = bottom;
position = "{303, 0}";
},
{
name = top;
position = "{351, 391}";
}
);
layerId = master01;
paths = (
{
closed = 1;
nodes = (
"429 -20 LINE",
"660 391 LINE",
"612 391 LINE",
"427 62 LINE",
"438 63 LINE",
"332 391 LINE",
"289 391 LINE",
"319 302 LINE",
"189 62 LINE",
"206 57 LINE",
"98 391 LINE",
"51 391 LINE",
"183 -19 LINE",
"187 -19 LINE",
"334 257 LINE",
"425 -20 LINE"
);
}
);
userData = {
com.schriftgestaltung.Glyphs.glyph.leftMetricsKey = v;
com.schriftgestaltung.Glyphs.glyph.rightMetricsKey = v;
};
width = 666;
},
{
anchors = (
{
name = bottom;
position = "{299.667, 0}";
},
{
name = top;
position = "{346, 377.667}";
}
);
layerId = "E3E5F2BC-81DA-462E-93BE-62096568DC8F";
paths = (
{
closed = 1;
nodes = (
"423.167 -22.5 LINE",
"648.333 377.667 LINE",
"627.833 377.667 LINE",
"422 9.5 LINE",
"428.833 9.667 LINE",
"309.5 377.667 LINE",
"289.833 377.667 LINE",
"324.833 272 LINE",
"189 12 LINE",
"196 7.833 LINE",
"77.167 377.667 LINE",
"56.833 377.667 LINE",
"186.333 -22.333 LINE",
"188.667 -22.333 LINE",
"332.333 252 LINE",
"420 -22.5 LINE"
);
}
);
userData = {
com.schriftgestaltung.Glyphs.glyph.leftMetricsKey = v;
com.schriftgestaltung.Glyphs.glyph.rightMetricsKey = v;
};
width = 659;
},
{
anchors = (
{
name = bottom;
position = "{315, 0}";
},
{
name = top;
position = "{369, 437}";
}
);
layerId = "156A42CF-5234-4DDE-A174-0E3EC098A6C5";
paths = (
{
closed = 1;
nodes = (
"449 -10 LINE",
"697 437 LINE",
"561 437 LINE",
"450 218 LINE",
"476 220 LINE",
"407 437 LINE",
"288 437 LINE",
"305 387 LINE",
"198 209 LINE",
"246 202 LINE",
"169 437 LINE",
"33 437 LINE",
"173 -9 LINE",
"181 -9 LINE",
"339 272 LINE",
"441 -10 LINE"
);
}
);
userData = {
com.schriftgestaltung.Glyphs.glyph.leftMetricsKey = v;
com.schriftgestaltung.Glyphs.glyph.rightMetricsKey = v;
};
width = 684;
}
);
leftKerningGroup = w;
rightKerningGroup = v;
unicode = 0077;
},
{
glyphname = x;
lastChange = "2021-06-30 03:44:16 +0000";
layers = (
{
layerId = master01;
paths = (
{
closed = 1;
nodes = (
"124 391 LINE",
"66 391 LINE",
"310 0 LINE",
"366 0 LINE"
);
},
{
closed = 1;
nodes = (
"237 189 LINE",
"407 391 LINE",
"353 391 LINE",
"218 224 LINE"
);
},
{
closed = 1;
nodes = (
"192 201 LINE",
"22 0 LINE",
"75 0 LINE",
"214 168 LINE"
);
}
);
width = 396;
},
{
layerId = "E3E5F2BC-81DA-462E-93BE-62096568DC8F";
paths = (
{
closed = 1;
nodes = (
"99 377.667 LINE",
"74.333 377.667 LINE",
"306.667 0 LINE",
"329.333 0 LINE"
);
},
{
closed = 1;
nodes = (
"212.833 186.5 LINE",
"372.833 376.833 LINE",
"349.667 376.833 LINE",
"203.833 202.333 LINE"
);
},
{
closed = 1;
nodes = (
"192.833 191 LINE",
"32 0 LINE",
"55.833 0 LINE",
"202.333 176.333 LINE"
);
}
);
width = 359;
},
{
layerId = "156A42CF-5234-4DDE-A174-0E3EC098A6C5";
paths = (
{
closed = 1;
nodes = (
"209 437 LINE",
"37 437 LINE",
"320 0 LINE",
"489 0 LINE"
);
},
{
closed = 1;
nodes = (
"316 197 LINE",
"519 437 LINE",
"380 437 LINE",
"280 298 LINE"
);
},
{
closed = 1;
nodes = (
"190 234 LINE",
"-12 0 LINE",
"127 0 LINE",
"242 140 LINE"
);
}
);
width = 517;
}
);
leftKerningGroup = x;
unicode = 0078;
},
{
glyphname = y;
lastChange = "2021-06-30 03:44:16 +0000";
layers = (
{
anchors = (
{
name = bottom;
position = "{337, -7}";
},
{
name = top;
position = "{261, 391}";
}
);
layerId = master01;
paths = (
{
closed = 1;
nodes = (
"139 -188 LINE",
"462 391 LINE",
"412 391 LINE",
"87 -188 LINE"
);
},
{
closed = 1;
nodes = (
"240 21 LINE",
"117 391 LINE",
"64 391 LINE",
"200 -4 LINE"
);
}
);
width = 449;
},
{
anchors = (
{
name = bottom;
position = "{304.5, -8.667}";
},
{
name = top;
position = "{244.333, 377.667}";
}
);
layerId = "E3E5F2BC-81DA-462E-93BE-62096568DC8F";
paths = (
{
closed = 1;
nodes = (
"119.833 -181.333 LINE",
"431.167 377.667 LINE",
"408.667 377.667 LINE",
"97 -181.333 LINE"
);
},
{
closed = 1;
nodes = (
"214.167 6.833 LINE",
"90.333 377.667 LINE",
"68.167 377.667 LINE",
"196.667 -4.833 LINE"
);
}
);
width = 422;
},
{
anchors = (
{
name = bottom;
position = "{444, 0}";
},
{
name = top;
position = "{317, 437}";
}
);
layerId = "156A42CF-5234-4DDE-A174-0E3EC098A6C5";
paths = (
{
closed = 1;
nodes = (
"202 -210 LINE",
"564 437 LINE",
"438 437 LINE",
"67 -210 LINE"
);
},
{
closed = 1;
nodes = (
"326 68 LINE",
"207 437 LINE",
"50 437 LINE",
"210 -2 LINE"
);
}
);
width = 540;
}
);
leftKerningGroup = v;
rightKerningGroup = v;
unicode = 0079;
},
{
glyphname = z;
lastChange = "2021-06-30 03:44:16 +0000";
layers = (
{
anchors = (
{
name = bottom;
position = "{152, 0}";
},
{
name = top;
position = "{201, 391}";
}
);
layerId = master01;
paths = (
{
closed = 1;
nodes = (
"321 351 LINE",
"313 366 LINE",
"12 0 LINE",
"334 0 LINE",
"339 40 LINE",
"76 40 LINE",
"87 30 LINE",
"386 391 LINE",
"133 391 LINE SMOOTH",
"110 391 OFFCURVE",
"103 400 OFFCURVE",
"104 416 CURVE SMOOTH",
"104 428 LINE",
"67 428 LINE",
"65 409 LINE SMOOTH",
"61 366 OFFCURVE",
"82 351 OFFCURVE",
"125 351 CURVE SMOOTH"
);
}
);
width = 404;
},
{
anchors = (
{
name = bottom;
position = "{127.833, 0}";
},
{
name = top;
position = "{174.333, 377.667}";
}
);
layerId = "E3E5F2BC-81DA-462E-93BE-62096568DC8F";
paths = (
{
closed = 1;
nodes = (
"326.833 359.333 LINE",
"322.167 366.833 LINE",
"17.833 0 LINE",
"304 0 LINE",
"306.5 18.333 LINE",
"43.5 18.333 LINE",
"52 13.333 LINE",
"355.167 377.667 LINE",
"108.833 377.667 LINE SMOOTH",
"86.667 377.667 OFFCURVE",
"79.667 388.333 OFFCURVE",
"79.833 401 CURVE SMOOTH",
"79.833 413 LINE",
"62.833 413 LINE",
"62.5 406.5 LINE SMOOTH",
"60.167 367.667 OFFCURVE",
"76.167 359.333 OFFCURVE",
"117.5 359.333 CURVE SMOOTH"
);
}
);
width = 368;
},
{
anchors = (
{
name = bottom;
position = "{234, 0}";
},
{
name = top;
position = "{288, 437}";
}
);
layerId = "156A42CF-5234-4DDE-A174-0E3EC098A6C5";
paths = (
{
closed = 1;
nodes = (
"300 323 LINE",
"284 363 LINE",
"-9 0 LINE",
"434 0 LINE",
"448 114 LINE",
"183 114 LINE",
"205 85 LINE",
"490 437 LINE",
"213 437 LINE SMOOTH",
"188 437 OFFCURVE",
"179 437 OFFCURVE",
"183 465 CURVE SMOOTH",
"184 479 LINE",
"79 479 LINE",
"72 419 LINE SMOOTH",
"65 360 OFFCURVE",
"102 323 OFFCURVE",
"150 323 CURVE SMOOTH"
);
}
);
width = 522;
}
);
unicode = 007A;
},
{
glyphname = germandbls;
lastChange = "2021-06-30 03:44:16 +0000";
layers = (
{
layerId = master01;
paths = (
{
closed = 1;
nodes = (
"411 -6 OFFCURVE",
"502 71 OFFCURVE",
"516 187 CURVE SMOOTH",
"528 288 OFFCURVE",
"477 362 OFFCURVE",
"399 391 CURVE",
"493 422 OFFCURVE",
"499 480 OFFCURVE",
"499 525 CURVE SMOOTH",
"499 593 OFFCURVE",
"460 658 OFFCURVE",
"352 663 CURVE",
"236 666 OFFCURVE",
"164 590 OFFCURVE",
"147 457 CURVE SMOOTH",
"139 399 LINE",
"74 399 LINE",
"67 359 LINE",
"132 359 LINE",
"82 0 LINE",
"130 0 LINE",
"189 427 LINE SMOOTH",
"205 545 OFFCURVE",
"252 627 OFFCURVE",
"347 623 CURVE SMOOTH",
"421 619 OFFCURVE",
"451 571 OFFCURVE",
"451 517 CURVE SMOOTH",
"451 486 OFFCURVE",
"423 407 OFFCURVE",
"331 413 CURVE",
"326 370 LINE",
"330 370 LINE",
"422 364 OFFCURVE",
"480 287 OFFCURVE",
"469 192 CURVE SMOOTH",
"459 105 OFFCURVE",
"388 33 OFFCURVE",
"304 33 CURVE SMOOTH",
"285 33 OFFCURVE",
"241 36 OFFCURVE",
"207 63 CURVE",
"185 34 LINE",
"218 6 OFFCURVE",
"262 -5 OFFCURVE",
"303 -5 CURVE SMOOTH"
);
}
);
userData = {
com.schriftgestaltung.Glyphs.glyph.leftMetricsKey = f;
com.schriftgestaltung.Glyphs.glyph.rightMetricsKey = s;
};
width = 570;
},
{
layerId = "E3E5F2BC-81DA-462E-93BE-62096568DC8F";
paths = (
{
closed = 1;
nodes = (
"383.5 -4.333 OFFCURVE",
"480.333 76 OFFCURVE",
"494.333 186.167 CURVE SMOOTH",
"506.333 282.167 OFFCURVE",
"450.333 362.833 OFFCURVE",
"365.667 389.333 CURVE",
"459.667 417.833 OFFCURVE",
"472.333 488.333 OFFCURVE",
"472.333 525 CURVE SMOOTH",
"472.333 589.667 OFFCURVE",
"435 653.833 OFFCURVE",
"335.333 661.333 CURVE",
"223.5 664.333 OFFCURVE",
"163.167 584.167 OFFCURVE",
"147 448.667 CURVE SMOOTH",
"139 386.5 LINE",
"74 386.5 LINE",
"71.167 368.167 LINE",
"136.167 368.167 LINE",
"90.333 0 LINE",
"110 0 LINE",
"163.167 429.5 LINE SMOOTH",
"179.167 556.667 OFFCURVE",
"231.167 648.667 OFFCURVE",
"334.5 643 CURVE SMOOTH",
"418.5 637.333 OFFCURVE",
"452.667 581 OFFCURVE",
"452.667 521.167 CURVE SMOOTH",
"452.667 478.5 OFFCURVE",
"418.833 395.333 OFFCURVE",
"315.167 401.333 CURVE",
"312.667 381.667 LINE",
"316.667 381.667 LINE",
"418.667 374.833 OFFCURVE",
"486.667 287 OFFCURVE",
"474.833 187.833 CURVE SMOOTH",
"463.167 90.833 OFFCURVE",
"373.833 13 OFFCURVE",
"275.667 13 CURVE SMOOTH",
"255 13 OFFCURVE",
"213.5 16 OFFCURVE",
"173.667 46.333 CURVE",
"164.167 32.333 LINE",
"204.667 1.833 OFFCURVE",
"248.667 -4.167 OFFCURVE",
"274.667 -4.167 CURVE SMOOTH"
);
}
);
userData = {
com.schriftgestaltung.Glyphs.glyph.leftMetricsKey = f;
com.schriftgestaltung.Glyphs.glyph.rightMetricsKey = s;
};
width = 549;
},
{
layerId = "156A42CF-5234-4DDE-A174-0E3EC098A6C5";
paths = (
{
closed = 1;
nodes = (
"549 -13 OFFCURVE",
"587 132 OFFCURVE",
"587 224 CURVE SMOOTH",
"587 318 OFFCURVE",
"557 365 OFFCURVE",
"505 395 CURVE",
"553 417 OFFCURVE",
"584 467 OFFCURVE",
"584 519 CURVE SMOOTH",
"584 617 OFFCURVE",
"511 670 OFFCURVE",
"405 670 CURVE",
"272 670 OFFCURVE",
"164 611 OFFCURVE",
"143 484 CURVE SMOOTH",
"136 441 LINE",
"71 441 LINE",
"49 327 LINE",
"114 327 LINE",
"51 0 LINE",
"191 0 LINE",
"272 419 LINE SMOOTH",
"289 506 OFFCURVE",
"317 556 OFFCURVE",
"384 556 CURVE SMOOTH",
"423 556 OFFCURVE",
"441 541 OFFCURVE",
"441 509 CURVE SMOOTH",
"441 477 OFFCURVE",
"422 448 OFFCURVE",
"380 452 CURVE",
"366 331 LINE",
"372 330 LINE",
"422 329 OFFCURVE",
"449 295 OFFCURVE",
"447 231 CURVE SMOOTH",
"447 195 OFFCURVE",
"436 98 OFFCURVE",
"369 98 CURVE SMOOTH",
"350 98 OFFCURVE",
"324 111 OFFCURVE",
"311 126 CURVE",
"252 39 LINE",
"272 12 OFFCURVE",
"327 -7 OFFCURVE",
"374 -7 CURVE SMOOTH"
);
}
);
userData = {
com.schriftgestaltung.Glyphs.glyph.leftMetricsKey = f;
com.schriftgestaltung.Glyphs.glyph.rightMetricsKey = s;
};
width = 638;
}
);
unicode = 00DF;
},
{
glyphname = ae;
lastChange = "2021-06-30 03:44:16 +0000";
layers = (
{
anchors = (
{
name = bottom;
position = "{361, 0}";
},
{
name = top;
position = "{409, 391}";
}
);
layerId = master01;
paths = (
{
closed = 1;
nodes = (
"573 -11 OFFCURVE",
"625 6 OFFCURVE",
"667 34 CURVE",
"647 70 LINE",
"614 45 OFFCURVE",
"572 31 OFFCURVE",
"529 33 CURVE",
"431 40 OFFCURVE",
"376 120 OFFCURVE",
"386 208 CURVE",
"398 301 OFFCURVE",
"476 368 OFFCURVE",
"566 363 CURVE",
"632 359 OFFCURVE",
"673 312 OFFCURVE",
"690 257 CURVE",
"702 270 LINE",
"369 176 LINE",
"373 141 LINE",
"741 244 LINE",
"724 333 OFFCURVE",
"667 396 OFFCURVE",
"574 402 CURVE",
"457 409 OFFCURVE",
"353 323 OFFCURVE",
"339 209 CURVE",
"325 93 OFFCURVE",
"401 0 OFFCURVE",
"522 -8 CURVE"
);
},
{
closed = 1;
nodes = (
"245 -10 OFFCURVE",
"312 1 OFFCURVE",
"353 46 CURVE",
"366 152 LINE",
"339 205 LINE",
"322 68 LINE",
"293 39 OFFCURVE",
"250 27 OFFCURVE",
"212 26 CURVE SMOOTH",
"147 24 OFFCURVE",
"96 48 OFFCURVE",
"93 101 CURVE SMOOTH",
"90 147 OFFCURVE",
"127 193 OFFCURVE",
"208 188 CURVE",
"266 189 OFFCURVE",
"312 159 OFFCURVE",
"348 105 CURVE",
"361 137 LINE",
"333 188 OFFCURVE",
"270 223 OFFCURVE",
"203 228 CURVE",
"89 234 OFFCURVE",
"40 171 OFFCURVE",
"40 104 CURVE SMOOTH",
"40 33 OFFCURVE",
"106 -10 OFFCURVE",
"200 -10 CURVE SMOOTH"
);
},
{
closed = 1;
nodes = (
"391 246 LINE",
"394 267 LINE",
"403 345 OFFCURVE",
"364 395 OFFCURVE",
"268 401 CURVE",
"192 405 OFFCURVE",
"133 377 OFFCURVE",
"87 336 CURVE",
"108 303 LINE",
"157 347 OFFCURVE",
"205 363 OFFCURVE",
"257 360 CURVE",
"306 357 OFFCURVE",
"356 337 OFFCURVE",
"346 256 CURVE",
"339 205 LINE"
);
}
);
userData = {
com.schriftgestaltung.Glyphs.glyph.leftMetricsKey = a;
com.schriftgestaltung.Glyphs.glyph.rightMetricsKey = e;
};
width = 776;
},
{
anchors = (
{
name = bottom;
position = "{354.333, 0}";
},
{
name = top;
position = "{400.667, 377.667}";
}
);
layerId = "E3E5F2BC-81DA-462E-93BE-62096568DC8F";
paths = (
{
closed = 1;
nodes = (
"565.5 -6.833 OFFCURVE",
"611.667 9.333 OFFCURVE",
"649.5 37.333 CURVE",
"638.667 51.667 LINE",
"605.667 25.833 OFFCURVE",
"562.833 11 OFFCURVE",
"518.167 11.333 CURVE SMOOTH",
"456.833 12.5 OFFCURVE",
"351 58.333 OFFCURVE",
"366.833 199.667 CURVE",
"378.833 295.167 OFFCURVE",
"461 368 OFFCURVE",
"555.167 367.167 CURVE SMOOTH",
"603.667 366.5 OFFCURVE",
"672.167 342.833 OFFCURVE",
"701.667 251.167 CURVE",
"708.667 260 LINE",
"359.833 149.333 LINE",
"363 131 LINE",
"723.5 247.333 LINE",
"694 358 OFFCURVE",
"612.833 384.333 OFFCURVE",
"558.167 385.333 CURVE SMOOTH",
"448.667 386.5 OFFCURVE",
"360.5 306.333 OFFCURVE",
"347.333 200.667 CURVE",
"329.167 40.5 OFFCURVE",
"451.833 -5 OFFCURVE",
"516.167 -6.333 CURVE SMOOTH"
);
},
{
closed = 1;
nodes = (
"234.167 -10 OFFCURVE",
"306.167 -3.167 OFFCURVE",
"347.167 41 CURVE",
"360.167 148.667 LINE",
"347.333 198.333 LINE",
"329.5 48 LINE",
"295.5 16.5 OFFCURVE",
"236.667 8.667 OFFCURVE",
"197 8.5 CURVE SMOOTH",
"142 8.167 OFFCURVE",
"69.333 26.333 OFFCURVE",
"65.5 92.667 CURVE",
"65 159.5 OFFCURVE",
"117 199.667 OFFCURVE",
"186.333 198 CURVE SMOOTH",
"210.167 198.167 OFFCURVE",
"289.5 189.833 OFFCURVE",
"347.167 99.167 CURVE",
"354.333 112 LINE",
"313 201.333 OFFCURVE",
"216.667 216.333 OFFCURVE",
"185.5 217.167 CURVE SMOOTH",
"86.5 218.167 OFFCURVE",
"44.167 157.667 OFFCURVE",
"44.167 93.167 CURVE SMOOTH",
"44.167 30.5 OFFCURVE",
"104.333 -10 OFFCURVE",
"195 -10 CURVE SMOOTH"
);
},
{
closed = 1;
nodes = (
"372.667 239.333 LINE",
"375.667 260.333 LINE SMOOTH",
"387.167 344.167 OFFCURVE",
"331.5 382.5 OFFCURVE",
"258.833 383.5 CURVE SMOOTH",
"190.333 384.167 OFFCURVE",
"137.167 361.167 OFFCURVE",
"94.5 322.667 CURVE",
"103.833 307.167 LINE",
"157 353.667 OFFCURVE",
"205 365.5 OFFCURVE",
"253.667 365 CURVE SMOOTH",
"293.5 364.5 OFFCURVE",
"366 348.667 OFFCURVE",
"354.333 255.167 CURVE SMOOTH",
"347.333 199.167 LINE"
);
}
);
userData = {
com.schriftgestaltung.Glyphs.glyph.leftMetricsKey = a;
com.schriftgestaltung.Glyphs.glyph.rightMetricsKey = e;
};
width = 761;
},
{
anchors = (
{
name = bottom;
position = "{393, 0}";
},
{
name = top;
position = "{447, 437}";
}
);
layerId = "156A42CF-5234-4DDE-A174-0E3EC098A6C5";
paths = (
{
closed = 1;
nodes = (
"600 -12 OFFCURVE",
"654 1 OFFCURVE",
"700 23 CURVE",
"651 130 LINE",
"623 115 OFFCURVE",
"597 107 OFFCURVE",
"569 107 CURVE SMOOTH",
"545 107 OFFCURVE",
"448 117 OFFCURVE",
"463 237 CURVE",
"473 306 OFFCURVE",
"513 349 OFFCURVE",
"570 349 CURVE SMOOTH",
"608 349 OFFCURVE",
"649 336 OFFCURVE",
"661 278 CURVE",
"691 290 LINE",
"411 250 LINE",
"416 176 LINE",
"809 231 LINE",
"796 431 OFFCURVE",
"667 458 OFFCURVE",
"590 458 CURVE SMOOTH",
"456 458 OFFCURVE",
"339 365 OFFCURVE",
"324 238 CURVE",
"297 8 OFFCURVE",
"494 -12 OFFCURVE",
"555 -12 CURVE SMOOTH"
);
},
{
closed = 1;
nodes = (
"273 -11 OFFCURVE",
"336 14 OFFCURVE",
"380 62 CURVE",
"393 162 LINE",
"341 165 LINE",
"336 127 LINE",
"317 106 OFFCURVE",
"279 85 OFFCURVE",
"244 83 CURVE SMOOTH",
"213 83 OFFCURVE",
"182 92 OFFCURVE",
"182 125 CURVE SMOOTH",
"182 144 OFFCURVE",
"192 171 OFFCURVE",
"244 171 CURVE SMOOTH",
"274 171 OFFCURVE",
"312 165 OFFCURVE",
"349 141 CURVE",
"381 220 LINE",
"327 256 OFFCURVE",
"295 264 OFFCURVE",
"221 264 CURVE SMOOTH",
"76 264 OFFCURVE",
"27 181 OFFCURVE",
"27 121 CURVE SMOOTH",
"27 29 OFFCURVE",
"122 -11 OFFCURVE",
"195 -11 CURVE SMOOTH"
);
},
{
closed = 1;
nodes = (
"449 269 LINE",
"452 289 LINE SMOOTH",
"471 441 OFFCURVE",
"305 458 OFFCURVE",
"259 458 CURVE SMOOTH",
"173 458 OFFCURVE",
"107 422 OFFCURVE",
"59 380 CURVE",
"118 288 LINE",
"139 313 OFFCURVE",
"179 345 OFFCURVE",
"226 345 CURVE SMOOTH",
"257 345 OFFCURVE",
"323 339 OFFCURVE",
"313 259 CURVE",
"309 223 LINE"
);
}
);
userData = {
com.schriftgestaltung.Glyphs.glyph.leftMetricsKey = a;
com.schriftgestaltung.Glyphs.glyph.rightMetricsKey = e;
};
width = 836;
}
);
unicode = 00E6;
},
{
glyphname = eth;
lastChange = "2021-06-30 03:44:16 +0000";
layers = (
{
layerId = master01;
paths = (
{
closed = 1;
nodes = (
"388 -9 OFFCURVE",
"468 110 OFFCURVE",
"474 243 CURVE SMOOTH",
"479 418 OFFCURVE",
"374 629 OFFCURVE",
"238 746 CURVE",
"202 717 LINE",
"326 607 OFFCURVE",
"431 413 OFFCURVE",
"424 243 CURVE",
"439 271 LINE",
"415 356 OFFCURVE",
"337 401 OFFCURVE",
"269 403 CURVE SMOOTH",
"131 407 OFFCURVE",
"55 311 OFFCURVE",
"51 199 CURVE SMOOTH",
"46 55 OFFCURVE",
"147 -4 OFFCURVE",
"238 -6 CURVE SMOOTH"
);
},
{
closed = 1;
nodes = (
"175 35 OFFCURVE",
"96 85 OFFCURVE",
"98 198 CURVE SMOOTH",
"101 281 OFFCURVE",
"157 366 OFFCURVE",
"273 362 CURVE SMOOTH",
"315 361 OFFCURVE",
"424 327 OFFCURVE",
"421 204 CURVE SMOOTH",
"419 145 OFFCURVE",
"373 31 OFFCURVE",
"245 33 CURVE SMOOTH"
);
},
{
closed = 1;
nodes = (
"407 706 LINE",
"195 593 LINE",
"209 561 LINE",
"418 674 LINE"
);
}
);
userData = {
com.schriftgestaltung.Glyphs.glyph.leftMetricsKey = o;
com.schriftgestaltung.Glyphs.glyph.rightMetricsKey = o;
};
width = 520;
},
{
layerId = "E3E5F2BC-81DA-462E-93BE-62096568DC8F";
paths = (
{
closed = 1;
nodes = (
"380.5 -5.667 OFFCURVE",
"453.833 107.5 OFFCURVE",
"454.833 225.5 CURVE SMOOTH",
"455.667 406.333 OFFCURVE",
"338.167 624.833 OFFCURVE",
"212.167 732.667 CURVE",
"200.333 721.167 LINE",
"318.5 618.667 OFFCURVE",
"435.167 395.5 OFFCURVE",
"434 241.333 CURVE",
"439 261 LINE",
"403.333 356.833 OFFCURVE",
"317.833 385.167 OFFCURVE",
"266.5 386.333 CURVE SMOOTH",
"123.5 389.5 OFFCURVE",
"56.667 291.833 OFFCURVE",
"56 187.333 CURVE SMOOTH",
"55.167 44.167 OFFCURVE",
"157.833 -4.833 OFFCURVE",
"237.167 -5.167 CURVE SMOOTH"
);
},
{
closed = 1;
nodes = (
"165.833 13.333 OFFCURVE",
"75.167 61.667 OFFCURVE",
"75.5 188.833 CURVE SMOOTH",
"76 275.167 OFFCURVE",
"133.667 371.833 OFFCURVE",
"267.167 367.833 CURVE SMOOTH",
"301.667 366.833 OFFCURVE",
"432.333 339.5 OFFCURVE",
"431.833 199.833 CURVE SMOOTH",
"431.5 144.167 OFFCURVE",
"386.333 10.167 OFFCURVE",
"239.167 12.167 CURVE SMOOTH"
);
},
{
closed = 1;
nodes = (
"377 692.667 LINE",
"190.833 592.167 LINE",
"199 579.333 LINE",
"381.333 679.833 LINE"
);
}
);
userData = {
com.schriftgestaltung.Glyphs.glyph.leftMetricsKey = o;
com.schriftgestaltung.Glyphs.glyph.rightMetricsKey = o;
};
width = 507;
},
{
layerId = "156A42CF-5234-4DDE-A174-0E3EC098A6C5";
paths = (
{
closed = 1;
nodes = (
"470 -11 OFFCURVE",
"543 174 OFFCURVE",
"543 332 CURVE SMOOTH",
"543 482 OFFCURVE",
"484 654 OFFCURVE",
"325 790 CURVE",
"210 704 LINE",
"353 567 OFFCURVE",
"419 470 OFFCURVE",
"392 248 CURVE",
"441 215 LINE",
"462 384 OFFCURVE",
"356 460 OFFCURVE",
"262 460 CURVE SMOOTH",
"121 460 OFFCURVE",
"45 339 OFFCURVE",
"41 241 CURVE SMOOTH",
"31 18 OFFCURVE",
"205 -11 OFFCURVE",
"266 -11 CURVE SMOOTH"
);
},
{
closed = 1;
nodes = (
"244 103 OFFCURVE",
"174 122 OFFCURVE",
"175 210 CURVE SMOOTH",
"175 256 OFFCURVE",
"204 343 OFFCURVE",
"286 344 CURVE SMOOTH",
"318 344 OFFCURVE",
"402 326 OFFCURVE",
"388 217 CURVE",
"380 152 OFFCURVE",
"337 105 OFFCURVE",
"278 103 CURVE SMOOTH"
);
},
{
closed = 1;
nodes = (
"508 749 LINE",
"211 597 LINE",
"245 501 LINE",
"542 654 LINE"
);
}
);
userData = {
com.schriftgestaltung.Glyphs.glyph.leftMetricsKey = o;
com.schriftgestaltung.Glyphs.glyph.rightMetricsKey = o;
};
width = 571;
}
);
unicode = 00F0;
},
{
glyphname = oslash;
lastChange = "2021-06-30 03:44:16 +0000";
layers = (
{
anchors = (
{
name = bottom;
position = "{232, 0}";
},
{
name = center;
position = "{249, 204}";
},
{
name = ogonek;
position = "{306, -1}";
},
{
name = top;
position = "{271, 395}";
},
{
name = topright;
position = "{359, 365}";
}
);
components = (
{
name = o;
}
);
layerId = master01;
paths = (
{
closed = 1;
nodes = (
"438 401 LINE",
"366 327 OFFCURVE",
"128 85 OFFCURVE",
"57 11 CURVE",
"76 -10 LINE",
"147 65 OFFCURVE",
"386 307 OFFCURVE",
"458 382 CURVE"
);
}
);
width = 489;
},
{
anchors = (
{
name = bottom;
position = "{219.5, 0}";
},
{
name = center;
position = "{241.5, 190.667}";
},
{
name = ogonek;
position = "{276, -4.333}";
},
{
name = top;
position = "{264.333, 378.333}";
},
{
name = topright;
position = "{334.833, 371.667}";
}
);
components = (
{
name = o;
}
);
layerId = "E3E5F2BC-81DA-462E-93BE-62096568DC8F";
paths = (
{
closed = 1;
nodes = (
"418.833 379.333 LINE",
"341 298.667 OFFCURVE",
"140.5 90.833 OFFCURVE",
"62.833 10.167 CURVE",
"71.833 -1.667 LINE",
"149.5 80 OFFCURVE",
"351 287 OFFCURVE",
"428.833 368.667 CURVE"
);
}
);
userData = {
com.schriftgestaltung.componentsAlignment = (
-1
);
};
width = 472;
},
{
anchors = (
{
name = bottom;
position = "{278, 0}";
},
{
name = center;
position = "{278, 250}";
},
{
name = ogonek;
position = "{409, 10}";
},
{
name = top;
position = "{298, 450}";
},
{
name = topright;
position = "{441, 343}";
}
);
components = (
{
name = o;
}
);
layerId = "156A42CF-5234-4DDE-A174-0E3EC098A6C5";
paths = (
{
closed = 1;
nodes = (
"500 474 LINE",
"450 423 OFFCURVE",
"88 65 OFFCURVE",
"38 14 CURVE",
"89 -37 LINE",
"140 15 OFFCURVE",
"503 374 OFFCURVE",
"555 426 CURVE"
);
}
);
width = 546;
}
);
rightKerningGroup = o;
unicode = 00F8;
},
{
glyphname = thorn;
lastChange = "2021-06-30 03:44:16 +0000";
layers = (
{
layerId = master01;
paths = (
{
closed = 1;
nodes = (
"158 760 LINE",
"42 -188 LINE",
"83 -188 LINE",
"121 107 LINE",
"110 94 LINE",
"130 37 OFFCURVE",
"191 -8 OFFCURVE",
"271 -8 CURVE SMOOTH",
"395 -8 OFFCURVE",
"502 74 OFFCURVE",
"502 219 CURVE SMOOTH",
"502 325 OFFCURVE",
"429 400 OFFCURVE",
"323 400 CURVE SMOOTH",
"241 400 OFFCURVE",
"171 354 OFFCURVE",
"137 297 CURVE",
"140 274 LINE",
"200 760 LINE"
);
},
{
closed = 1;
nodes = (
"458 97 OFFCURVE",
"376 33 OFFCURVE",
"275 33 CURVE SMOOTH",
"190 33 OFFCURVE",
"129 97 OFFCURVE",
"129 180 CURVE SMOOTH",
"129 279 OFFCURVE",
"215 360 OFFCURVE",
"315 360 CURVE SMOOTH",
"399 360 OFFCURVE",
"458 296 OFFCURVE",
"458 215 CURVE SMOOTH"
);
}
);
userData = {
com.schriftgestaltung.Glyphs.glyph.leftMetricsKey = n;
com.schriftgestaltung.Glyphs.glyph.rightMetricsKey = o;
};
width = 552;
},
{
layerId = "E3E5F2BC-81DA-462E-93BE-62096568DC8F";
paths = (
{
closed = 1;
nodes = (
"163 751.667 LINE",
"48.667 -181.333 LINE",
"67.167 -181.333 LINE",
"104.333 126.167 LINE",
"99.167 113.167 LINE",
"119.167 43.667 OFFCURVE",
"183.5 -6.333 OFFCURVE",
"266.833 -6.333 CURVE SMOOTH",
"383.333 -6.333 OFFCURVE",
"488.667 71.5 OFFCURVE",
"488.667 209.833 CURVE SMOOTH",
"488.667 309.167 OFFCURVE",
"416.5 385.833 OFFCURVE",
"315.5 385.833 CURVE SMOOTH",
"231.833 385.833 OFFCURVE",
"152.667 335.667 OFFCURVE",
"117.833 267 CURVE",
"120 245.667 LINE",
"181.667 751.667 LINE"
);
},
{
closed = 1;
nodes = (
"469.667 92 OFFCURVE",
"376.833 12.167 OFFCURVE",
"269.167 12.167 CURVE SMOOTH",
"178.333 12.167 OFFCURVE",
"111.5 73.667 OFFCURVE",
"111.5 171.667 CURVE SMOOTH",
"111.5 278.167 OFFCURVE",
"205.833 367.5 OFFCURVE",
"312.5 367.5 CURVE SMOOTH",
"403.167 367.5 OFFCURVE",
"469.667 296.833 OFFCURVE",
"469.667 208.333 CURVE SMOOTH"
);
}
);
userData = {
com.schriftgestaltung.Glyphs.glyph.leftMetricsKey = n;
com.schriftgestaltung.Glyphs.glyph.rightMetricsKey = o;
};
width = 542;
},
{
layerId = "156A42CF-5234-4DDE-A174-0E3EC098A6C5";
paths = (
{
closed = 1;
nodes = (
"142 789 LINE",
"19 -210 LINE",
"136 -210 LINE",
"166 33 LINE",
"164 29 LINE",
"178 13 OFFCURVE",
"225 -12 OFFCURVE",
"285 -12 CURVE SMOOTH",
"435 -12 OFFCURVE",
"546 77 OFFCURVE",
"546 250 CURVE SMOOTH",
"546 376 OFFCURVE",
"470 449 OFFCURVE",
"348 449 CURVE SMOOTH",
"277 449 OFFCURVE",
"228 414 OFFCURVE",
"208 399 CURVE",
"208 375 LINE",
"259 789 LINE"
);
},
{
closed = 1;
nodes = (
"418 160 OFFCURVE",
"373 102 OFFCURVE",
"293 102 CURVE SMOOTH",
"228 102 OFFCURVE",
"188 147 OFFCURVE",
"188 206 CURVE SMOOTH",
"188 280 OFFCURVE",
"245 335 OFFCURVE",
"322 335 CURVE SMOOTH",
"386 335 OFFCURVE",
"418 294 OFFCURVE",
"418 236 CURVE SMOOTH"
);
}
);
userData = {
com.schriftgestaltung.Glyphs.glyph.leftMetricsKey = n;
com.schriftgestaltung.Glyphs.glyph.rightMetricsKey = o;
};
width = 583;
}
);
rightKerningGroup = o;
unicode = 00FE;
},
{
glyphname = dcroat;
lastChange = "2021-06-30 03:44:16 +0000";
layers = (
{
anchors = (
{
name = bottom;
position = "{253, 0}";
},
{
name = center;
position = "{447, 497}";
},
{
name = top;
position = "{287, 408}";
},
{
name = topright;
position = "{586, 667}";
}
);
components = (
{
name = d;
}
);
layerId = master01;
paths = (
{
closed = 1;
nodes = (
"300 612 LINE",
"588 612 LINE",
"593 649 LINE",
"304 649 LINE"
);
}
);
width = 529;
},
{
anchors = (
{
name = bottom;
position = "{233, 0}";
},
{
name = center;
position = "{484.5, 571.167}";
},
{
name = top;
position = "{277, 380.5}";
},
{
name = topright;
position = "{564.333, 717}";
}
);
components = (
{
name = d;
}
);
layerId = "E3E5F2BC-81DA-462E-93BE-62096568DC8F";
paths = (
{
closed = 1;
nodes = (
"289.167 615.333 LINE",
"571.333 615.333 LINE",
"573.833 633.167 LINE",
"291.5 633.167 LINE"
);
}
);
userData = {
com.schriftgestaltung.componentsAlignment = (
-1
);
};
width = 509;
},
{
anchors = (
{
name = bottom;
position = "{327, 0}";
},
{
name = center;
position = "{327, 250}";
},
{
name = top;
position = "{327, 500}";
},
{
name = topright;
position = "{664, 500}";
}
);
components = (
{
name = d;
}
);
layerId = "156A42CF-5234-4DDE-A174-0E3EC098A6C5";
paths = (
{
closed = 1;
nodes = (
"335 601 LINE",
"643 601 LINE",
"655 700 LINE",
"347 700 LINE"
);
}
);
width = 595;
}
);
leftKerningGroup = o;
unicode = 0111;
},
